G04 #@! TF.GenerationSoftware,KiCad,Pcbnew,(5.1.5)-3*
G04 #@! TF.CreationDate,2020-07-03T21:50:41-07:00*
G04 #@! TF.ProjectId,pic18f_DB_Ethernet,70696331-3866-45f4-9442-5f4574686572,rev?*
G04 #@! TF.SameCoordinates,Original*
G04 #@! TF.FileFunction,Soldermask,Bot*
G04 #@! TF.FilePolarity,Negative*
%FSLAX46Y46*%
G04 Gerber Fmt 4.6, Leading zero omitted, Abs format (unit mm)*
G04 Created by KiCad (PCBNEW (5.1.5)-3) date 2020-07-03 21:50:41*
%MOMM*%
%LPD*%
G04 APERTURE LIST*
%ADD10C,0.100000*%
G04 APERTURE END LIST*
D10*
G36*
X147865400Y-146239800D02*
G01*
X146063400Y-146239800D01*
X146063400Y-144437800D01*
X147865400Y-144437800D01*
X147865400Y-146239800D01*
G37*
G36*
X144537912Y-144442727D02*
G01*
X144687212Y-144472424D01*
X144851184Y-144540344D01*
X144998754Y-144638947D01*
X145124253Y-144764446D01*
X145222856Y-144912016D01*
X145290776Y-145075988D01*
X145325400Y-145250059D01*
X145325400Y-145427541D01*
X145290776Y-145601612D01*
X145222856Y-145765584D01*
X145124253Y-145913154D01*
X144998754Y-146038653D01*
X144851184Y-146137256D01*
X144687212Y-146205176D01*
X144537912Y-146234873D01*
X144513142Y-146239800D01*
X144335658Y-146239800D01*
X144310888Y-146234873D01*
X144161588Y-146205176D01*
X143997616Y-146137256D01*
X143850046Y-146038653D01*
X143724547Y-145913154D01*
X143625944Y-145765584D01*
X143558024Y-145601612D01*
X143523400Y-145427541D01*
X143523400Y-145250059D01*
X143558024Y-145075988D01*
X143625944Y-144912016D01*
X143724547Y-144764446D01*
X143850046Y-144638947D01*
X143997616Y-144540344D01*
X144161588Y-144472424D01*
X144310888Y-144442727D01*
X144335658Y-144437800D01*
X144513142Y-144437800D01*
X144537912Y-144442727D01*
G37*
G36*
X134377912Y-144442727D02*
G01*
X134527212Y-144472424D01*
X134691184Y-144540344D01*
X134838754Y-144638947D01*
X134964253Y-144764446D01*
X135062856Y-144912016D01*
X135130776Y-145075988D01*
X135165400Y-145250059D01*
X135165400Y-145427541D01*
X135130776Y-145601612D01*
X135062856Y-145765584D01*
X134964253Y-145913154D01*
X134838754Y-146038653D01*
X134691184Y-146137256D01*
X134527212Y-146205176D01*
X134377912Y-146234873D01*
X134353142Y-146239800D01*
X134175658Y-146239800D01*
X134150888Y-146234873D01*
X134001588Y-146205176D01*
X133837616Y-146137256D01*
X133690046Y-146038653D01*
X133564547Y-145913154D01*
X133465944Y-145765584D01*
X133398024Y-145601612D01*
X133363400Y-145427541D01*
X133363400Y-145250059D01*
X133398024Y-145075988D01*
X133465944Y-144912016D01*
X133564547Y-144764446D01*
X133690046Y-144638947D01*
X133837616Y-144540344D01*
X134001588Y-144472424D01*
X134150888Y-144442727D01*
X134175658Y-144437800D01*
X134353142Y-144437800D01*
X134377912Y-144442727D01*
G37*
G36*
X136917912Y-144442727D02*
G01*
X137067212Y-144472424D01*
X137231184Y-144540344D01*
X137378754Y-144638947D01*
X137504253Y-144764446D01*
X137602856Y-144912016D01*
X137670776Y-145075988D01*
X137705400Y-145250059D01*
X137705400Y-145427541D01*
X137670776Y-145601612D01*
X137602856Y-145765584D01*
X137504253Y-145913154D01*
X137378754Y-146038653D01*
X137231184Y-146137256D01*
X137067212Y-146205176D01*
X136917912Y-146234873D01*
X136893142Y-146239800D01*
X136715658Y-146239800D01*
X136690888Y-146234873D01*
X136541588Y-146205176D01*
X136377616Y-146137256D01*
X136230046Y-146038653D01*
X136104547Y-145913154D01*
X136005944Y-145765584D01*
X135938024Y-145601612D01*
X135903400Y-145427541D01*
X135903400Y-145250059D01*
X135938024Y-145075988D01*
X136005944Y-144912016D01*
X136104547Y-144764446D01*
X136230046Y-144638947D01*
X136377616Y-144540344D01*
X136541588Y-144472424D01*
X136690888Y-144442727D01*
X136715658Y-144437800D01*
X136893142Y-144437800D01*
X136917912Y-144442727D01*
G37*
G36*
X141997912Y-144442727D02*
G01*
X142147212Y-144472424D01*
X142311184Y-144540344D01*
X142458754Y-144638947D01*
X142584253Y-144764446D01*
X142682856Y-144912016D01*
X142750776Y-145075988D01*
X142785400Y-145250059D01*
X142785400Y-145427541D01*
X142750776Y-145601612D01*
X142682856Y-145765584D01*
X142584253Y-145913154D01*
X142458754Y-146038653D01*
X142311184Y-146137256D01*
X142147212Y-146205176D01*
X141997912Y-146234873D01*
X141973142Y-146239800D01*
X141795658Y-146239800D01*
X141770888Y-146234873D01*
X141621588Y-146205176D01*
X141457616Y-146137256D01*
X141310046Y-146038653D01*
X141184547Y-145913154D01*
X141085944Y-145765584D01*
X141018024Y-145601612D01*
X140983400Y-145427541D01*
X140983400Y-145250059D01*
X141018024Y-145075988D01*
X141085944Y-144912016D01*
X141184547Y-144764446D01*
X141310046Y-144638947D01*
X141457616Y-144540344D01*
X141621588Y-144472424D01*
X141770888Y-144442727D01*
X141795658Y-144437800D01*
X141973142Y-144437800D01*
X141997912Y-144442727D01*
G37*
G36*
X139457912Y-144442727D02*
G01*
X139607212Y-144472424D01*
X139771184Y-144540344D01*
X139918754Y-144638947D01*
X140044253Y-144764446D01*
X140142856Y-144912016D01*
X140210776Y-145075988D01*
X140245400Y-145250059D01*
X140245400Y-145427541D01*
X140210776Y-145601612D01*
X140142856Y-145765584D01*
X140044253Y-145913154D01*
X139918754Y-146038653D01*
X139771184Y-146137256D01*
X139607212Y-146205176D01*
X139457912Y-146234873D01*
X139433142Y-146239800D01*
X139255658Y-146239800D01*
X139230888Y-146234873D01*
X139081588Y-146205176D01*
X138917616Y-146137256D01*
X138770046Y-146038653D01*
X138644547Y-145913154D01*
X138545944Y-145765584D01*
X138478024Y-145601612D01*
X138443400Y-145427541D01*
X138443400Y-145250059D01*
X138478024Y-145075988D01*
X138545944Y-144912016D01*
X138644547Y-144764446D01*
X138770046Y-144638947D01*
X138917616Y-144540344D01*
X139081588Y-144472424D01*
X139230888Y-144442727D01*
X139255658Y-144437800D01*
X139433142Y-144437800D01*
X139457912Y-144442727D01*
G37*
G36*
X196818856Y-142155298D02*
G01*
X196925179Y-142176447D01*
X197225642Y-142300903D01*
X197496051Y-142481585D01*
X197726015Y-142711549D01*
X197906697Y-142981958D01*
X197906698Y-142981960D01*
X198031153Y-143282422D01*
X198084496Y-143550591D01*
X198094600Y-143601391D01*
X198094600Y-143926609D01*
X198031153Y-144245579D01*
X197906697Y-144546042D01*
X197726015Y-144816451D01*
X197496051Y-145046415D01*
X197225642Y-145227097D01*
X196925179Y-145351553D01*
X196861598Y-145364200D01*
X196606211Y-145415000D01*
X196280989Y-145415000D01*
X196025602Y-145364200D01*
X195962021Y-145351553D01*
X195661558Y-145227097D01*
X195391149Y-145046415D01*
X195161185Y-144816451D01*
X194980503Y-144546042D01*
X194856047Y-144245579D01*
X194792600Y-143926609D01*
X194792600Y-143601391D01*
X194802705Y-143550591D01*
X194856047Y-143282422D01*
X194980502Y-142981960D01*
X194980503Y-142981958D01*
X195161185Y-142711549D01*
X195391149Y-142481585D01*
X195661558Y-142300903D01*
X195962021Y-142176447D01*
X196068344Y-142155298D01*
X196280989Y-142113000D01*
X196606211Y-142113000D01*
X196818856Y-142155298D01*
G37*
G36*
X103956456Y-142104498D02*
G01*
X104062779Y-142125647D01*
X104363242Y-142250103D01*
X104633651Y-142430785D01*
X104863615Y-142660749D01*
X104897560Y-142711551D01*
X105044298Y-142931160D01*
X105168753Y-143231622D01*
X105232200Y-143550589D01*
X105232200Y-143875811D01*
X105222095Y-143926611D01*
X105168753Y-144194779D01*
X105044297Y-144495242D01*
X104863615Y-144765651D01*
X104633651Y-144995615D01*
X104363242Y-145176297D01*
X104062779Y-145300753D01*
X103956456Y-145321902D01*
X103743811Y-145364200D01*
X103418589Y-145364200D01*
X103205944Y-145321902D01*
X103099621Y-145300753D01*
X102799158Y-145176297D01*
X102528749Y-144995615D01*
X102298785Y-144765651D01*
X102118103Y-144495242D01*
X101993647Y-144194779D01*
X101940305Y-143926611D01*
X101930200Y-143875811D01*
X101930200Y-143550589D01*
X101993647Y-143231622D01*
X102118102Y-142931160D01*
X102264840Y-142711551D01*
X102298785Y-142660749D01*
X102528749Y-142430785D01*
X102799158Y-142250103D01*
X103099621Y-142125647D01*
X103205944Y-142104498D01*
X103418589Y-142062200D01*
X103743811Y-142062200D01*
X103956456Y-142104498D01*
G37*
G36*
X108426856Y-125873898D02*
G01*
X108533179Y-125895047D01*
X108833642Y-126019503D01*
X109104051Y-126200185D01*
X109334015Y-126430149D01*
X109514697Y-126700558D01*
X109639153Y-127001021D01*
X109702600Y-127319991D01*
X109702600Y-127645209D01*
X109639153Y-127964179D01*
X109514697Y-128264642D01*
X109334015Y-128535051D01*
X109104051Y-128765015D01*
X108833642Y-128945697D01*
X108533179Y-129070153D01*
X108426856Y-129091302D01*
X108214211Y-129133600D01*
X107888989Y-129133600D01*
X107676344Y-129091302D01*
X107570021Y-129070153D01*
X107269558Y-128945697D01*
X106999149Y-128765015D01*
X106769185Y-128535051D01*
X106588503Y-128264642D01*
X106464047Y-127964179D01*
X106400600Y-127645209D01*
X106400600Y-127319991D01*
X106464047Y-127001021D01*
X106588503Y-126700558D01*
X106769185Y-126430149D01*
X106999149Y-126200185D01*
X107269558Y-126019503D01*
X107570021Y-125895047D01*
X107676344Y-125873898D01*
X107888989Y-125831600D01*
X108214211Y-125831600D01*
X108426856Y-125873898D01*
G37*
G36*
X117175242Y-125442381D02*
G01*
X117321014Y-125502762D01*
X117321016Y-125502763D01*
X117452208Y-125590422D01*
X117563778Y-125701992D01*
X117651437Y-125833184D01*
X117651438Y-125833186D01*
X117711819Y-125978958D01*
X117742600Y-126133707D01*
X117742600Y-126291493D01*
X117711819Y-126446242D01*
X117651438Y-126592014D01*
X117651437Y-126592016D01*
X117563778Y-126723208D01*
X117452208Y-126834778D01*
X117321016Y-126922437D01*
X117321015Y-126922438D01*
X117321014Y-126922438D01*
X117175242Y-126982819D01*
X117020493Y-127013600D01*
X116862707Y-127013600D01*
X116707958Y-126982819D01*
X116562186Y-126922438D01*
X116562185Y-126922438D01*
X116562184Y-126922437D01*
X116430992Y-126834778D01*
X116319422Y-126723208D01*
X116231763Y-126592016D01*
X116231762Y-126592014D01*
X116171381Y-126446242D01*
X116140600Y-126291493D01*
X116140600Y-126133707D01*
X116171381Y-125978958D01*
X116231762Y-125833186D01*
X116231763Y-125833184D01*
X116319422Y-125701992D01*
X116430992Y-125590422D01*
X116562184Y-125502763D01*
X116562186Y-125502762D01*
X116707958Y-125442381D01*
X116862707Y-125411600D01*
X117020493Y-125411600D01*
X117175242Y-125442381D01*
G37*
G36*
X114635242Y-124172381D02*
G01*
X114781014Y-124232762D01*
X114781016Y-124232763D01*
X114912208Y-124320422D01*
X115023778Y-124431992D01*
X115031012Y-124442819D01*
X115111438Y-124563186D01*
X115171819Y-124708958D01*
X115202600Y-124863707D01*
X115202600Y-125021493D01*
X115171819Y-125176242D01*
X115111438Y-125322014D01*
X115111437Y-125322016D01*
X115023778Y-125453208D01*
X114912208Y-125564778D01*
X114781016Y-125652437D01*
X114781015Y-125652438D01*
X114781014Y-125652438D01*
X114635242Y-125712819D01*
X114480493Y-125743600D01*
X114322707Y-125743600D01*
X114167958Y-125712819D01*
X114022186Y-125652438D01*
X114022185Y-125652438D01*
X114022184Y-125652437D01*
X113890992Y-125564778D01*
X113779422Y-125453208D01*
X113691763Y-125322016D01*
X113691762Y-125322014D01*
X113631381Y-125176242D01*
X113600600Y-125021493D01*
X113600600Y-124863707D01*
X113631381Y-124708958D01*
X113691762Y-124563186D01*
X113772188Y-124442819D01*
X113779422Y-124431992D01*
X113890992Y-124320422D01*
X114022184Y-124232763D01*
X114022186Y-124232762D01*
X114167958Y-124172381D01*
X114322707Y-124141600D01*
X114480493Y-124141600D01*
X114635242Y-124172381D01*
G37*
G36*
X117175242Y-122902381D02*
G01*
X117321014Y-122962762D01*
X117321016Y-122962763D01*
X117452208Y-123050422D01*
X117563778Y-123161992D01*
X117602062Y-123219289D01*
X117651438Y-123293186D01*
X117711819Y-123438958D01*
X117742600Y-123593707D01*
X117742600Y-123751493D01*
X117711819Y-123906242D01*
X117651438Y-124052014D01*
X117651437Y-124052016D01*
X117563778Y-124183208D01*
X117452208Y-124294778D01*
X117321016Y-124382437D01*
X117321015Y-124382438D01*
X117321014Y-124382438D01*
X117175242Y-124442819D01*
X117020493Y-124473600D01*
X116862707Y-124473600D01*
X116707958Y-124442819D01*
X116562186Y-124382438D01*
X116562185Y-124382438D01*
X116562184Y-124382437D01*
X116430992Y-124294778D01*
X116319422Y-124183208D01*
X116231763Y-124052016D01*
X116231762Y-124052014D01*
X116171381Y-123906242D01*
X116140600Y-123751493D01*
X116140600Y-123593707D01*
X116171381Y-123438958D01*
X116231762Y-123293186D01*
X116281138Y-123219289D01*
X116319422Y-123161992D01*
X116430992Y-123050422D01*
X116562184Y-122962763D01*
X116562186Y-122962762D01*
X116707958Y-122902381D01*
X116862707Y-122871600D01*
X117020493Y-122871600D01*
X117175242Y-122902381D01*
G37*
G36*
X185381112Y-122586027D02*
G01*
X185530412Y-122615724D01*
X185694384Y-122683644D01*
X185841954Y-122782247D01*
X185967453Y-122907746D01*
X186066056Y-123055316D01*
X186133976Y-123219288D01*
X186168600Y-123393359D01*
X186168600Y-123570841D01*
X186133976Y-123744912D01*
X186066056Y-123908884D01*
X185967453Y-124056454D01*
X185841954Y-124181953D01*
X185694384Y-124280556D01*
X185530412Y-124348476D01*
X185381112Y-124378173D01*
X185356342Y-124383100D01*
X185178858Y-124383100D01*
X185154088Y-124378173D01*
X185004788Y-124348476D01*
X184840816Y-124280556D01*
X184693246Y-124181953D01*
X184567747Y-124056454D01*
X184469144Y-123908884D01*
X184401224Y-123744912D01*
X184366600Y-123570841D01*
X184366600Y-123393359D01*
X184401224Y-123219288D01*
X184469144Y-123055316D01*
X184567747Y-122907746D01*
X184693246Y-122782247D01*
X184840816Y-122683644D01*
X185004788Y-122615724D01*
X185154088Y-122586027D01*
X185178858Y-122581100D01*
X185356342Y-122581100D01*
X185381112Y-122586027D01*
G37*
G36*
X188708600Y-124383100D02*
G01*
X186906600Y-124383100D01*
X186906600Y-122581100D01*
X188708600Y-122581100D01*
X188708600Y-124383100D01*
G37*
G36*
X114635242Y-121632381D02*
G01*
X114781014Y-121692762D01*
X114781016Y-121692763D01*
X114912208Y-121780422D01*
X115023778Y-121891992D01*
X115031012Y-121902819D01*
X115111438Y-122023186D01*
X115171819Y-122168958D01*
X115202600Y-122323707D01*
X115202600Y-122481493D01*
X115171819Y-122636242D01*
X115152184Y-122683644D01*
X115111437Y-122782016D01*
X115023778Y-122913208D01*
X114912208Y-123024778D01*
X114781016Y-123112437D01*
X114781015Y-123112438D01*
X114781014Y-123112438D01*
X114635242Y-123172819D01*
X114480493Y-123203600D01*
X114322707Y-123203600D01*
X114167958Y-123172819D01*
X114022186Y-123112438D01*
X114022185Y-123112438D01*
X114022184Y-123112437D01*
X113890992Y-123024778D01*
X113779422Y-122913208D01*
X113691763Y-122782016D01*
X113651016Y-122683644D01*
X113631381Y-122636242D01*
X113600600Y-122481493D01*
X113600600Y-122323707D01*
X113631381Y-122168958D01*
X113691762Y-122023186D01*
X113772188Y-121902819D01*
X113779422Y-121891992D01*
X113890992Y-121780422D01*
X114022184Y-121692763D01*
X114022186Y-121692762D01*
X114167958Y-121632381D01*
X114322707Y-121601600D01*
X114480493Y-121601600D01*
X114635242Y-121632381D01*
G37*
G36*
X117175242Y-120362381D02*
G01*
X117321014Y-120422762D01*
X117321016Y-120422763D01*
X117452208Y-120510422D01*
X117563778Y-120621992D01*
X117602062Y-120679289D01*
X117651438Y-120753186D01*
X117711819Y-120898958D01*
X117742600Y-121053707D01*
X117742600Y-121211493D01*
X117711819Y-121366242D01*
X117651438Y-121512014D01*
X117651437Y-121512016D01*
X117563778Y-121643208D01*
X117452208Y-121754778D01*
X117321016Y-121842437D01*
X117321015Y-121842438D01*
X117321014Y-121842438D01*
X117175242Y-121902819D01*
X117020493Y-121933600D01*
X116862707Y-121933600D01*
X116707958Y-121902819D01*
X116562186Y-121842438D01*
X116562185Y-121842438D01*
X116562184Y-121842437D01*
X116430992Y-121754778D01*
X116319422Y-121643208D01*
X116231763Y-121512016D01*
X116231762Y-121512014D01*
X116171381Y-121366242D01*
X116140600Y-121211493D01*
X116140600Y-121053707D01*
X116171381Y-120898958D01*
X116231762Y-120753186D01*
X116281138Y-120679289D01*
X116319422Y-120621992D01*
X116430992Y-120510422D01*
X116562184Y-120422763D01*
X116562186Y-120422762D01*
X116707958Y-120362381D01*
X116862707Y-120331600D01*
X117020493Y-120331600D01*
X117175242Y-120362381D01*
G37*
G36*
X185381112Y-120046027D02*
G01*
X185530412Y-120075724D01*
X185694384Y-120143644D01*
X185841954Y-120242247D01*
X185967453Y-120367746D01*
X186066056Y-120515316D01*
X186133976Y-120679288D01*
X186168600Y-120853359D01*
X186168600Y-121030841D01*
X186133976Y-121204912D01*
X186066056Y-121368884D01*
X185967453Y-121516454D01*
X185841954Y-121641953D01*
X185694384Y-121740556D01*
X185530412Y-121808476D01*
X185381112Y-121838173D01*
X185356342Y-121843100D01*
X185178858Y-121843100D01*
X185154088Y-121838173D01*
X185004788Y-121808476D01*
X184840816Y-121740556D01*
X184693246Y-121641953D01*
X184567747Y-121516454D01*
X184469144Y-121368884D01*
X184401224Y-121204912D01*
X184366600Y-121030841D01*
X184366600Y-120853359D01*
X184401224Y-120679288D01*
X184469144Y-120515316D01*
X184567747Y-120367746D01*
X184693246Y-120242247D01*
X184840816Y-120143644D01*
X185004788Y-120075724D01*
X185154088Y-120046027D01*
X185178858Y-120041100D01*
X185356342Y-120041100D01*
X185381112Y-120046027D01*
G37*
G36*
X187921112Y-120046027D02*
G01*
X188070412Y-120075724D01*
X188234384Y-120143644D01*
X188381954Y-120242247D01*
X188507453Y-120367746D01*
X188606056Y-120515316D01*
X188673976Y-120679288D01*
X188708600Y-120853359D01*
X188708600Y-121030841D01*
X188673976Y-121204912D01*
X188606056Y-121368884D01*
X188507453Y-121516454D01*
X188381954Y-121641953D01*
X188234384Y-121740556D01*
X188070412Y-121808476D01*
X187921112Y-121838173D01*
X187896342Y-121843100D01*
X187718858Y-121843100D01*
X187694088Y-121838173D01*
X187544788Y-121808476D01*
X187380816Y-121740556D01*
X187233246Y-121641953D01*
X187107747Y-121516454D01*
X187009144Y-121368884D01*
X186941224Y-121204912D01*
X186906600Y-121030841D01*
X186906600Y-120853359D01*
X186941224Y-120679288D01*
X187009144Y-120515316D01*
X187107747Y-120367746D01*
X187233246Y-120242247D01*
X187380816Y-120143644D01*
X187544788Y-120075724D01*
X187694088Y-120046027D01*
X187718858Y-120041100D01*
X187896342Y-120041100D01*
X187921112Y-120046027D01*
G37*
G36*
X114635242Y-119092381D02*
G01*
X114781014Y-119152762D01*
X114781016Y-119152763D01*
X114912208Y-119240422D01*
X115023778Y-119351992D01*
X115031012Y-119362819D01*
X115111438Y-119483186D01*
X115171819Y-119628958D01*
X115202600Y-119783707D01*
X115202600Y-119941493D01*
X115171819Y-120096242D01*
X115152184Y-120143644D01*
X115111437Y-120242016D01*
X115023778Y-120373208D01*
X114912208Y-120484778D01*
X114781016Y-120572437D01*
X114781015Y-120572438D01*
X114781014Y-120572438D01*
X114635242Y-120632819D01*
X114480493Y-120663600D01*
X114322707Y-120663600D01*
X114167958Y-120632819D01*
X114022186Y-120572438D01*
X114022185Y-120572438D01*
X114022184Y-120572437D01*
X113890992Y-120484778D01*
X113779422Y-120373208D01*
X113691763Y-120242016D01*
X113651016Y-120143644D01*
X113631381Y-120096242D01*
X113600600Y-119941493D01*
X113600600Y-119783707D01*
X113631381Y-119628958D01*
X113691762Y-119483186D01*
X113772188Y-119362819D01*
X113779422Y-119351992D01*
X113890992Y-119240422D01*
X114022184Y-119152763D01*
X114022186Y-119152762D01*
X114167958Y-119092381D01*
X114322707Y-119061600D01*
X114480493Y-119061600D01*
X114635242Y-119092381D01*
G37*
G36*
X117175242Y-117822381D02*
G01*
X117321014Y-117882762D01*
X117321016Y-117882763D01*
X117452208Y-117970422D01*
X117563778Y-118081992D01*
X117602062Y-118139289D01*
X117651438Y-118213186D01*
X117711819Y-118358958D01*
X117742600Y-118513707D01*
X117742600Y-118671493D01*
X117711819Y-118826242D01*
X117651438Y-118972014D01*
X117651437Y-118972016D01*
X117563778Y-119103208D01*
X117452208Y-119214778D01*
X117321016Y-119302437D01*
X117321015Y-119302438D01*
X117321014Y-119302438D01*
X117175242Y-119362819D01*
X117020493Y-119393600D01*
X116862707Y-119393600D01*
X116707958Y-119362819D01*
X116562186Y-119302438D01*
X116562185Y-119302438D01*
X116562184Y-119302437D01*
X116430992Y-119214778D01*
X116319422Y-119103208D01*
X116231763Y-118972016D01*
X116231762Y-118972014D01*
X116171381Y-118826242D01*
X116140600Y-118671493D01*
X116140600Y-118513707D01*
X116171381Y-118358958D01*
X116231762Y-118213186D01*
X116281138Y-118139289D01*
X116319422Y-118081992D01*
X116430992Y-117970422D01*
X116562184Y-117882763D01*
X116562186Y-117882762D01*
X116707958Y-117822381D01*
X116862707Y-117791600D01*
X117020493Y-117791600D01*
X117175242Y-117822381D01*
G37*
G36*
X185381112Y-117506027D02*
G01*
X185530412Y-117535724D01*
X185694384Y-117603644D01*
X185841954Y-117702247D01*
X185967453Y-117827746D01*
X186066056Y-117975316D01*
X186133976Y-118139288D01*
X186168600Y-118313359D01*
X186168600Y-118490841D01*
X186133976Y-118664912D01*
X186066056Y-118828884D01*
X185967453Y-118976454D01*
X185841954Y-119101953D01*
X185694384Y-119200556D01*
X185530412Y-119268476D01*
X185381112Y-119298173D01*
X185356342Y-119303100D01*
X185178858Y-119303100D01*
X185154088Y-119298173D01*
X185004788Y-119268476D01*
X184840816Y-119200556D01*
X184693246Y-119101953D01*
X184567747Y-118976454D01*
X184469144Y-118828884D01*
X184401224Y-118664912D01*
X184366600Y-118490841D01*
X184366600Y-118313359D01*
X184401224Y-118139288D01*
X184469144Y-117975316D01*
X184567747Y-117827746D01*
X184693246Y-117702247D01*
X184840816Y-117603644D01*
X185004788Y-117535724D01*
X185154088Y-117506027D01*
X185178858Y-117501100D01*
X185356342Y-117501100D01*
X185381112Y-117506027D01*
G37*
G36*
X187921112Y-117506027D02*
G01*
X188070412Y-117535724D01*
X188234384Y-117603644D01*
X188381954Y-117702247D01*
X188507453Y-117827746D01*
X188606056Y-117975316D01*
X188673976Y-118139288D01*
X188708600Y-118313359D01*
X188708600Y-118490841D01*
X188673976Y-118664912D01*
X188606056Y-118828884D01*
X188507453Y-118976454D01*
X188381954Y-119101953D01*
X188234384Y-119200556D01*
X188070412Y-119268476D01*
X187921112Y-119298173D01*
X187896342Y-119303100D01*
X187718858Y-119303100D01*
X187694088Y-119298173D01*
X187544788Y-119268476D01*
X187380816Y-119200556D01*
X187233246Y-119101953D01*
X187107747Y-118976454D01*
X187009144Y-118828884D01*
X186941224Y-118664912D01*
X186906600Y-118490841D01*
X186906600Y-118313359D01*
X186941224Y-118139288D01*
X187009144Y-117975316D01*
X187107747Y-117827746D01*
X187233246Y-117702247D01*
X187380816Y-117603644D01*
X187544788Y-117535724D01*
X187694088Y-117506027D01*
X187718858Y-117501100D01*
X187896342Y-117501100D01*
X187921112Y-117506027D01*
G37*
G36*
X115202600Y-118123600D02*
G01*
X113600600Y-118123600D01*
X113600600Y-116521600D01*
X115202600Y-116521600D01*
X115202600Y-118123600D01*
G37*
G36*
X108426856Y-114443898D02*
G01*
X108533179Y-114465047D01*
X108833642Y-114589503D01*
X109104051Y-114770185D01*
X109334015Y-115000149D01*
X109442326Y-115162248D01*
X109514698Y-115270560D01*
X109639153Y-115571022D01*
X109679401Y-115773359D01*
X109702600Y-115889991D01*
X109702600Y-116215209D01*
X109639153Y-116534179D01*
X109514697Y-116834642D01*
X109334015Y-117105051D01*
X109104051Y-117335015D01*
X108833642Y-117515697D01*
X108533179Y-117640153D01*
X108426856Y-117661302D01*
X108214211Y-117703600D01*
X107888989Y-117703600D01*
X107676344Y-117661302D01*
X107570021Y-117640153D01*
X107269558Y-117515697D01*
X106999149Y-117335015D01*
X106769185Y-117105051D01*
X106588503Y-116834642D01*
X106464047Y-116534179D01*
X106400600Y-116215209D01*
X106400600Y-115889991D01*
X106423800Y-115773359D01*
X106464047Y-115571022D01*
X106588502Y-115270560D01*
X106660874Y-115162248D01*
X106769185Y-115000149D01*
X106999149Y-114770185D01*
X107269558Y-114589503D01*
X107570021Y-114465047D01*
X107676344Y-114443898D01*
X107888989Y-114401600D01*
X108214211Y-114401600D01*
X108426856Y-114443898D01*
G37*
G36*
X187921112Y-114966027D02*
G01*
X188070412Y-114995724D01*
X188234384Y-115063644D01*
X188381954Y-115162247D01*
X188507453Y-115287746D01*
X188606056Y-115435316D01*
X188673976Y-115599288D01*
X188708600Y-115773359D01*
X188708600Y-115950841D01*
X188673976Y-116124912D01*
X188606056Y-116288884D01*
X188507453Y-116436454D01*
X188381954Y-116561953D01*
X188234384Y-116660556D01*
X188070412Y-116728476D01*
X187921112Y-116758173D01*
X187896342Y-116763100D01*
X187718858Y-116763100D01*
X187694088Y-116758173D01*
X187544788Y-116728476D01*
X187380816Y-116660556D01*
X187233246Y-116561953D01*
X187107747Y-116436454D01*
X187009144Y-116288884D01*
X186941224Y-116124912D01*
X186906600Y-115950841D01*
X186906600Y-115773359D01*
X186941224Y-115599288D01*
X187009144Y-115435316D01*
X187107747Y-115287746D01*
X187233246Y-115162247D01*
X187380816Y-115063644D01*
X187544788Y-114995724D01*
X187694088Y-114966027D01*
X187718858Y-114961100D01*
X187896342Y-114961100D01*
X187921112Y-114966027D01*
G37*
G36*
X185381112Y-114966027D02*
G01*
X185530412Y-114995724D01*
X185694384Y-115063644D01*
X185841954Y-115162247D01*
X185967453Y-115287746D01*
X186066056Y-115435316D01*
X186133976Y-115599288D01*
X186168600Y-115773359D01*
X186168600Y-115950841D01*
X186133976Y-116124912D01*
X186066056Y-116288884D01*
X185967453Y-116436454D01*
X185841954Y-116561953D01*
X185694384Y-116660556D01*
X185530412Y-116728476D01*
X185381112Y-116758173D01*
X185356342Y-116763100D01*
X185178858Y-116763100D01*
X185154088Y-116758173D01*
X185004788Y-116728476D01*
X184840816Y-116660556D01*
X184693246Y-116561953D01*
X184567747Y-116436454D01*
X184469144Y-116288884D01*
X184401224Y-116124912D01*
X184366600Y-115950841D01*
X184366600Y-115773359D01*
X184401224Y-115599288D01*
X184469144Y-115435316D01*
X184567747Y-115287746D01*
X184693246Y-115162247D01*
X184840816Y-115063644D01*
X185004788Y-114995724D01*
X185154088Y-114966027D01*
X185178858Y-114961100D01*
X185356342Y-114961100D01*
X185381112Y-114966027D01*
G37*
G36*
X187921112Y-112426027D02*
G01*
X188070412Y-112455724D01*
X188234384Y-112523644D01*
X188381954Y-112622247D01*
X188507453Y-112747746D01*
X188606056Y-112895316D01*
X188673976Y-113059288D01*
X188708600Y-113233359D01*
X188708600Y-113410841D01*
X188673976Y-113584912D01*
X188606056Y-113748884D01*
X188507453Y-113896454D01*
X188381954Y-114021953D01*
X188234384Y-114120556D01*
X188070412Y-114188476D01*
X187921112Y-114218173D01*
X187896342Y-114223100D01*
X187718858Y-114223100D01*
X187694088Y-114218173D01*
X187544788Y-114188476D01*
X187380816Y-114120556D01*
X187233246Y-114021953D01*
X187107747Y-113896454D01*
X187009144Y-113748884D01*
X186941224Y-113584912D01*
X186906600Y-113410841D01*
X186906600Y-113233359D01*
X186941224Y-113059288D01*
X187009144Y-112895316D01*
X187107747Y-112747746D01*
X187233246Y-112622247D01*
X187380816Y-112523644D01*
X187544788Y-112455724D01*
X187694088Y-112426027D01*
X187718858Y-112421100D01*
X187896342Y-112421100D01*
X187921112Y-112426027D01*
G37*
G36*
X185381112Y-112426027D02*
G01*
X185530412Y-112455724D01*
X185694384Y-112523644D01*
X185841954Y-112622247D01*
X185967453Y-112747746D01*
X186066056Y-112895316D01*
X186133976Y-113059288D01*
X186168600Y-113233359D01*
X186168600Y-113410841D01*
X186133976Y-113584912D01*
X186066056Y-113748884D01*
X185967453Y-113896454D01*
X185841954Y-114021953D01*
X185694384Y-114120556D01*
X185530412Y-114188476D01*
X185381112Y-114218173D01*
X185356342Y-114223100D01*
X185178858Y-114223100D01*
X185154088Y-114218173D01*
X185004788Y-114188476D01*
X184840816Y-114120556D01*
X184693246Y-114021953D01*
X184567747Y-113896454D01*
X184469144Y-113748884D01*
X184401224Y-113584912D01*
X184366600Y-113410841D01*
X184366600Y-113233359D01*
X184401224Y-113059288D01*
X184469144Y-112895316D01*
X184567747Y-112747746D01*
X184693246Y-112622247D01*
X184840816Y-112523644D01*
X185004788Y-112455724D01*
X185154088Y-112426027D01*
X185178858Y-112421100D01*
X185356342Y-112421100D01*
X185381112Y-112426027D01*
G37*
G36*
X185381112Y-104615527D02*
G01*
X185530412Y-104645224D01*
X185694384Y-104713144D01*
X185841954Y-104811747D01*
X185967453Y-104937246D01*
X186066056Y-105084816D01*
X186133976Y-105248788D01*
X186168600Y-105422859D01*
X186168600Y-105600341D01*
X186133976Y-105774412D01*
X186066056Y-105938384D01*
X185967453Y-106085954D01*
X185841954Y-106211453D01*
X185694384Y-106310056D01*
X185530412Y-106377976D01*
X185381112Y-106407673D01*
X185356342Y-106412600D01*
X185178858Y-106412600D01*
X185154088Y-106407673D01*
X185004788Y-106377976D01*
X184840816Y-106310056D01*
X184693246Y-106211453D01*
X184567747Y-106085954D01*
X184469144Y-105938384D01*
X184401224Y-105774412D01*
X184366600Y-105600341D01*
X184366600Y-105422859D01*
X184401224Y-105248788D01*
X184469144Y-105084816D01*
X184567747Y-104937246D01*
X184693246Y-104811747D01*
X184840816Y-104713144D01*
X185004788Y-104645224D01*
X185154088Y-104615527D01*
X185178858Y-104610600D01*
X185356342Y-104610600D01*
X185381112Y-104615527D01*
G37*
G36*
X188708600Y-106412600D02*
G01*
X186906600Y-106412600D01*
X186906600Y-104610600D01*
X188708600Y-104610600D01*
X188708600Y-106412600D01*
G37*
G36*
X187921112Y-102075527D02*
G01*
X188070412Y-102105224D01*
X188234384Y-102173144D01*
X188381954Y-102271747D01*
X188507453Y-102397246D01*
X188606056Y-102544816D01*
X188673976Y-102708788D01*
X188708600Y-102882859D01*
X188708600Y-103060341D01*
X188673976Y-103234412D01*
X188606056Y-103398384D01*
X188507453Y-103545954D01*
X188381954Y-103671453D01*
X188234384Y-103770056D01*
X188070412Y-103837976D01*
X187921112Y-103867673D01*
X187896342Y-103872600D01*
X187718858Y-103872600D01*
X187694088Y-103867673D01*
X187544788Y-103837976D01*
X187380816Y-103770056D01*
X187233246Y-103671453D01*
X187107747Y-103545954D01*
X187009144Y-103398384D01*
X186941224Y-103234412D01*
X186906600Y-103060341D01*
X186906600Y-102882859D01*
X186941224Y-102708788D01*
X187009144Y-102544816D01*
X187107747Y-102397246D01*
X187233246Y-102271747D01*
X187380816Y-102173144D01*
X187544788Y-102105224D01*
X187694088Y-102075527D01*
X187718858Y-102070600D01*
X187896342Y-102070600D01*
X187921112Y-102075527D01*
G37*
G36*
X185381112Y-102075527D02*
G01*
X185530412Y-102105224D01*
X185694384Y-102173144D01*
X185841954Y-102271747D01*
X185967453Y-102397246D01*
X186066056Y-102544816D01*
X186133976Y-102708788D01*
X186168600Y-102882859D01*
X186168600Y-103060341D01*
X186133976Y-103234412D01*
X186066056Y-103398384D01*
X185967453Y-103545954D01*
X185841954Y-103671453D01*
X185694384Y-103770056D01*
X185530412Y-103837976D01*
X185381112Y-103867673D01*
X185356342Y-103872600D01*
X185178858Y-103872600D01*
X185154088Y-103867673D01*
X185004788Y-103837976D01*
X184840816Y-103770056D01*
X184693246Y-103671453D01*
X184567747Y-103545954D01*
X184469144Y-103398384D01*
X184401224Y-103234412D01*
X184366600Y-103060341D01*
X184366600Y-102882859D01*
X184401224Y-102708788D01*
X184469144Y-102544816D01*
X184567747Y-102397246D01*
X184693246Y-102271747D01*
X184840816Y-102173144D01*
X185004788Y-102105224D01*
X185154088Y-102075527D01*
X185178858Y-102070600D01*
X185356342Y-102070600D01*
X185381112Y-102075527D01*
G37*
G36*
X187921112Y-99535527D02*
G01*
X188070412Y-99565224D01*
X188234384Y-99633144D01*
X188381954Y-99731747D01*
X188507453Y-99857246D01*
X188606056Y-100004816D01*
X188673976Y-100168788D01*
X188708600Y-100342859D01*
X188708600Y-100520341D01*
X188673976Y-100694412D01*
X188606056Y-100858384D01*
X188507453Y-101005954D01*
X188381954Y-101131453D01*
X188234384Y-101230056D01*
X188070412Y-101297976D01*
X187921112Y-101327673D01*
X187896342Y-101332600D01*
X187718858Y-101332600D01*
X187694088Y-101327673D01*
X187544788Y-101297976D01*
X187380816Y-101230056D01*
X187233246Y-101131453D01*
X187107747Y-101005954D01*
X187009144Y-100858384D01*
X186941224Y-100694412D01*
X186906600Y-100520341D01*
X186906600Y-100342859D01*
X186941224Y-100168788D01*
X187009144Y-100004816D01*
X187107747Y-99857246D01*
X187233246Y-99731747D01*
X187380816Y-99633144D01*
X187544788Y-99565224D01*
X187694088Y-99535527D01*
X187718858Y-99530600D01*
X187896342Y-99530600D01*
X187921112Y-99535527D01*
G37*
G36*
X185381112Y-99535527D02*
G01*
X185530412Y-99565224D01*
X185694384Y-99633144D01*
X185841954Y-99731747D01*
X185967453Y-99857246D01*
X186066056Y-100004816D01*
X186133976Y-100168788D01*
X186168600Y-100342859D01*
X186168600Y-100520341D01*
X186133976Y-100694412D01*
X186066056Y-100858384D01*
X185967453Y-101005954D01*
X185841954Y-101131453D01*
X185694384Y-101230056D01*
X185530412Y-101297976D01*
X185381112Y-101327673D01*
X185356342Y-101332600D01*
X185178858Y-101332600D01*
X185154088Y-101327673D01*
X185004788Y-101297976D01*
X184840816Y-101230056D01*
X184693246Y-101131453D01*
X184567747Y-101005954D01*
X184469144Y-100858384D01*
X184401224Y-100694412D01*
X184366600Y-100520341D01*
X184366600Y-100342859D01*
X184401224Y-100168788D01*
X184469144Y-100004816D01*
X184567747Y-99857246D01*
X184693246Y-99731747D01*
X184840816Y-99633144D01*
X185004788Y-99565224D01*
X185154088Y-99535527D01*
X185178858Y-99530600D01*
X185356342Y-99530600D01*
X185381112Y-99535527D01*
G37*
G36*
X187921112Y-96995527D02*
G01*
X188070412Y-97025224D01*
X188234384Y-97093144D01*
X188381954Y-97191747D01*
X188507453Y-97317246D01*
X188606056Y-97464816D01*
X188673976Y-97628788D01*
X188708600Y-97802859D01*
X188708600Y-97980341D01*
X188673976Y-98154412D01*
X188606056Y-98318384D01*
X188507453Y-98465954D01*
X188381954Y-98591453D01*
X188234384Y-98690056D01*
X188070412Y-98757976D01*
X187921112Y-98787673D01*
X187896342Y-98792600D01*
X187718858Y-98792600D01*
X187694088Y-98787673D01*
X187544788Y-98757976D01*
X187380816Y-98690056D01*
X187233246Y-98591453D01*
X187107747Y-98465954D01*
X187009144Y-98318384D01*
X186941224Y-98154412D01*
X186906600Y-97980341D01*
X186906600Y-97802859D01*
X186941224Y-97628788D01*
X187009144Y-97464816D01*
X187107747Y-97317246D01*
X187233246Y-97191747D01*
X187380816Y-97093144D01*
X187544788Y-97025224D01*
X187694088Y-96995527D01*
X187718858Y-96990600D01*
X187896342Y-96990600D01*
X187921112Y-96995527D01*
G37*
G36*
X185381112Y-96995527D02*
G01*
X185530412Y-97025224D01*
X185694384Y-97093144D01*
X185841954Y-97191747D01*
X185967453Y-97317246D01*
X186066056Y-97464816D01*
X186133976Y-97628788D01*
X186168600Y-97802859D01*
X186168600Y-97980341D01*
X186133976Y-98154412D01*
X186066056Y-98318384D01*
X185967453Y-98465954D01*
X185841954Y-98591453D01*
X185694384Y-98690056D01*
X185530412Y-98757976D01*
X185381112Y-98787673D01*
X185356342Y-98792600D01*
X185178858Y-98792600D01*
X185154088Y-98787673D01*
X185004788Y-98757976D01*
X184840816Y-98690056D01*
X184693246Y-98591453D01*
X184567747Y-98465954D01*
X184469144Y-98318384D01*
X184401224Y-98154412D01*
X184366600Y-97980341D01*
X184366600Y-97802859D01*
X184401224Y-97628788D01*
X184469144Y-97464816D01*
X184567747Y-97317246D01*
X184693246Y-97191747D01*
X184840816Y-97093144D01*
X185004788Y-97025224D01*
X185154088Y-96995527D01*
X185178858Y-96990600D01*
X185356342Y-96990600D01*
X185381112Y-96995527D01*
G37*
G36*
X165100200Y-97536200D02*
G01*
X163474200Y-97536200D01*
X163474200Y-95910200D01*
X165100200Y-95910200D01*
X165100200Y-97536200D01*
G37*
G36*
X159444342Y-95941442D02*
G01*
X159592301Y-96002729D01*
X159725455Y-96091699D01*
X159838701Y-96204945D01*
X159927671Y-96338099D01*
X159988958Y-96486058D01*
X160020200Y-96643125D01*
X160020200Y-96803275D01*
X159988958Y-96960342D01*
X159927671Y-97108301D01*
X159838701Y-97241455D01*
X159725455Y-97354701D01*
X159592301Y-97443671D01*
X159444342Y-97504958D01*
X159287275Y-97536200D01*
X159127125Y-97536200D01*
X158970058Y-97504958D01*
X158822099Y-97443671D01*
X158688945Y-97354701D01*
X158575699Y-97241455D01*
X158486729Y-97108301D01*
X158425442Y-96960342D01*
X158394200Y-96803275D01*
X158394200Y-96643125D01*
X158425442Y-96486058D01*
X158486729Y-96338099D01*
X158575699Y-96204945D01*
X158688945Y-96091699D01*
X158822099Y-96002729D01*
X158970058Y-95941442D01*
X159127125Y-95910200D01*
X159287275Y-95910200D01*
X159444342Y-95941442D01*
G37*
G36*
X187921112Y-94455527D02*
G01*
X188070412Y-94485224D01*
X188234384Y-94553144D01*
X188381954Y-94651747D01*
X188507453Y-94777246D01*
X188606056Y-94924816D01*
X188673976Y-95088788D01*
X188708600Y-95262859D01*
X188708600Y-95440341D01*
X188673976Y-95614412D01*
X188606056Y-95778384D01*
X188507453Y-95925954D01*
X188381954Y-96051453D01*
X188234384Y-96150056D01*
X188070412Y-96217976D01*
X187921112Y-96247673D01*
X187896342Y-96252600D01*
X187718858Y-96252600D01*
X187694088Y-96247673D01*
X187544788Y-96217976D01*
X187380816Y-96150056D01*
X187233246Y-96051453D01*
X187107747Y-95925954D01*
X187009144Y-95778384D01*
X186941224Y-95614412D01*
X186906600Y-95440341D01*
X186906600Y-95262859D01*
X186941224Y-95088788D01*
X187009144Y-94924816D01*
X187107747Y-94777246D01*
X187233246Y-94651747D01*
X187380816Y-94553144D01*
X187544788Y-94485224D01*
X187694088Y-94455527D01*
X187718858Y-94450600D01*
X187896342Y-94450600D01*
X187921112Y-94455527D01*
G37*
G36*
X185381112Y-94455527D02*
G01*
X185530412Y-94485224D01*
X185694384Y-94553144D01*
X185841954Y-94651747D01*
X185967453Y-94777246D01*
X186066056Y-94924816D01*
X186133976Y-95088788D01*
X186168600Y-95262859D01*
X186168600Y-95440341D01*
X186133976Y-95614412D01*
X186066056Y-95778384D01*
X185967453Y-95925954D01*
X185841954Y-96051453D01*
X185694384Y-96150056D01*
X185530412Y-96217976D01*
X185381112Y-96247673D01*
X185356342Y-96252600D01*
X185178858Y-96252600D01*
X185154088Y-96247673D01*
X185004788Y-96217976D01*
X184840816Y-96150056D01*
X184693246Y-96051453D01*
X184567747Y-95925954D01*
X184469144Y-95778384D01*
X184401224Y-95614412D01*
X184366600Y-95440341D01*
X184366600Y-95262859D01*
X184401224Y-95088788D01*
X184469144Y-94924816D01*
X184567747Y-94777246D01*
X184693246Y-94651747D01*
X184840816Y-94553144D01*
X185004788Y-94485224D01*
X185154088Y-94455527D01*
X185178858Y-94450600D01*
X185356342Y-94450600D01*
X185381112Y-94455527D01*
G37*
G36*
X196666456Y-87062698D02*
G01*
X196772779Y-87083847D01*
X197073242Y-87208303D01*
X197343651Y-87388985D01*
X197573615Y-87618949D01*
X197573616Y-87618951D01*
X197754298Y-87889360D01*
X197878753Y-88189822D01*
X197942200Y-88508789D01*
X197942200Y-88834011D01*
X197899902Y-89046656D01*
X197878753Y-89152979D01*
X197754297Y-89453442D01*
X197573615Y-89723851D01*
X197343651Y-89953815D01*
X197073242Y-90134497D01*
X196772779Y-90258953D01*
X196666456Y-90280102D01*
X196453811Y-90322400D01*
X196128589Y-90322400D01*
X195915944Y-90280102D01*
X195809621Y-90258953D01*
X195509158Y-90134497D01*
X195238749Y-89953815D01*
X195008785Y-89723851D01*
X194828103Y-89453442D01*
X194703647Y-89152979D01*
X194682498Y-89046656D01*
X194640200Y-88834011D01*
X194640200Y-88508789D01*
X194703647Y-88189822D01*
X194828102Y-87889360D01*
X195008784Y-87618951D01*
X195008785Y-87618949D01*
X195238749Y-87388985D01*
X195509158Y-87208303D01*
X195809621Y-87083847D01*
X195915944Y-87062698D01*
X196128589Y-87020400D01*
X196453811Y-87020400D01*
X196666456Y-87062698D01*
G37*
G36*
X103829456Y-86834098D02*
G01*
X103935779Y-86855247D01*
X104236242Y-86979703D01*
X104506651Y-87160385D01*
X104736615Y-87390349D01*
X104736616Y-87390351D01*
X104917298Y-87660760D01*
X105041753Y-87961222D01*
X105087225Y-88189821D01*
X105105200Y-88280191D01*
X105105200Y-88605409D01*
X105041753Y-88924379D01*
X104917297Y-89224842D01*
X104736615Y-89495251D01*
X104506651Y-89725215D01*
X104236242Y-89905897D01*
X103935779Y-90030353D01*
X103829456Y-90051502D01*
X103616811Y-90093800D01*
X103291589Y-90093800D01*
X103078944Y-90051502D01*
X102972621Y-90030353D01*
X102672158Y-89905897D01*
X102401749Y-89725215D01*
X102171785Y-89495251D01*
X101991103Y-89224842D01*
X101866647Y-88924379D01*
X101803200Y-88605409D01*
X101803200Y-88280191D01*
X101821176Y-88189821D01*
X101866647Y-87961222D01*
X101991102Y-87660760D01*
X102171784Y-87390351D01*
X102171785Y-87390349D01*
X102401749Y-87160385D01*
X102672158Y-86979703D01*
X102972621Y-86855247D01*
X103078944Y-86834098D01*
X103291589Y-86791800D01*
X103616811Y-86791800D01*
X103829456Y-86834098D01*
G37*
M02*
