G04 #@! TF.GenerationSoftware,KiCad,Pcbnew,(5.1.5)-3*
G04 #@! TF.CreationDate,2020-07-03T21:50:41-07:00*
G04 #@! TF.ProjectId,pic18f_DB_Ethernet,70696331-3866-45f4-9442-5f4574686572,rev?*
G04 #@! TF.SameCoordinates,Original*
G04 #@! TF.FileFunction,Soldermask,Top*
G04 #@! TF.FilePolarity,Negative*
%FSLAX46Y46*%
G04 Gerber Fmt 4.6, Leading zero omitted, Abs format (unit mm)*
G04 Created by KiCad (PCBNEW (5.1.5)-3) date 2020-07-03 21:50:41*
%MOMM*%
%LPD*%
G04 APERTURE LIST*
%ADD10C,0.100000*%
G04 APERTURE END LIST*
D10*
G36*
X134377912Y-144442727D02*
G01*
X134527212Y-144472424D01*
X134691184Y-144540344D01*
X134838754Y-144638947D01*
X134964253Y-144764446D01*
X135062856Y-144912016D01*
X135130776Y-145075988D01*
X135165400Y-145250059D01*
X135165400Y-145427541D01*
X135130776Y-145601612D01*
X135062856Y-145765584D01*
X134964253Y-145913154D01*
X134838754Y-146038653D01*
X134691184Y-146137256D01*
X134527212Y-146205176D01*
X134377912Y-146234873D01*
X134353142Y-146239800D01*
X134175658Y-146239800D01*
X134150888Y-146234873D01*
X134001588Y-146205176D01*
X133837616Y-146137256D01*
X133690046Y-146038653D01*
X133564547Y-145913154D01*
X133465944Y-145765584D01*
X133398024Y-145601612D01*
X133363400Y-145427541D01*
X133363400Y-145250059D01*
X133398024Y-145075988D01*
X133465944Y-144912016D01*
X133564547Y-144764446D01*
X133690046Y-144638947D01*
X133837616Y-144540344D01*
X134001588Y-144472424D01*
X134150888Y-144442727D01*
X134175658Y-144437800D01*
X134353142Y-144437800D01*
X134377912Y-144442727D01*
G37*
G36*
X144537912Y-144442727D02*
G01*
X144687212Y-144472424D01*
X144851184Y-144540344D01*
X144998754Y-144638947D01*
X145124253Y-144764446D01*
X145222856Y-144912016D01*
X145290776Y-145075988D01*
X145325400Y-145250059D01*
X145325400Y-145427541D01*
X145290776Y-145601612D01*
X145222856Y-145765584D01*
X145124253Y-145913154D01*
X144998754Y-146038653D01*
X144851184Y-146137256D01*
X144687212Y-146205176D01*
X144537912Y-146234873D01*
X144513142Y-146239800D01*
X144335658Y-146239800D01*
X144310888Y-146234873D01*
X144161588Y-146205176D01*
X143997616Y-146137256D01*
X143850046Y-146038653D01*
X143724547Y-145913154D01*
X143625944Y-145765584D01*
X143558024Y-145601612D01*
X143523400Y-145427541D01*
X143523400Y-145250059D01*
X143558024Y-145075988D01*
X143625944Y-144912016D01*
X143724547Y-144764446D01*
X143850046Y-144638947D01*
X143997616Y-144540344D01*
X144161588Y-144472424D01*
X144310888Y-144442727D01*
X144335658Y-144437800D01*
X144513142Y-144437800D01*
X144537912Y-144442727D01*
G37*
G36*
X147865400Y-146239800D02*
G01*
X146063400Y-146239800D01*
X146063400Y-144437800D01*
X147865400Y-144437800D01*
X147865400Y-146239800D01*
G37*
G36*
X141997912Y-144442727D02*
G01*
X142147212Y-144472424D01*
X142311184Y-144540344D01*
X142458754Y-144638947D01*
X142584253Y-144764446D01*
X142682856Y-144912016D01*
X142750776Y-145075988D01*
X142785400Y-145250059D01*
X142785400Y-145427541D01*
X142750776Y-145601612D01*
X142682856Y-145765584D01*
X142584253Y-145913154D01*
X142458754Y-146038653D01*
X142311184Y-146137256D01*
X142147212Y-146205176D01*
X141997912Y-146234873D01*
X141973142Y-146239800D01*
X141795658Y-146239800D01*
X141770888Y-146234873D01*
X141621588Y-146205176D01*
X141457616Y-146137256D01*
X141310046Y-146038653D01*
X141184547Y-145913154D01*
X141085944Y-145765584D01*
X141018024Y-145601612D01*
X140983400Y-145427541D01*
X140983400Y-145250059D01*
X141018024Y-145075988D01*
X141085944Y-144912016D01*
X141184547Y-144764446D01*
X141310046Y-144638947D01*
X141457616Y-144540344D01*
X141621588Y-144472424D01*
X141770888Y-144442727D01*
X141795658Y-144437800D01*
X141973142Y-144437800D01*
X141997912Y-144442727D01*
G37*
G36*
X136917912Y-144442727D02*
G01*
X137067212Y-144472424D01*
X137231184Y-144540344D01*
X137378754Y-144638947D01*
X137504253Y-144764446D01*
X137602856Y-144912016D01*
X137670776Y-145075988D01*
X137705400Y-145250059D01*
X137705400Y-145427541D01*
X137670776Y-145601612D01*
X137602856Y-145765584D01*
X137504253Y-145913154D01*
X137378754Y-146038653D01*
X137231184Y-146137256D01*
X137067212Y-146205176D01*
X136917912Y-146234873D01*
X136893142Y-146239800D01*
X136715658Y-146239800D01*
X136690888Y-146234873D01*
X136541588Y-146205176D01*
X136377616Y-146137256D01*
X136230046Y-146038653D01*
X136104547Y-145913154D01*
X136005944Y-145765584D01*
X135938024Y-145601612D01*
X135903400Y-145427541D01*
X135903400Y-145250059D01*
X135938024Y-145075988D01*
X136005944Y-144912016D01*
X136104547Y-144764446D01*
X136230046Y-144638947D01*
X136377616Y-144540344D01*
X136541588Y-144472424D01*
X136690888Y-144442727D01*
X136715658Y-144437800D01*
X136893142Y-144437800D01*
X136917912Y-144442727D01*
G37*
G36*
X139457912Y-144442727D02*
G01*
X139607212Y-144472424D01*
X139771184Y-144540344D01*
X139918754Y-144638947D01*
X140044253Y-144764446D01*
X140142856Y-144912016D01*
X140210776Y-145075988D01*
X140245400Y-145250059D01*
X140245400Y-145427541D01*
X140210776Y-145601612D01*
X140142856Y-145765584D01*
X140044253Y-145913154D01*
X139918754Y-146038653D01*
X139771184Y-146137256D01*
X139607212Y-146205176D01*
X139457912Y-146234873D01*
X139433142Y-146239800D01*
X139255658Y-146239800D01*
X139230888Y-146234873D01*
X139081588Y-146205176D01*
X138917616Y-146137256D01*
X138770046Y-146038653D01*
X138644547Y-145913154D01*
X138545944Y-145765584D01*
X138478024Y-145601612D01*
X138443400Y-145427541D01*
X138443400Y-145250059D01*
X138478024Y-145075988D01*
X138545944Y-144912016D01*
X138644547Y-144764446D01*
X138770046Y-144638947D01*
X138917616Y-144540344D01*
X139081588Y-144472424D01*
X139230888Y-144442727D01*
X139255658Y-144437800D01*
X139433142Y-144437800D01*
X139457912Y-144442727D01*
G37*
G36*
X196818856Y-142155298D02*
G01*
X196925179Y-142176447D01*
X197225642Y-142300903D01*
X197496051Y-142481585D01*
X197726015Y-142711549D01*
X197906697Y-142981958D01*
X197906698Y-142981960D01*
X198031153Y-143282422D01*
X198084496Y-143550591D01*
X198094600Y-143601391D01*
X198094600Y-143926609D01*
X198031153Y-144245579D01*
X197906697Y-144546042D01*
X197726015Y-144816451D01*
X197496051Y-145046415D01*
X197225642Y-145227097D01*
X196925179Y-145351553D01*
X196861598Y-145364200D01*
X196606211Y-145415000D01*
X196280989Y-145415000D01*
X196025602Y-145364200D01*
X195962021Y-145351553D01*
X195661558Y-145227097D01*
X195391149Y-145046415D01*
X195161185Y-144816451D01*
X194980503Y-144546042D01*
X194856047Y-144245579D01*
X194792600Y-143926609D01*
X194792600Y-143601391D01*
X194802705Y-143550591D01*
X194856047Y-143282422D01*
X194980502Y-142981960D01*
X194980503Y-142981958D01*
X195161185Y-142711549D01*
X195391149Y-142481585D01*
X195661558Y-142300903D01*
X195962021Y-142176447D01*
X196068344Y-142155298D01*
X196280989Y-142113000D01*
X196606211Y-142113000D01*
X196818856Y-142155298D01*
G37*
G36*
X103956456Y-142104498D02*
G01*
X104062779Y-142125647D01*
X104363242Y-142250103D01*
X104633651Y-142430785D01*
X104863615Y-142660749D01*
X104897560Y-142711551D01*
X105044298Y-142931160D01*
X105168753Y-143231622D01*
X105232200Y-143550589D01*
X105232200Y-143875811D01*
X105222095Y-143926611D01*
X105168753Y-144194779D01*
X105044297Y-144495242D01*
X104863615Y-144765651D01*
X104633651Y-144995615D01*
X104363242Y-145176297D01*
X104062779Y-145300753D01*
X103956456Y-145321902D01*
X103743811Y-145364200D01*
X103418589Y-145364200D01*
X103205944Y-145321902D01*
X103099621Y-145300753D01*
X102799158Y-145176297D01*
X102528749Y-144995615D01*
X102298785Y-144765651D01*
X102118103Y-144495242D01*
X101993647Y-144194779D01*
X101940305Y-143926611D01*
X101930200Y-143875811D01*
X101930200Y-143550589D01*
X101993647Y-143231622D01*
X102118102Y-142931160D01*
X102264840Y-142711551D01*
X102298785Y-142660749D01*
X102528749Y-142430785D01*
X102799158Y-142250103D01*
X103099621Y-142125647D01*
X103205944Y-142104498D01*
X103418589Y-142062200D01*
X103743811Y-142062200D01*
X103956456Y-142104498D01*
G37*
G36*
X185628800Y-144527400D02*
G01*
X183026800Y-144527400D01*
X183026800Y-143225400D01*
X185628800Y-143225400D01*
X185628800Y-144527400D01*
G37*
G36*
X191128800Y-144527400D02*
G01*
X188526800Y-144527400D01*
X188526800Y-143225400D01*
X191128800Y-143225400D01*
X191128800Y-144527400D01*
G37*
G36*
X191128800Y-142027400D02*
G01*
X188526800Y-142027400D01*
X188526800Y-140725400D01*
X191128800Y-140725400D01*
X191128800Y-142027400D01*
G37*
G36*
X185628800Y-142027400D02*
G01*
X183026800Y-142027400D01*
X183026800Y-140725400D01*
X185628800Y-140725400D01*
X185628800Y-142027400D01*
G37*
G36*
X144803991Y-139723585D02*
G01*
X144837969Y-139733893D01*
X144869290Y-139750634D01*
X144896739Y-139773161D01*
X144919266Y-139800610D01*
X144936007Y-139831931D01*
X144946315Y-139865909D01*
X144950400Y-139907390D01*
X144950400Y-140508610D01*
X144946315Y-140550091D01*
X144936007Y-140584069D01*
X144919266Y-140615390D01*
X144896739Y-140642839D01*
X144869290Y-140665366D01*
X144837969Y-140682107D01*
X144803991Y-140692415D01*
X144762510Y-140696500D01*
X144086290Y-140696500D01*
X144044809Y-140692415D01*
X144010831Y-140682107D01*
X143979510Y-140665366D01*
X143952061Y-140642839D01*
X143929534Y-140615390D01*
X143912793Y-140584069D01*
X143902485Y-140550091D01*
X143898400Y-140508610D01*
X143898400Y-139907390D01*
X143902485Y-139865909D01*
X143912793Y-139831931D01*
X143929534Y-139800610D01*
X143952061Y-139773161D01*
X143979510Y-139750634D01*
X144010831Y-139733893D01*
X144044809Y-139723585D01*
X144086290Y-139719500D01*
X144762510Y-139719500D01*
X144803991Y-139723585D01*
G37*
G36*
X127187500Y-140188300D02*
G01*
X126685500Y-140188300D01*
X126685500Y-139186300D01*
X127187500Y-139186300D01*
X127187500Y-140188300D01*
G37*
G36*
X124787500Y-140188300D02*
G01*
X124285500Y-140188300D01*
X124285500Y-139186300D01*
X124787500Y-139186300D01*
X124787500Y-140188300D01*
G37*
G36*
X125587500Y-140188300D02*
G01*
X125085500Y-140188300D01*
X125085500Y-139186300D01*
X125587500Y-139186300D01*
X125587500Y-140188300D01*
G37*
G36*
X126387500Y-140188300D02*
G01*
X125885500Y-140188300D01*
X125885500Y-139186300D01*
X126387500Y-139186300D01*
X126387500Y-140188300D01*
G37*
G36*
X185628800Y-139527400D02*
G01*
X183026800Y-139527400D01*
X183026800Y-138225400D01*
X185628800Y-138225400D01*
X185628800Y-139527400D01*
G37*
G36*
X191128800Y-139527400D02*
G01*
X188526800Y-139527400D01*
X188526800Y-138225400D01*
X191128800Y-138225400D01*
X191128800Y-139527400D01*
G37*
G36*
X144803991Y-138148585D02*
G01*
X144837969Y-138158893D01*
X144869290Y-138175634D01*
X144896739Y-138198161D01*
X144919266Y-138225610D01*
X144936007Y-138256931D01*
X144946315Y-138290909D01*
X144950400Y-138332390D01*
X144950400Y-138933610D01*
X144946315Y-138975091D01*
X144936007Y-139009069D01*
X144919266Y-139040390D01*
X144896739Y-139067839D01*
X144869290Y-139090366D01*
X144837969Y-139107107D01*
X144803991Y-139117415D01*
X144762510Y-139121500D01*
X144086290Y-139121500D01*
X144044809Y-139117415D01*
X144010831Y-139107107D01*
X143979510Y-139090366D01*
X143952061Y-139067839D01*
X143929534Y-139040390D01*
X143912793Y-139009069D01*
X143902485Y-138975091D01*
X143898400Y-138933610D01*
X143898400Y-138332390D01*
X143902485Y-138290909D01*
X143912793Y-138256931D01*
X143929534Y-138225610D01*
X143952061Y-138198161D01*
X143979510Y-138175634D01*
X144010831Y-138158893D01*
X144044809Y-138148585D01*
X144086290Y-138144500D01*
X144762510Y-138144500D01*
X144803991Y-138148585D01*
G37*
G36*
X126387500Y-138488300D02*
G01*
X125885500Y-138488300D01*
X125885500Y-137486300D01*
X126387500Y-137486300D01*
X126387500Y-138488300D01*
G37*
G36*
X125587500Y-138488300D02*
G01*
X125085500Y-138488300D01*
X125085500Y-137486300D01*
X125587500Y-137486300D01*
X125587500Y-138488300D01*
G37*
G36*
X124787500Y-138488300D02*
G01*
X124285500Y-138488300D01*
X124285500Y-137486300D01*
X124787500Y-137486300D01*
X124787500Y-138488300D01*
G37*
G36*
X127187500Y-138488300D02*
G01*
X126685500Y-138488300D01*
X126685500Y-137486300D01*
X127187500Y-137486300D01*
X127187500Y-138488300D01*
G37*
G36*
X164869991Y-134796085D02*
G01*
X164903969Y-134806393D01*
X164935290Y-134823134D01*
X164962739Y-134845661D01*
X164985266Y-134873110D01*
X165002007Y-134904431D01*
X165012315Y-134938409D01*
X165016400Y-134979890D01*
X165016400Y-135581110D01*
X165012315Y-135622591D01*
X165002007Y-135656569D01*
X164985266Y-135687890D01*
X164962739Y-135715339D01*
X164935290Y-135737866D01*
X164903969Y-135754607D01*
X164869991Y-135764915D01*
X164828510Y-135769000D01*
X164152290Y-135769000D01*
X164110809Y-135764915D01*
X164076831Y-135754607D01*
X164045510Y-135737866D01*
X164018061Y-135715339D01*
X163995534Y-135687890D01*
X163978793Y-135656569D01*
X163968485Y-135622591D01*
X163964400Y-135581110D01*
X163964400Y-134979890D01*
X163968485Y-134938409D01*
X163978793Y-134904431D01*
X163995534Y-134873110D01*
X164018061Y-134845661D01*
X164045510Y-134823134D01*
X164076831Y-134806393D01*
X164110809Y-134796085D01*
X164152290Y-134792000D01*
X164828510Y-134792000D01*
X164869991Y-134796085D01*
G37*
G36*
X155497391Y-134770685D02*
G01*
X155531369Y-134780993D01*
X155562690Y-134797734D01*
X155590139Y-134820261D01*
X155612666Y-134847710D01*
X155629407Y-134879031D01*
X155639715Y-134913009D01*
X155643800Y-134954490D01*
X155643800Y-135555710D01*
X155639715Y-135597191D01*
X155629407Y-135631169D01*
X155612666Y-135662490D01*
X155590139Y-135689939D01*
X155562690Y-135712466D01*
X155531369Y-135729207D01*
X155497391Y-135739515D01*
X155455910Y-135743600D01*
X154779690Y-135743600D01*
X154738209Y-135739515D01*
X154704231Y-135729207D01*
X154672910Y-135712466D01*
X154645461Y-135689939D01*
X154622934Y-135662490D01*
X154606193Y-135631169D01*
X154595885Y-135597191D01*
X154591800Y-135555710D01*
X154591800Y-134954490D01*
X154595885Y-134913009D01*
X154606193Y-134879031D01*
X154622934Y-134847710D01*
X154645461Y-134820261D01*
X154672910Y-134797734D01*
X154704231Y-134780993D01*
X154738209Y-134770685D01*
X154779690Y-134766600D01*
X155455910Y-134766600D01*
X155497391Y-134770685D01*
G37*
G36*
X178255791Y-134745385D02*
G01*
X178289769Y-134755693D01*
X178321090Y-134772434D01*
X178348539Y-134794961D01*
X178371066Y-134822410D01*
X178387807Y-134853731D01*
X178398115Y-134887709D01*
X178402200Y-134929190D01*
X178402200Y-135530410D01*
X178398115Y-135571891D01*
X178387807Y-135605869D01*
X178371066Y-135637190D01*
X178348539Y-135664639D01*
X178321090Y-135687166D01*
X178289769Y-135703907D01*
X178255791Y-135714215D01*
X178214310Y-135718300D01*
X177538090Y-135718300D01*
X177496609Y-135714215D01*
X177462631Y-135703907D01*
X177431310Y-135687166D01*
X177403861Y-135664639D01*
X177381334Y-135637190D01*
X177364593Y-135605869D01*
X177354285Y-135571891D01*
X177350200Y-135530410D01*
X177350200Y-134929190D01*
X177354285Y-134887709D01*
X177364593Y-134853731D01*
X177381334Y-134822410D01*
X177403861Y-134794961D01*
X177431310Y-134772434D01*
X177462631Y-134755693D01*
X177496609Y-134745385D01*
X177538090Y-134741300D01*
X178214310Y-134741300D01*
X178255791Y-134745385D01*
G37*
G36*
X169238791Y-134745285D02*
G01*
X169272769Y-134755593D01*
X169304090Y-134772334D01*
X169331539Y-134794861D01*
X169354066Y-134822310D01*
X169370807Y-134853631D01*
X169381115Y-134887609D01*
X169385200Y-134929090D01*
X169385200Y-135530310D01*
X169381115Y-135571791D01*
X169370807Y-135605769D01*
X169354066Y-135637090D01*
X169331539Y-135664539D01*
X169304090Y-135687066D01*
X169272769Y-135703807D01*
X169238791Y-135714115D01*
X169197310Y-135718200D01*
X168521090Y-135718200D01*
X168479609Y-135714115D01*
X168445631Y-135703807D01*
X168414310Y-135687066D01*
X168386861Y-135664539D01*
X168364334Y-135637090D01*
X168347593Y-135605769D01*
X168337285Y-135571791D01*
X168333200Y-135530310D01*
X168333200Y-134929090D01*
X168337285Y-134887609D01*
X168347593Y-134853631D01*
X168364334Y-134822310D01*
X168386861Y-134794861D01*
X168414310Y-134772334D01*
X168445631Y-134755593D01*
X168479609Y-134745285D01*
X168521090Y-134741200D01*
X169197310Y-134741200D01*
X169238791Y-134745285D01*
G37*
G36*
X160272591Y-134745185D02*
G01*
X160306569Y-134755493D01*
X160337890Y-134772234D01*
X160365339Y-134794761D01*
X160387866Y-134822210D01*
X160404607Y-134853531D01*
X160414915Y-134887509D01*
X160419000Y-134928990D01*
X160419000Y-135530210D01*
X160414915Y-135571691D01*
X160404607Y-135605669D01*
X160387866Y-135636990D01*
X160365339Y-135664439D01*
X160337890Y-135686966D01*
X160306569Y-135703707D01*
X160272591Y-135714015D01*
X160231110Y-135718100D01*
X159554890Y-135718100D01*
X159513409Y-135714015D01*
X159479431Y-135703707D01*
X159448110Y-135686966D01*
X159420661Y-135664439D01*
X159398134Y-135636990D01*
X159381393Y-135605669D01*
X159371085Y-135571691D01*
X159367000Y-135530210D01*
X159367000Y-134928990D01*
X159371085Y-134887509D01*
X159381393Y-134853531D01*
X159398134Y-134822210D01*
X159420661Y-134794761D01*
X159448110Y-134772234D01*
X159479431Y-134755493D01*
X159513409Y-134745185D01*
X159554890Y-134741100D01*
X160231110Y-134741100D01*
X160272591Y-134745185D01*
G37*
G36*
X173734591Y-134745185D02*
G01*
X173768569Y-134755493D01*
X173799890Y-134772234D01*
X173827339Y-134794761D01*
X173849866Y-134822210D01*
X173866607Y-134853531D01*
X173876915Y-134887509D01*
X173881000Y-134928990D01*
X173881000Y-135530210D01*
X173876915Y-135571691D01*
X173866607Y-135605669D01*
X173849866Y-135636990D01*
X173827339Y-135664439D01*
X173799890Y-135686966D01*
X173768569Y-135703707D01*
X173734591Y-135714015D01*
X173693110Y-135718100D01*
X173016890Y-135718100D01*
X172975409Y-135714015D01*
X172941431Y-135703707D01*
X172910110Y-135686966D01*
X172882661Y-135664439D01*
X172860134Y-135636990D01*
X172843393Y-135605669D01*
X172833085Y-135571691D01*
X172829000Y-135530210D01*
X172829000Y-134928990D01*
X172833085Y-134887509D01*
X172843393Y-134853531D01*
X172860134Y-134822210D01*
X172882661Y-134794761D01*
X172910110Y-134772234D01*
X172941431Y-134755493D01*
X172975409Y-134745185D01*
X173016890Y-134741100D01*
X173693110Y-134741100D01*
X173734591Y-134745185D01*
G37*
G36*
X182446791Y-134719885D02*
G01*
X182480769Y-134730193D01*
X182512090Y-134746934D01*
X182539539Y-134769461D01*
X182562066Y-134796910D01*
X182578807Y-134828231D01*
X182589115Y-134862209D01*
X182593200Y-134903690D01*
X182593200Y-135504910D01*
X182589115Y-135546391D01*
X182578807Y-135580369D01*
X182562066Y-135611690D01*
X182539539Y-135639139D01*
X182512090Y-135661666D01*
X182480769Y-135678407D01*
X182446791Y-135688715D01*
X182405310Y-135692800D01*
X181729090Y-135692800D01*
X181687609Y-135688715D01*
X181653631Y-135678407D01*
X181622310Y-135661666D01*
X181594861Y-135639139D01*
X181572334Y-135611690D01*
X181555593Y-135580369D01*
X181545285Y-135546391D01*
X181541200Y-135504910D01*
X181541200Y-134903690D01*
X181545285Y-134862209D01*
X181555593Y-134828231D01*
X181572334Y-134796910D01*
X181594861Y-134769461D01*
X181622310Y-134746934D01*
X181653631Y-134730193D01*
X181687609Y-134719885D01*
X181729090Y-134715800D01*
X182405310Y-134715800D01*
X182446791Y-134719885D01*
G37*
G36*
X186485391Y-134567385D02*
G01*
X186519369Y-134577693D01*
X186550690Y-134594434D01*
X186578139Y-134616961D01*
X186600666Y-134644410D01*
X186617407Y-134675731D01*
X186627715Y-134709709D01*
X186631800Y-134751190D01*
X186631800Y-135352410D01*
X186627715Y-135393891D01*
X186617407Y-135427869D01*
X186600666Y-135459190D01*
X186578139Y-135486639D01*
X186550690Y-135509166D01*
X186519369Y-135525907D01*
X186485391Y-135536215D01*
X186443910Y-135540300D01*
X185767690Y-135540300D01*
X185726209Y-135536215D01*
X185692231Y-135525907D01*
X185660910Y-135509166D01*
X185633461Y-135486639D01*
X185610934Y-135459190D01*
X185594193Y-135427869D01*
X185583885Y-135393891D01*
X185579800Y-135352410D01*
X185579800Y-134751190D01*
X185583885Y-134709709D01*
X185594193Y-134675731D01*
X185610934Y-134644410D01*
X185633461Y-134616961D01*
X185660910Y-134594434D01*
X185692231Y-134577693D01*
X185726209Y-134567385D01*
X185767690Y-134563300D01*
X186443910Y-134563300D01*
X186485391Y-134567385D01*
G37*
G36*
X194867391Y-134465785D02*
G01*
X194901369Y-134476093D01*
X194932690Y-134492834D01*
X194960139Y-134515361D01*
X194982666Y-134542810D01*
X194999407Y-134574131D01*
X195009715Y-134608109D01*
X195013800Y-134649590D01*
X195013800Y-135250810D01*
X195009715Y-135292291D01*
X194999407Y-135326269D01*
X194982666Y-135357590D01*
X194960139Y-135385039D01*
X194932690Y-135407566D01*
X194901369Y-135424307D01*
X194867391Y-135434615D01*
X194825910Y-135438700D01*
X194149690Y-135438700D01*
X194108209Y-135434615D01*
X194074231Y-135424307D01*
X194042910Y-135407566D01*
X194015461Y-135385039D01*
X193992934Y-135357590D01*
X193976193Y-135326269D01*
X193965885Y-135292291D01*
X193961800Y-135250810D01*
X193961800Y-134649590D01*
X193965885Y-134608109D01*
X193976193Y-134574131D01*
X193992934Y-134542810D01*
X194015461Y-134515361D01*
X194042910Y-134492834D01*
X194074231Y-134476093D01*
X194108209Y-134465785D01*
X194149690Y-134461700D01*
X194825910Y-134461700D01*
X194867391Y-134465785D01*
G37*
G36*
X190574791Y-134414985D02*
G01*
X190608769Y-134425293D01*
X190640090Y-134442034D01*
X190667539Y-134464561D01*
X190690066Y-134492010D01*
X190706807Y-134523331D01*
X190717115Y-134557309D01*
X190721200Y-134598790D01*
X190721200Y-135200010D01*
X190717115Y-135241491D01*
X190706807Y-135275469D01*
X190690066Y-135306790D01*
X190667539Y-135334239D01*
X190640090Y-135356766D01*
X190608769Y-135373507D01*
X190574791Y-135383815D01*
X190533310Y-135387900D01*
X189857090Y-135387900D01*
X189815609Y-135383815D01*
X189781631Y-135373507D01*
X189750310Y-135356766D01*
X189722861Y-135334239D01*
X189700334Y-135306790D01*
X189683593Y-135275469D01*
X189673285Y-135241491D01*
X189669200Y-135200010D01*
X189669200Y-134598790D01*
X189673285Y-134557309D01*
X189683593Y-134523331D01*
X189700334Y-134492010D01*
X189722861Y-134464561D01*
X189750310Y-134442034D01*
X189781631Y-134425293D01*
X189815609Y-134414985D01*
X189857090Y-134410900D01*
X190533310Y-134410900D01*
X190574791Y-134414985D01*
G37*
G36*
X164869991Y-133221085D02*
G01*
X164903969Y-133231393D01*
X164935290Y-133248134D01*
X164962739Y-133270661D01*
X164985266Y-133298110D01*
X165002007Y-133329431D01*
X165012315Y-133363409D01*
X165016400Y-133404890D01*
X165016400Y-134006110D01*
X165012315Y-134047591D01*
X165002007Y-134081569D01*
X164985266Y-134112890D01*
X164962739Y-134140339D01*
X164935290Y-134162866D01*
X164903969Y-134179607D01*
X164869991Y-134189915D01*
X164828510Y-134194000D01*
X164152290Y-134194000D01*
X164110809Y-134189915D01*
X164076831Y-134179607D01*
X164045510Y-134162866D01*
X164018061Y-134140339D01*
X163995534Y-134112890D01*
X163978793Y-134081569D01*
X163968485Y-134047591D01*
X163964400Y-134006110D01*
X163964400Y-133404890D01*
X163968485Y-133363409D01*
X163978793Y-133329431D01*
X163995534Y-133298110D01*
X164018061Y-133270661D01*
X164045510Y-133248134D01*
X164076831Y-133231393D01*
X164110809Y-133221085D01*
X164152290Y-133217000D01*
X164828510Y-133217000D01*
X164869991Y-133221085D01*
G37*
G36*
X155497391Y-133195685D02*
G01*
X155531369Y-133205993D01*
X155562690Y-133222734D01*
X155590139Y-133245261D01*
X155612666Y-133272710D01*
X155629407Y-133304031D01*
X155639715Y-133338009D01*
X155643800Y-133379490D01*
X155643800Y-133980710D01*
X155639715Y-134022191D01*
X155629407Y-134056169D01*
X155612666Y-134087490D01*
X155590139Y-134114939D01*
X155562690Y-134137466D01*
X155531369Y-134154207D01*
X155497391Y-134164515D01*
X155455910Y-134168600D01*
X154779690Y-134168600D01*
X154738209Y-134164515D01*
X154704231Y-134154207D01*
X154672910Y-134137466D01*
X154645461Y-134114939D01*
X154622934Y-134087490D01*
X154606193Y-134056169D01*
X154595885Y-134022191D01*
X154591800Y-133980710D01*
X154591800Y-133379490D01*
X154595885Y-133338009D01*
X154606193Y-133304031D01*
X154622934Y-133272710D01*
X154645461Y-133245261D01*
X154672910Y-133222734D01*
X154704231Y-133205993D01*
X154738209Y-133195685D01*
X154779690Y-133191600D01*
X155455910Y-133191600D01*
X155497391Y-133195685D01*
G37*
G36*
X178255791Y-133170385D02*
G01*
X178289769Y-133180693D01*
X178321090Y-133197434D01*
X178348539Y-133219961D01*
X178371066Y-133247410D01*
X178387807Y-133278731D01*
X178398115Y-133312709D01*
X178402200Y-133354190D01*
X178402200Y-133955410D01*
X178398115Y-133996891D01*
X178387807Y-134030869D01*
X178371066Y-134062190D01*
X178348539Y-134089639D01*
X178321090Y-134112166D01*
X178289769Y-134128907D01*
X178255791Y-134139215D01*
X178214310Y-134143300D01*
X177538090Y-134143300D01*
X177496609Y-134139215D01*
X177462631Y-134128907D01*
X177431310Y-134112166D01*
X177403861Y-134089639D01*
X177381334Y-134062190D01*
X177364593Y-134030869D01*
X177354285Y-133996891D01*
X177350200Y-133955410D01*
X177350200Y-133354190D01*
X177354285Y-133312709D01*
X177364593Y-133278731D01*
X177381334Y-133247410D01*
X177403861Y-133219961D01*
X177431310Y-133197434D01*
X177462631Y-133180693D01*
X177496609Y-133170385D01*
X177538090Y-133166300D01*
X178214310Y-133166300D01*
X178255791Y-133170385D01*
G37*
G36*
X169238791Y-133170285D02*
G01*
X169272769Y-133180593D01*
X169304090Y-133197334D01*
X169331539Y-133219861D01*
X169354066Y-133247310D01*
X169370807Y-133278631D01*
X169381115Y-133312609D01*
X169385200Y-133354090D01*
X169385200Y-133955310D01*
X169381115Y-133996791D01*
X169370807Y-134030769D01*
X169354066Y-134062090D01*
X169331539Y-134089539D01*
X169304090Y-134112066D01*
X169272769Y-134128807D01*
X169238791Y-134139115D01*
X169197310Y-134143200D01*
X168521090Y-134143200D01*
X168479609Y-134139115D01*
X168445631Y-134128807D01*
X168414310Y-134112066D01*
X168386861Y-134089539D01*
X168364334Y-134062090D01*
X168347593Y-134030769D01*
X168337285Y-133996791D01*
X168333200Y-133955310D01*
X168333200Y-133354090D01*
X168337285Y-133312609D01*
X168347593Y-133278631D01*
X168364334Y-133247310D01*
X168386861Y-133219861D01*
X168414310Y-133197334D01*
X168445631Y-133180593D01*
X168479609Y-133170285D01*
X168521090Y-133166200D01*
X169197310Y-133166200D01*
X169238791Y-133170285D01*
G37*
G36*
X173734591Y-133170185D02*
G01*
X173768569Y-133180493D01*
X173799890Y-133197234D01*
X173827339Y-133219761D01*
X173849866Y-133247210D01*
X173866607Y-133278531D01*
X173876915Y-133312509D01*
X173881000Y-133353990D01*
X173881000Y-133955210D01*
X173876915Y-133996691D01*
X173866607Y-134030669D01*
X173849866Y-134061990D01*
X173827339Y-134089439D01*
X173799890Y-134111966D01*
X173768569Y-134128707D01*
X173734591Y-134139015D01*
X173693110Y-134143100D01*
X173016890Y-134143100D01*
X172975409Y-134139015D01*
X172941431Y-134128707D01*
X172910110Y-134111966D01*
X172882661Y-134089439D01*
X172860134Y-134061990D01*
X172843393Y-134030669D01*
X172833085Y-133996691D01*
X172829000Y-133955210D01*
X172829000Y-133353990D01*
X172833085Y-133312509D01*
X172843393Y-133278531D01*
X172860134Y-133247210D01*
X172882661Y-133219761D01*
X172910110Y-133197234D01*
X172941431Y-133180493D01*
X172975409Y-133170185D01*
X173016890Y-133166100D01*
X173693110Y-133166100D01*
X173734591Y-133170185D01*
G37*
G36*
X160272591Y-133170185D02*
G01*
X160306569Y-133180493D01*
X160337890Y-133197234D01*
X160365339Y-133219761D01*
X160387866Y-133247210D01*
X160404607Y-133278531D01*
X160414915Y-133312509D01*
X160419000Y-133353990D01*
X160419000Y-133955210D01*
X160414915Y-133996691D01*
X160404607Y-134030669D01*
X160387866Y-134061990D01*
X160365339Y-134089439D01*
X160337890Y-134111966D01*
X160306569Y-134128707D01*
X160272591Y-134139015D01*
X160231110Y-134143100D01*
X159554890Y-134143100D01*
X159513409Y-134139015D01*
X159479431Y-134128707D01*
X159448110Y-134111966D01*
X159420661Y-134089439D01*
X159398134Y-134061990D01*
X159381393Y-134030669D01*
X159371085Y-133996691D01*
X159367000Y-133955210D01*
X159367000Y-133353990D01*
X159371085Y-133312509D01*
X159381393Y-133278531D01*
X159398134Y-133247210D01*
X159420661Y-133219761D01*
X159448110Y-133197234D01*
X159479431Y-133180493D01*
X159513409Y-133170185D01*
X159554890Y-133166100D01*
X160231110Y-133166100D01*
X160272591Y-133170185D01*
G37*
G36*
X182446791Y-133144885D02*
G01*
X182480769Y-133155193D01*
X182512090Y-133171934D01*
X182539539Y-133194461D01*
X182562066Y-133221910D01*
X182578807Y-133253231D01*
X182589115Y-133287209D01*
X182593200Y-133328690D01*
X182593200Y-133929910D01*
X182589115Y-133971391D01*
X182578807Y-134005369D01*
X182562066Y-134036690D01*
X182539539Y-134064139D01*
X182512090Y-134086666D01*
X182480769Y-134103407D01*
X182446791Y-134113715D01*
X182405310Y-134117800D01*
X181729090Y-134117800D01*
X181687609Y-134113715D01*
X181653631Y-134103407D01*
X181622310Y-134086666D01*
X181594861Y-134064139D01*
X181572334Y-134036690D01*
X181555593Y-134005369D01*
X181545285Y-133971391D01*
X181541200Y-133929910D01*
X181541200Y-133328690D01*
X181545285Y-133287209D01*
X181555593Y-133253231D01*
X181572334Y-133221910D01*
X181594861Y-133194461D01*
X181622310Y-133171934D01*
X181653631Y-133155193D01*
X181687609Y-133144885D01*
X181729090Y-133140800D01*
X182405310Y-133140800D01*
X182446791Y-133144885D01*
G37*
G36*
X186485391Y-132992385D02*
G01*
X186519369Y-133002693D01*
X186550690Y-133019434D01*
X186578139Y-133041961D01*
X186600666Y-133069410D01*
X186617407Y-133100731D01*
X186627715Y-133134709D01*
X186631800Y-133176190D01*
X186631800Y-133777410D01*
X186627715Y-133818891D01*
X186617407Y-133852869D01*
X186600666Y-133884190D01*
X186578139Y-133911639D01*
X186550690Y-133934166D01*
X186519369Y-133950907D01*
X186485391Y-133961215D01*
X186443910Y-133965300D01*
X185767690Y-133965300D01*
X185726209Y-133961215D01*
X185692231Y-133950907D01*
X185660910Y-133934166D01*
X185633461Y-133911639D01*
X185610934Y-133884190D01*
X185594193Y-133852869D01*
X185583885Y-133818891D01*
X185579800Y-133777410D01*
X185579800Y-133176190D01*
X185583885Y-133134709D01*
X185594193Y-133100731D01*
X185610934Y-133069410D01*
X185633461Y-133041961D01*
X185660910Y-133019434D01*
X185692231Y-133002693D01*
X185726209Y-132992385D01*
X185767690Y-132988300D01*
X186443910Y-132988300D01*
X186485391Y-132992385D01*
G37*
G36*
X194867391Y-132890785D02*
G01*
X194901369Y-132901093D01*
X194932690Y-132917834D01*
X194960139Y-132940361D01*
X194982666Y-132967810D01*
X194999407Y-132999131D01*
X195009715Y-133033109D01*
X195013800Y-133074590D01*
X195013800Y-133675810D01*
X195009715Y-133717291D01*
X194999407Y-133751269D01*
X194982666Y-133782590D01*
X194960139Y-133810039D01*
X194932690Y-133832566D01*
X194901369Y-133849307D01*
X194867391Y-133859615D01*
X194825910Y-133863700D01*
X194149690Y-133863700D01*
X194108209Y-133859615D01*
X194074231Y-133849307D01*
X194042910Y-133832566D01*
X194015461Y-133810039D01*
X193992934Y-133782590D01*
X193976193Y-133751269D01*
X193965885Y-133717291D01*
X193961800Y-133675810D01*
X193961800Y-133074590D01*
X193965885Y-133033109D01*
X193976193Y-132999131D01*
X193992934Y-132967810D01*
X194015461Y-132940361D01*
X194042910Y-132917834D01*
X194074231Y-132901093D01*
X194108209Y-132890785D01*
X194149690Y-132886700D01*
X194825910Y-132886700D01*
X194867391Y-132890785D01*
G37*
G36*
X190574791Y-132839985D02*
G01*
X190608769Y-132850293D01*
X190640090Y-132867034D01*
X190667539Y-132889561D01*
X190690066Y-132917010D01*
X190706807Y-132948331D01*
X190717115Y-132982309D01*
X190721200Y-133023790D01*
X190721200Y-133625010D01*
X190717115Y-133666491D01*
X190706807Y-133700469D01*
X190690066Y-133731790D01*
X190667539Y-133759239D01*
X190640090Y-133781766D01*
X190608769Y-133798507D01*
X190574791Y-133808815D01*
X190533310Y-133812900D01*
X189857090Y-133812900D01*
X189815609Y-133808815D01*
X189781631Y-133798507D01*
X189750310Y-133781766D01*
X189722861Y-133759239D01*
X189700334Y-133731790D01*
X189683593Y-133700469D01*
X189673285Y-133666491D01*
X189669200Y-133625010D01*
X189669200Y-133023790D01*
X189673285Y-132982309D01*
X189683593Y-132948331D01*
X189700334Y-132917010D01*
X189722861Y-132889561D01*
X189750310Y-132867034D01*
X189781631Y-132850293D01*
X189815609Y-132839985D01*
X189857090Y-132835900D01*
X190533310Y-132835900D01*
X190574791Y-132839985D01*
G37*
G36*
X125599900Y-133381100D02*
G01*
X125097900Y-133381100D01*
X125097900Y-132379100D01*
X125599900Y-132379100D01*
X125599900Y-133381100D01*
G37*
G36*
X124799900Y-133381100D02*
G01*
X124297900Y-133381100D01*
X124297900Y-132379100D01*
X124799900Y-132379100D01*
X124799900Y-133381100D01*
G37*
G36*
X126399900Y-133381100D02*
G01*
X125897900Y-133381100D01*
X125897900Y-132379100D01*
X126399900Y-132379100D01*
X126399900Y-133381100D01*
G37*
G36*
X127199900Y-133381100D02*
G01*
X126697900Y-133381100D01*
X126697900Y-132379100D01*
X127199900Y-132379100D01*
X127199900Y-133381100D01*
G37*
G36*
X145301000Y-132481800D02*
G01*
X136639000Y-132481800D01*
X136639000Y-130779800D01*
X145301000Y-130779800D01*
X145301000Y-132481800D01*
G37*
G36*
X124799900Y-131681100D02*
G01*
X124297900Y-131681100D01*
X124297900Y-130679100D01*
X124799900Y-130679100D01*
X124799900Y-131681100D01*
G37*
G36*
X126399900Y-131681100D02*
G01*
X125897900Y-131681100D01*
X125897900Y-130679100D01*
X126399900Y-130679100D01*
X126399900Y-131681100D01*
G37*
G36*
X125599900Y-131681100D02*
G01*
X125097900Y-131681100D01*
X125097900Y-130679100D01*
X125599900Y-130679100D01*
X125599900Y-131681100D01*
G37*
G36*
X127199900Y-131681100D02*
G01*
X126697900Y-131681100D01*
X126697900Y-130679100D01*
X127199900Y-130679100D01*
X127199900Y-131681100D01*
G37*
G36*
X161484000Y-131018000D02*
G01*
X160982000Y-131018000D01*
X160982000Y-130016000D01*
X161484000Y-130016000D01*
X161484000Y-131018000D01*
G37*
G36*
X163884000Y-131018000D02*
G01*
X163382000Y-131018000D01*
X163382000Y-130016000D01*
X163884000Y-130016000D01*
X163884000Y-131018000D01*
G37*
G36*
X162284000Y-131018000D02*
G01*
X161782000Y-131018000D01*
X161782000Y-130016000D01*
X162284000Y-130016000D01*
X162284000Y-131018000D01*
G37*
G36*
X163084000Y-131018000D02*
G01*
X162582000Y-131018000D01*
X162582000Y-130016000D01*
X163084000Y-130016000D01*
X163084000Y-131018000D01*
G37*
G36*
X179867200Y-130877400D02*
G01*
X179365200Y-130877400D01*
X179365200Y-129875400D01*
X179867200Y-129875400D01*
X179867200Y-130877400D01*
G37*
G36*
X180667200Y-130877400D02*
G01*
X180165200Y-130877400D01*
X180165200Y-129875400D01*
X180667200Y-129875400D01*
X180667200Y-130877400D01*
G37*
G36*
X179067200Y-130877400D02*
G01*
X178565200Y-130877400D01*
X178565200Y-129875400D01*
X179067200Y-129875400D01*
X179067200Y-130877400D01*
G37*
G36*
X181467200Y-130877400D02*
G01*
X180965200Y-130877400D01*
X180965200Y-129875400D01*
X181467200Y-129875400D01*
X181467200Y-130877400D01*
G37*
G36*
X192770200Y-130371200D02*
G01*
X192268200Y-130371200D01*
X192268200Y-129369200D01*
X192770200Y-129369200D01*
X192770200Y-130371200D01*
G37*
G36*
X193570200Y-130371200D02*
G01*
X193068200Y-130371200D01*
X193068200Y-129369200D01*
X193570200Y-129369200D01*
X193570200Y-130371200D01*
G37*
G36*
X191970200Y-130371200D02*
G01*
X191468200Y-130371200D01*
X191468200Y-129369200D01*
X191970200Y-129369200D01*
X191970200Y-130371200D01*
G37*
G36*
X194370200Y-130371200D02*
G01*
X193868200Y-130371200D01*
X193868200Y-129369200D01*
X194370200Y-129369200D01*
X194370200Y-130371200D01*
G37*
G36*
X135971000Y-130111800D02*
G01*
X134269000Y-130111800D01*
X134269000Y-121449800D01*
X135971000Y-121449800D01*
X135971000Y-130111800D01*
G37*
G36*
X147671000Y-130111800D02*
G01*
X145969000Y-130111800D01*
X145969000Y-121449800D01*
X147671000Y-121449800D01*
X147671000Y-130111800D01*
G37*
G36*
X163084000Y-129318000D02*
G01*
X162582000Y-129318000D01*
X162582000Y-128316000D01*
X163084000Y-128316000D01*
X163084000Y-129318000D01*
G37*
G36*
X163884000Y-129318000D02*
G01*
X163382000Y-129318000D01*
X163382000Y-128316000D01*
X163884000Y-128316000D01*
X163884000Y-129318000D01*
G37*
G36*
X162284000Y-129318000D02*
G01*
X161782000Y-129318000D01*
X161782000Y-128316000D01*
X162284000Y-128316000D01*
X162284000Y-129318000D01*
G37*
G36*
X161484000Y-129318000D02*
G01*
X160982000Y-129318000D01*
X160982000Y-128316000D01*
X161484000Y-128316000D01*
X161484000Y-129318000D01*
G37*
G36*
X179067200Y-129177400D02*
G01*
X178565200Y-129177400D01*
X178565200Y-128175400D01*
X179067200Y-128175400D01*
X179067200Y-129177400D01*
G37*
G36*
X180667200Y-129177400D02*
G01*
X180165200Y-129177400D01*
X180165200Y-128175400D01*
X180667200Y-128175400D01*
X180667200Y-129177400D01*
G37*
G36*
X181467200Y-129177400D02*
G01*
X180965200Y-129177400D01*
X180965200Y-128175400D01*
X181467200Y-128175400D01*
X181467200Y-129177400D01*
G37*
G36*
X179867200Y-129177400D02*
G01*
X179365200Y-129177400D01*
X179365200Y-128175400D01*
X179867200Y-128175400D01*
X179867200Y-129177400D01*
G37*
G36*
X108426856Y-125873898D02*
G01*
X108533179Y-125895047D01*
X108833642Y-126019503D01*
X109104051Y-126200185D01*
X109334015Y-126430149D01*
X109398479Y-126526626D01*
X109514698Y-126700560D01*
X109639153Y-127001022D01*
X109702600Y-127319989D01*
X109702600Y-127645211D01*
X109661904Y-127849800D01*
X109639153Y-127964179D01*
X109514697Y-128264642D01*
X109334015Y-128535051D01*
X109104051Y-128765015D01*
X108833642Y-128945697D01*
X108533179Y-129070153D01*
X108426856Y-129091302D01*
X108214211Y-129133600D01*
X107888989Y-129133600D01*
X107676344Y-129091302D01*
X107570021Y-129070153D01*
X107269558Y-128945697D01*
X106999149Y-128765015D01*
X106769185Y-128535051D01*
X106588503Y-128264642D01*
X106464047Y-127964179D01*
X106441296Y-127849800D01*
X106400600Y-127645211D01*
X106400600Y-127319989D01*
X106464047Y-127001022D01*
X106588502Y-126700560D01*
X106704721Y-126526626D01*
X106769185Y-126430149D01*
X106999149Y-126200185D01*
X107269558Y-126019503D01*
X107570021Y-125895047D01*
X107676344Y-125873898D01*
X107888989Y-125831600D01*
X108214211Y-125831600D01*
X108426856Y-125873898D01*
G37*
G36*
X192770200Y-128671200D02*
G01*
X192268200Y-128671200D01*
X192268200Y-127669200D01*
X192770200Y-127669200D01*
X192770200Y-128671200D01*
G37*
G36*
X191970200Y-128671200D02*
G01*
X191468200Y-128671200D01*
X191468200Y-127669200D01*
X191970200Y-127669200D01*
X191970200Y-128671200D01*
G37*
G36*
X194370200Y-128671200D02*
G01*
X193868200Y-128671200D01*
X193868200Y-127669200D01*
X194370200Y-127669200D01*
X194370200Y-128671200D01*
G37*
G36*
X193570200Y-128671200D02*
G01*
X193068200Y-128671200D01*
X193068200Y-127669200D01*
X193570200Y-127669200D01*
X193570200Y-128671200D01*
G37*
G36*
X117175242Y-125442381D02*
G01*
X117321014Y-125502762D01*
X117321016Y-125502763D01*
X117452208Y-125590422D01*
X117563778Y-125701992D01*
X117651437Y-125833184D01*
X117651438Y-125833186D01*
X117711819Y-125978958D01*
X117742600Y-126133707D01*
X117742600Y-126291493D01*
X117711819Y-126446242D01*
X117651438Y-126592014D01*
X117651437Y-126592016D01*
X117563778Y-126723208D01*
X117452208Y-126834778D01*
X117321016Y-126922437D01*
X117321015Y-126922438D01*
X117321014Y-126922438D01*
X117175242Y-126982819D01*
X117020493Y-127013600D01*
X116862707Y-127013600D01*
X116707958Y-126982819D01*
X116562186Y-126922438D01*
X116562185Y-126922438D01*
X116562184Y-126922437D01*
X116430992Y-126834778D01*
X116319422Y-126723208D01*
X116231763Y-126592016D01*
X116231762Y-126592014D01*
X116171381Y-126446242D01*
X116140600Y-126291493D01*
X116140600Y-126133707D01*
X116171381Y-125978958D01*
X116231762Y-125833186D01*
X116231763Y-125833184D01*
X116319422Y-125701992D01*
X116430992Y-125590422D01*
X116562184Y-125502763D01*
X116562186Y-125502762D01*
X116707958Y-125442381D01*
X116862707Y-125411600D01*
X117020493Y-125411600D01*
X117175242Y-125442381D01*
G37*
G36*
X128697368Y-125034365D02*
G01*
X128736038Y-125046096D01*
X128771677Y-125065146D01*
X128802917Y-125090783D01*
X128828554Y-125122023D01*
X128847604Y-125157662D01*
X128859335Y-125196332D01*
X128863900Y-125242688D01*
X128863900Y-126318912D01*
X128859335Y-126365268D01*
X128847604Y-126403938D01*
X128828554Y-126439577D01*
X128802917Y-126470817D01*
X128771677Y-126496454D01*
X128736038Y-126515504D01*
X128697368Y-126527235D01*
X128651012Y-126531800D01*
X127999788Y-126531800D01*
X127953432Y-126527235D01*
X127914762Y-126515504D01*
X127879123Y-126496454D01*
X127847883Y-126470817D01*
X127822246Y-126439577D01*
X127803196Y-126403938D01*
X127791465Y-126365268D01*
X127786900Y-126318912D01*
X127786900Y-125242688D01*
X127791465Y-125196332D01*
X127803196Y-125157662D01*
X127822246Y-125122023D01*
X127847883Y-125090783D01*
X127879123Y-125065146D01*
X127914762Y-125046096D01*
X127953432Y-125034365D01*
X127999788Y-125029800D01*
X128651012Y-125029800D01*
X128697368Y-125034365D01*
G37*
G36*
X130572368Y-125034365D02*
G01*
X130611038Y-125046096D01*
X130646677Y-125065146D01*
X130677917Y-125090783D01*
X130703554Y-125122023D01*
X130722604Y-125157662D01*
X130734335Y-125196332D01*
X130738900Y-125242688D01*
X130738900Y-126318912D01*
X130734335Y-126365268D01*
X130722604Y-126403938D01*
X130703554Y-126439577D01*
X130677917Y-126470817D01*
X130646677Y-126496454D01*
X130611038Y-126515504D01*
X130572368Y-126527235D01*
X130526012Y-126531800D01*
X129874788Y-126531800D01*
X129828432Y-126527235D01*
X129789762Y-126515504D01*
X129754123Y-126496454D01*
X129722883Y-126470817D01*
X129697246Y-126439577D01*
X129678196Y-126403938D01*
X129666465Y-126365268D01*
X129661900Y-126318912D01*
X129661900Y-125242688D01*
X129666465Y-125196332D01*
X129678196Y-125157662D01*
X129697246Y-125122023D01*
X129722883Y-125090783D01*
X129754123Y-125065146D01*
X129789762Y-125046096D01*
X129828432Y-125034365D01*
X129874788Y-125029800D01*
X130526012Y-125029800D01*
X130572368Y-125034365D01*
G37*
G36*
X153630968Y-125008965D02*
G01*
X153669638Y-125020696D01*
X153705277Y-125039746D01*
X153736517Y-125065383D01*
X153762154Y-125096623D01*
X153781204Y-125132262D01*
X153792935Y-125170932D01*
X153797500Y-125217288D01*
X153797500Y-126293512D01*
X153792935Y-126339868D01*
X153781204Y-126378538D01*
X153762154Y-126414177D01*
X153736517Y-126445417D01*
X153705277Y-126471054D01*
X153669638Y-126490104D01*
X153630968Y-126501835D01*
X153584612Y-126506400D01*
X152933388Y-126506400D01*
X152887032Y-126501835D01*
X152848362Y-126490104D01*
X152812723Y-126471054D01*
X152781483Y-126445417D01*
X152755846Y-126414177D01*
X152736796Y-126378538D01*
X152725065Y-126339868D01*
X152720500Y-126293512D01*
X152720500Y-125217288D01*
X152725065Y-125170932D01*
X152736796Y-125132262D01*
X152755846Y-125096623D01*
X152781483Y-125065383D01*
X152812723Y-125039746D01*
X152848362Y-125020696D01*
X152887032Y-125008965D01*
X152933388Y-125004400D01*
X153584612Y-125004400D01*
X153630968Y-125008965D01*
G37*
G36*
X151755968Y-125008965D02*
G01*
X151794638Y-125020696D01*
X151830277Y-125039746D01*
X151861517Y-125065383D01*
X151887154Y-125096623D01*
X151906204Y-125132262D01*
X151917935Y-125170932D01*
X151922500Y-125217288D01*
X151922500Y-126293512D01*
X151917935Y-126339868D01*
X151906204Y-126378538D01*
X151887154Y-126414177D01*
X151861517Y-126445417D01*
X151830277Y-126471054D01*
X151794638Y-126490104D01*
X151755968Y-126501835D01*
X151709612Y-126506400D01*
X151058388Y-126506400D01*
X151012032Y-126501835D01*
X150973362Y-126490104D01*
X150937723Y-126471054D01*
X150906483Y-126445417D01*
X150880846Y-126414177D01*
X150861796Y-126378538D01*
X150850065Y-126339868D01*
X150845500Y-126293512D01*
X150845500Y-125217288D01*
X150850065Y-125170932D01*
X150861796Y-125132262D01*
X150880846Y-125096623D01*
X150906483Y-125065383D01*
X150937723Y-125039746D01*
X150973362Y-125020696D01*
X151012032Y-125008965D01*
X151058388Y-125004400D01*
X151709612Y-125004400D01*
X151755968Y-125008965D01*
G37*
G36*
X114635242Y-124172381D02*
G01*
X114781014Y-124232762D01*
X114781016Y-124232763D01*
X114912208Y-124320422D01*
X115023778Y-124431992D01*
X115111437Y-124563184D01*
X115111438Y-124563186D01*
X115171819Y-124708958D01*
X115202600Y-124863707D01*
X115202600Y-125021493D01*
X115171819Y-125176242D01*
X115163497Y-125196332D01*
X115111437Y-125322016D01*
X115023778Y-125453208D01*
X114912208Y-125564778D01*
X114781016Y-125652437D01*
X114781015Y-125652438D01*
X114781014Y-125652438D01*
X114635242Y-125712819D01*
X114480493Y-125743600D01*
X114322707Y-125743600D01*
X114167958Y-125712819D01*
X114022186Y-125652438D01*
X114022185Y-125652438D01*
X114022184Y-125652437D01*
X113890992Y-125564778D01*
X113779422Y-125453208D01*
X113691763Y-125322016D01*
X113639703Y-125196332D01*
X113631381Y-125176242D01*
X113600600Y-125021493D01*
X113600600Y-124863707D01*
X113631381Y-124708958D01*
X113691762Y-124563186D01*
X113691763Y-124563184D01*
X113779422Y-124431992D01*
X113890992Y-124320422D01*
X114022184Y-124232763D01*
X114022186Y-124232762D01*
X114167958Y-124172381D01*
X114322707Y-124141600D01*
X114480493Y-124141600D01*
X114635242Y-124172381D01*
G37*
G36*
X117175242Y-122902381D02*
G01*
X117321014Y-122962762D01*
X117321016Y-122962763D01*
X117452208Y-123050422D01*
X117563778Y-123161992D01*
X117602062Y-123219289D01*
X117651438Y-123293186D01*
X117711819Y-123438958D01*
X117742600Y-123593707D01*
X117742600Y-123751493D01*
X117711819Y-123906242D01*
X117651438Y-124052014D01*
X117651437Y-124052016D01*
X117563778Y-124183208D01*
X117452208Y-124294778D01*
X117321016Y-124382437D01*
X117321015Y-124382438D01*
X117321014Y-124382438D01*
X117175242Y-124442819D01*
X117020493Y-124473600D01*
X116862707Y-124473600D01*
X116707958Y-124442819D01*
X116562186Y-124382438D01*
X116562185Y-124382438D01*
X116562184Y-124382437D01*
X116430992Y-124294778D01*
X116319422Y-124183208D01*
X116231763Y-124052016D01*
X116231762Y-124052014D01*
X116171381Y-123906242D01*
X116140600Y-123751493D01*
X116140600Y-123593707D01*
X116171381Y-123438958D01*
X116231762Y-123293186D01*
X116281138Y-123219289D01*
X116319422Y-123161992D01*
X116430992Y-123050422D01*
X116562184Y-122962763D01*
X116562186Y-122962762D01*
X116707958Y-122902381D01*
X116862707Y-122871600D01*
X117020493Y-122871600D01*
X117175242Y-122902381D01*
G37*
G36*
X185381112Y-122586027D02*
G01*
X185530412Y-122615724D01*
X185694384Y-122683644D01*
X185841954Y-122782247D01*
X185967453Y-122907746D01*
X186066056Y-123055316D01*
X186133976Y-123219288D01*
X186168600Y-123393359D01*
X186168600Y-123570841D01*
X186133976Y-123744912D01*
X186066056Y-123908884D01*
X185967453Y-124056454D01*
X185841954Y-124181953D01*
X185694384Y-124280556D01*
X185530412Y-124348476D01*
X185381112Y-124378173D01*
X185356342Y-124383100D01*
X185178858Y-124383100D01*
X185154088Y-124378173D01*
X185004788Y-124348476D01*
X184840816Y-124280556D01*
X184693246Y-124181953D01*
X184567747Y-124056454D01*
X184469144Y-123908884D01*
X184401224Y-123744912D01*
X184366600Y-123570841D01*
X184366600Y-123393359D01*
X184401224Y-123219288D01*
X184469144Y-123055316D01*
X184567747Y-122907746D01*
X184693246Y-122782247D01*
X184840816Y-122683644D01*
X185004788Y-122615724D01*
X185154088Y-122586027D01*
X185178858Y-122581100D01*
X185356342Y-122581100D01*
X185381112Y-122586027D01*
G37*
G36*
X188708600Y-124383100D02*
G01*
X186906600Y-124383100D01*
X186906600Y-122581100D01*
X188708600Y-122581100D01*
X188708600Y-124383100D01*
G37*
G36*
X114635242Y-121632381D02*
G01*
X114781014Y-121692762D01*
X114781016Y-121692763D01*
X114912208Y-121780422D01*
X115023778Y-121891992D01*
X115031012Y-121902819D01*
X115111438Y-122023186D01*
X115171819Y-122168958D01*
X115202600Y-122323707D01*
X115202600Y-122481493D01*
X115171819Y-122636242D01*
X115152184Y-122683644D01*
X115111437Y-122782016D01*
X115023778Y-122913208D01*
X114912208Y-123024778D01*
X114781016Y-123112437D01*
X114781015Y-123112438D01*
X114781014Y-123112438D01*
X114635242Y-123172819D01*
X114480493Y-123203600D01*
X114322707Y-123203600D01*
X114167958Y-123172819D01*
X114022186Y-123112438D01*
X114022185Y-123112438D01*
X114022184Y-123112437D01*
X113890992Y-123024778D01*
X113779422Y-122913208D01*
X113691763Y-122782016D01*
X113651016Y-122683644D01*
X113631381Y-122636242D01*
X113600600Y-122481493D01*
X113600600Y-122323707D01*
X113631381Y-122168958D01*
X113691762Y-122023186D01*
X113772188Y-121902819D01*
X113779422Y-121891992D01*
X113890992Y-121780422D01*
X114022184Y-121692763D01*
X114022186Y-121692762D01*
X114167958Y-121632381D01*
X114322707Y-121601600D01*
X114480493Y-121601600D01*
X114635242Y-121632381D01*
G37*
G36*
X117175242Y-120362381D02*
G01*
X117321014Y-120422762D01*
X117321016Y-120422763D01*
X117452208Y-120510422D01*
X117563778Y-120621992D01*
X117602062Y-120679289D01*
X117651438Y-120753186D01*
X117711819Y-120898958D01*
X117742600Y-121053707D01*
X117742600Y-121211493D01*
X117711819Y-121366242D01*
X117677208Y-121449800D01*
X117651437Y-121512016D01*
X117563778Y-121643208D01*
X117452208Y-121754778D01*
X117321016Y-121842437D01*
X117321015Y-121842438D01*
X117321014Y-121842438D01*
X117175242Y-121902819D01*
X117020493Y-121933600D01*
X116862707Y-121933600D01*
X116707958Y-121902819D01*
X116562186Y-121842438D01*
X116562185Y-121842438D01*
X116562184Y-121842437D01*
X116430992Y-121754778D01*
X116319422Y-121643208D01*
X116231763Y-121512016D01*
X116205992Y-121449800D01*
X116171381Y-121366242D01*
X116140600Y-121211493D01*
X116140600Y-121053707D01*
X116171381Y-120898958D01*
X116231762Y-120753186D01*
X116281138Y-120679289D01*
X116319422Y-120621992D01*
X116430992Y-120510422D01*
X116562184Y-120422763D01*
X116562186Y-120422762D01*
X116707958Y-120362381D01*
X116862707Y-120331600D01*
X117020493Y-120331600D01*
X117175242Y-120362381D01*
G37*
G36*
X185381112Y-120046027D02*
G01*
X185530412Y-120075724D01*
X185694384Y-120143644D01*
X185841954Y-120242247D01*
X185967453Y-120367746D01*
X186066056Y-120515316D01*
X186133976Y-120679288D01*
X186168600Y-120853359D01*
X186168600Y-121030841D01*
X186133976Y-121204912D01*
X186066056Y-121368884D01*
X185967453Y-121516454D01*
X185841954Y-121641953D01*
X185694384Y-121740556D01*
X185530412Y-121808476D01*
X185381112Y-121838173D01*
X185356342Y-121843100D01*
X185178858Y-121843100D01*
X185154088Y-121838173D01*
X185004788Y-121808476D01*
X184840816Y-121740556D01*
X184693246Y-121641953D01*
X184567747Y-121516454D01*
X184469144Y-121368884D01*
X184401224Y-121204912D01*
X184366600Y-121030841D01*
X184366600Y-120853359D01*
X184401224Y-120679288D01*
X184469144Y-120515316D01*
X184567747Y-120367746D01*
X184693246Y-120242247D01*
X184840816Y-120143644D01*
X185004788Y-120075724D01*
X185154088Y-120046027D01*
X185178858Y-120041100D01*
X185356342Y-120041100D01*
X185381112Y-120046027D01*
G37*
G36*
X187921112Y-120046027D02*
G01*
X188070412Y-120075724D01*
X188234384Y-120143644D01*
X188381954Y-120242247D01*
X188507453Y-120367746D01*
X188606056Y-120515316D01*
X188673976Y-120679288D01*
X188708600Y-120853359D01*
X188708600Y-121030841D01*
X188673976Y-121204912D01*
X188606056Y-121368884D01*
X188507453Y-121516454D01*
X188381954Y-121641953D01*
X188234384Y-121740556D01*
X188070412Y-121808476D01*
X187921112Y-121838173D01*
X187896342Y-121843100D01*
X187718858Y-121843100D01*
X187694088Y-121838173D01*
X187544788Y-121808476D01*
X187380816Y-121740556D01*
X187233246Y-121641953D01*
X187107747Y-121516454D01*
X187009144Y-121368884D01*
X186941224Y-121204912D01*
X186906600Y-121030841D01*
X186906600Y-120853359D01*
X186941224Y-120679288D01*
X187009144Y-120515316D01*
X187107747Y-120367746D01*
X187233246Y-120242247D01*
X187380816Y-120143644D01*
X187544788Y-120075724D01*
X187694088Y-120046027D01*
X187718858Y-120041100D01*
X187896342Y-120041100D01*
X187921112Y-120046027D01*
G37*
G36*
X145301000Y-120781800D02*
G01*
X136639000Y-120781800D01*
X136639000Y-119079800D01*
X145301000Y-119079800D01*
X145301000Y-120781800D01*
G37*
G36*
X114635242Y-119092381D02*
G01*
X114781014Y-119152762D01*
X114781016Y-119152763D01*
X114912208Y-119240422D01*
X115023778Y-119351992D01*
X115031012Y-119362819D01*
X115111438Y-119483186D01*
X115171819Y-119628958D01*
X115202600Y-119783707D01*
X115202600Y-119941493D01*
X115171819Y-120096242D01*
X115152184Y-120143644D01*
X115111437Y-120242016D01*
X115023778Y-120373208D01*
X114912208Y-120484778D01*
X114781016Y-120572437D01*
X114781015Y-120572438D01*
X114781014Y-120572438D01*
X114635242Y-120632819D01*
X114480493Y-120663600D01*
X114322707Y-120663600D01*
X114167958Y-120632819D01*
X114022186Y-120572438D01*
X114022185Y-120572438D01*
X114022184Y-120572437D01*
X113890992Y-120484778D01*
X113779422Y-120373208D01*
X113691763Y-120242016D01*
X113651016Y-120143644D01*
X113631381Y-120096242D01*
X113600600Y-119941493D01*
X113600600Y-119783707D01*
X113631381Y-119628958D01*
X113691762Y-119483186D01*
X113772188Y-119362819D01*
X113779422Y-119351992D01*
X113890992Y-119240422D01*
X114022184Y-119152763D01*
X114022186Y-119152762D01*
X114167958Y-119092381D01*
X114322707Y-119061600D01*
X114480493Y-119061600D01*
X114635242Y-119092381D01*
G37*
G36*
X117175242Y-117822381D02*
G01*
X117321014Y-117882762D01*
X117321016Y-117882763D01*
X117452208Y-117970422D01*
X117563778Y-118081992D01*
X117602062Y-118139289D01*
X117651438Y-118213186D01*
X117711819Y-118358958D01*
X117742600Y-118513707D01*
X117742600Y-118671493D01*
X117711819Y-118826242D01*
X117651438Y-118972014D01*
X117651437Y-118972016D01*
X117563778Y-119103208D01*
X117452208Y-119214778D01*
X117321016Y-119302437D01*
X117321015Y-119302438D01*
X117321014Y-119302438D01*
X117175242Y-119362819D01*
X117020493Y-119393600D01*
X116862707Y-119393600D01*
X116707958Y-119362819D01*
X116562186Y-119302438D01*
X116562185Y-119302438D01*
X116562184Y-119302437D01*
X116430992Y-119214778D01*
X116319422Y-119103208D01*
X116231763Y-118972016D01*
X116231762Y-118972014D01*
X116171381Y-118826242D01*
X116140600Y-118671493D01*
X116140600Y-118513707D01*
X116171381Y-118358958D01*
X116231762Y-118213186D01*
X116281138Y-118139289D01*
X116319422Y-118081992D01*
X116430992Y-117970422D01*
X116562184Y-117882763D01*
X116562186Y-117882762D01*
X116707958Y-117822381D01*
X116862707Y-117791600D01*
X117020493Y-117791600D01*
X117175242Y-117822381D01*
G37*
G36*
X185381112Y-117506027D02*
G01*
X185530412Y-117535724D01*
X185694384Y-117603644D01*
X185841954Y-117702247D01*
X185967453Y-117827746D01*
X186066056Y-117975316D01*
X186133976Y-118139288D01*
X186168600Y-118313359D01*
X186168600Y-118490841D01*
X186133976Y-118664912D01*
X186066056Y-118828884D01*
X185967453Y-118976454D01*
X185841954Y-119101953D01*
X185694384Y-119200556D01*
X185530412Y-119268476D01*
X185381112Y-119298173D01*
X185356342Y-119303100D01*
X185178858Y-119303100D01*
X185154088Y-119298173D01*
X185004788Y-119268476D01*
X184840816Y-119200556D01*
X184693246Y-119101953D01*
X184567747Y-118976454D01*
X184469144Y-118828884D01*
X184401224Y-118664912D01*
X184366600Y-118490841D01*
X184366600Y-118313359D01*
X184401224Y-118139288D01*
X184469144Y-117975316D01*
X184567747Y-117827746D01*
X184693246Y-117702247D01*
X184840816Y-117603644D01*
X185004788Y-117535724D01*
X185154088Y-117506027D01*
X185178858Y-117501100D01*
X185356342Y-117501100D01*
X185381112Y-117506027D01*
G37*
G36*
X187921112Y-117506027D02*
G01*
X188070412Y-117535724D01*
X188234384Y-117603644D01*
X188381954Y-117702247D01*
X188507453Y-117827746D01*
X188606056Y-117975316D01*
X188673976Y-118139288D01*
X188708600Y-118313359D01*
X188708600Y-118490841D01*
X188673976Y-118664912D01*
X188606056Y-118828884D01*
X188507453Y-118976454D01*
X188381954Y-119101953D01*
X188234384Y-119200556D01*
X188070412Y-119268476D01*
X187921112Y-119298173D01*
X187896342Y-119303100D01*
X187718858Y-119303100D01*
X187694088Y-119298173D01*
X187544788Y-119268476D01*
X187380816Y-119200556D01*
X187233246Y-119101953D01*
X187107747Y-118976454D01*
X187009144Y-118828884D01*
X186941224Y-118664912D01*
X186906600Y-118490841D01*
X186906600Y-118313359D01*
X186941224Y-118139288D01*
X187009144Y-117975316D01*
X187107747Y-117827746D01*
X187233246Y-117702247D01*
X187380816Y-117603644D01*
X187544788Y-117535724D01*
X187694088Y-117506027D01*
X187718858Y-117501100D01*
X187896342Y-117501100D01*
X187921112Y-117506027D01*
G37*
G36*
X115202600Y-118123600D02*
G01*
X113600600Y-118123600D01*
X113600600Y-116521600D01*
X115202600Y-116521600D01*
X115202600Y-118123600D01*
G37*
G36*
X108426856Y-114443898D02*
G01*
X108533179Y-114465047D01*
X108833642Y-114589503D01*
X109104051Y-114770185D01*
X109334015Y-115000149D01*
X109442326Y-115162248D01*
X109514698Y-115270560D01*
X109639153Y-115571022D01*
X109679401Y-115773359D01*
X109702600Y-115889991D01*
X109702600Y-116215209D01*
X109639153Y-116534179D01*
X109514697Y-116834642D01*
X109334015Y-117105051D01*
X109104051Y-117335015D01*
X108833642Y-117515697D01*
X108533179Y-117640153D01*
X108426856Y-117661302D01*
X108214211Y-117703600D01*
X107888989Y-117703600D01*
X107676344Y-117661302D01*
X107570021Y-117640153D01*
X107269558Y-117515697D01*
X106999149Y-117335015D01*
X106769185Y-117105051D01*
X106588503Y-116834642D01*
X106464047Y-116534179D01*
X106400600Y-116215209D01*
X106400600Y-115889991D01*
X106423800Y-115773359D01*
X106464047Y-115571022D01*
X106588502Y-115270560D01*
X106660874Y-115162248D01*
X106769185Y-115000149D01*
X106999149Y-114770185D01*
X107269558Y-114589503D01*
X107570021Y-114465047D01*
X107676344Y-114443898D01*
X107888989Y-114401600D01*
X108214211Y-114401600D01*
X108426856Y-114443898D01*
G37*
G36*
X185381112Y-114966027D02*
G01*
X185530412Y-114995724D01*
X185694384Y-115063644D01*
X185841954Y-115162247D01*
X185967453Y-115287746D01*
X186066056Y-115435316D01*
X186133976Y-115599288D01*
X186168600Y-115773359D01*
X186168600Y-115950841D01*
X186133976Y-116124912D01*
X186066056Y-116288884D01*
X185967453Y-116436454D01*
X185841954Y-116561953D01*
X185694384Y-116660556D01*
X185530412Y-116728476D01*
X185381112Y-116758173D01*
X185356342Y-116763100D01*
X185178858Y-116763100D01*
X185154088Y-116758173D01*
X185004788Y-116728476D01*
X184840816Y-116660556D01*
X184693246Y-116561953D01*
X184567747Y-116436454D01*
X184469144Y-116288884D01*
X184401224Y-116124912D01*
X184366600Y-115950841D01*
X184366600Y-115773359D01*
X184401224Y-115599288D01*
X184469144Y-115435316D01*
X184567747Y-115287746D01*
X184693246Y-115162247D01*
X184840816Y-115063644D01*
X185004788Y-114995724D01*
X185154088Y-114966027D01*
X185178858Y-114961100D01*
X185356342Y-114961100D01*
X185381112Y-114966027D01*
G37*
G36*
X187921112Y-114966027D02*
G01*
X188070412Y-114995724D01*
X188234384Y-115063644D01*
X188381954Y-115162247D01*
X188507453Y-115287746D01*
X188606056Y-115435316D01*
X188673976Y-115599288D01*
X188708600Y-115773359D01*
X188708600Y-115950841D01*
X188673976Y-116124912D01*
X188606056Y-116288884D01*
X188507453Y-116436454D01*
X188381954Y-116561953D01*
X188234384Y-116660556D01*
X188070412Y-116728476D01*
X187921112Y-116758173D01*
X187896342Y-116763100D01*
X187718858Y-116763100D01*
X187694088Y-116758173D01*
X187544788Y-116728476D01*
X187380816Y-116660556D01*
X187233246Y-116561953D01*
X187107747Y-116436454D01*
X187009144Y-116288884D01*
X186941224Y-116124912D01*
X186906600Y-115950841D01*
X186906600Y-115773359D01*
X186941224Y-115599288D01*
X187009144Y-115435316D01*
X187107747Y-115287746D01*
X187233246Y-115162247D01*
X187380816Y-115063644D01*
X187544788Y-114995724D01*
X187694088Y-114966027D01*
X187718858Y-114961100D01*
X187896342Y-114961100D01*
X187921112Y-114966027D01*
G37*
G36*
X185381112Y-112426027D02*
G01*
X185530412Y-112455724D01*
X185694384Y-112523644D01*
X185841954Y-112622247D01*
X185967453Y-112747746D01*
X186066056Y-112895316D01*
X186133976Y-113059288D01*
X186168600Y-113233359D01*
X186168600Y-113410841D01*
X186133976Y-113584912D01*
X186066056Y-113748884D01*
X185967453Y-113896454D01*
X185841954Y-114021953D01*
X185694384Y-114120556D01*
X185530412Y-114188476D01*
X185381112Y-114218173D01*
X185356342Y-114223100D01*
X185178858Y-114223100D01*
X185154088Y-114218173D01*
X185004788Y-114188476D01*
X184840816Y-114120556D01*
X184693246Y-114021953D01*
X184567747Y-113896454D01*
X184469144Y-113748884D01*
X184401224Y-113584912D01*
X184366600Y-113410841D01*
X184366600Y-113233359D01*
X184401224Y-113059288D01*
X184469144Y-112895316D01*
X184567747Y-112747746D01*
X184693246Y-112622247D01*
X184840816Y-112523644D01*
X185004788Y-112455724D01*
X185154088Y-112426027D01*
X185178858Y-112421100D01*
X185356342Y-112421100D01*
X185381112Y-112426027D01*
G37*
G36*
X187921112Y-112426027D02*
G01*
X188070412Y-112455724D01*
X188234384Y-112523644D01*
X188381954Y-112622247D01*
X188507453Y-112747746D01*
X188606056Y-112895316D01*
X188673976Y-113059288D01*
X188708600Y-113233359D01*
X188708600Y-113410841D01*
X188673976Y-113584912D01*
X188606056Y-113748884D01*
X188507453Y-113896454D01*
X188381954Y-114021953D01*
X188234384Y-114120556D01*
X188070412Y-114188476D01*
X187921112Y-114218173D01*
X187896342Y-114223100D01*
X187718858Y-114223100D01*
X187694088Y-114218173D01*
X187544788Y-114188476D01*
X187380816Y-114120556D01*
X187233246Y-114021953D01*
X187107747Y-113896454D01*
X187009144Y-113748884D01*
X186941224Y-113584912D01*
X186906600Y-113410841D01*
X186906600Y-113233359D01*
X186941224Y-113059288D01*
X187009144Y-112895316D01*
X187107747Y-112747746D01*
X187233246Y-112622247D01*
X187380816Y-112523644D01*
X187544788Y-112455724D01*
X187694088Y-112426027D01*
X187718858Y-112421100D01*
X187896342Y-112421100D01*
X187921112Y-112426027D01*
G37*
G36*
X185381112Y-104615527D02*
G01*
X185530412Y-104645224D01*
X185694384Y-104713144D01*
X185841954Y-104811747D01*
X185967453Y-104937246D01*
X186066056Y-105084816D01*
X186133976Y-105248788D01*
X186168600Y-105422859D01*
X186168600Y-105600341D01*
X186133976Y-105774412D01*
X186066056Y-105938384D01*
X185967453Y-106085954D01*
X185841954Y-106211453D01*
X185694384Y-106310056D01*
X185530412Y-106377976D01*
X185381112Y-106407673D01*
X185356342Y-106412600D01*
X185178858Y-106412600D01*
X185154088Y-106407673D01*
X185004788Y-106377976D01*
X184840816Y-106310056D01*
X184693246Y-106211453D01*
X184567747Y-106085954D01*
X184469144Y-105938384D01*
X184401224Y-105774412D01*
X184366600Y-105600341D01*
X184366600Y-105422859D01*
X184401224Y-105248788D01*
X184469144Y-105084816D01*
X184567747Y-104937246D01*
X184693246Y-104811747D01*
X184840816Y-104713144D01*
X185004788Y-104645224D01*
X185154088Y-104615527D01*
X185178858Y-104610600D01*
X185356342Y-104610600D01*
X185381112Y-104615527D01*
G37*
G36*
X188708600Y-106412600D02*
G01*
X186906600Y-106412600D01*
X186906600Y-104610600D01*
X188708600Y-104610600D01*
X188708600Y-106412600D01*
G37*
G36*
X185381112Y-102075527D02*
G01*
X185530412Y-102105224D01*
X185694384Y-102173144D01*
X185841954Y-102271747D01*
X185967453Y-102397246D01*
X186066056Y-102544816D01*
X186133976Y-102708788D01*
X186168600Y-102882859D01*
X186168600Y-103060341D01*
X186133976Y-103234412D01*
X186066056Y-103398384D01*
X185967453Y-103545954D01*
X185841954Y-103671453D01*
X185694384Y-103770056D01*
X185530412Y-103837976D01*
X185381112Y-103867673D01*
X185356342Y-103872600D01*
X185178858Y-103872600D01*
X185154088Y-103867673D01*
X185004788Y-103837976D01*
X184840816Y-103770056D01*
X184693246Y-103671453D01*
X184567747Y-103545954D01*
X184469144Y-103398384D01*
X184401224Y-103234412D01*
X184366600Y-103060341D01*
X184366600Y-102882859D01*
X184401224Y-102708788D01*
X184469144Y-102544816D01*
X184567747Y-102397246D01*
X184693246Y-102271747D01*
X184840816Y-102173144D01*
X185004788Y-102105224D01*
X185154088Y-102075527D01*
X185178858Y-102070600D01*
X185356342Y-102070600D01*
X185381112Y-102075527D01*
G37*
G36*
X187921112Y-102075527D02*
G01*
X188070412Y-102105224D01*
X188234384Y-102173144D01*
X188381954Y-102271747D01*
X188507453Y-102397246D01*
X188606056Y-102544816D01*
X188673976Y-102708788D01*
X188708600Y-102882859D01*
X188708600Y-103060341D01*
X188673976Y-103234412D01*
X188606056Y-103398384D01*
X188507453Y-103545954D01*
X188381954Y-103671453D01*
X188234384Y-103770056D01*
X188070412Y-103837976D01*
X187921112Y-103867673D01*
X187896342Y-103872600D01*
X187718858Y-103872600D01*
X187694088Y-103867673D01*
X187544788Y-103837976D01*
X187380816Y-103770056D01*
X187233246Y-103671453D01*
X187107747Y-103545954D01*
X187009144Y-103398384D01*
X186941224Y-103234412D01*
X186906600Y-103060341D01*
X186906600Y-102882859D01*
X186941224Y-102708788D01*
X187009144Y-102544816D01*
X187107747Y-102397246D01*
X187233246Y-102271747D01*
X187380816Y-102173144D01*
X187544788Y-102105224D01*
X187694088Y-102075527D01*
X187718858Y-102070600D01*
X187896342Y-102070600D01*
X187921112Y-102075527D01*
G37*
G36*
X125240966Y-92477721D02*
G01*
X126251183Y-92896167D01*
X126251185Y-92896168D01*
X126480020Y-93049070D01*
X127160356Y-93503656D01*
X127933544Y-94276844D01*
X128184046Y-94651748D01*
X128476068Y-95088789D01*
X128541033Y-95186017D01*
X128959479Y-96196234D01*
X129172800Y-97268673D01*
X129172800Y-98362127D01*
X128959479Y-99434566D01*
X128541033Y-100444783D01*
X127933544Y-101353956D01*
X127160356Y-102127144D01*
X126535265Y-102544816D01*
X126251185Y-102734632D01*
X126251184Y-102734633D01*
X126251183Y-102734633D01*
X125240966Y-103153079D01*
X124168527Y-103366400D01*
X123075073Y-103366400D01*
X122002634Y-103153079D01*
X120992417Y-102734633D01*
X120992416Y-102734633D01*
X120992415Y-102734632D01*
X120708335Y-102544816D01*
X120083244Y-102127144D01*
X119310056Y-101353956D01*
X118702567Y-100444783D01*
X118284121Y-99434566D01*
X118070800Y-98362127D01*
X118070800Y-97268673D01*
X118284121Y-96196234D01*
X118702567Y-95186017D01*
X118767533Y-95088789D01*
X119059554Y-94651748D01*
X119310056Y-94276844D01*
X120083244Y-93503656D01*
X120763580Y-93049070D01*
X120992415Y-92896168D01*
X120992417Y-92896167D01*
X122002634Y-92477721D01*
X123075073Y-92264400D01*
X124168527Y-92264400D01*
X125240966Y-92477721D01*
G37*
G36*
X169995200Y-102663600D02*
G01*
X168993200Y-102663600D01*
X168993200Y-102161600D01*
X169995200Y-102161600D01*
X169995200Y-102663600D01*
G37*
G36*
X168295200Y-102663600D02*
G01*
X167293200Y-102663600D01*
X167293200Y-102161600D01*
X168295200Y-102161600D01*
X168295200Y-102663600D01*
G37*
G36*
X168295200Y-101863600D02*
G01*
X167293200Y-101863600D01*
X167293200Y-101361600D01*
X168295200Y-101361600D01*
X168295200Y-101863600D01*
G37*
G36*
X169995200Y-101863600D02*
G01*
X168993200Y-101863600D01*
X168993200Y-101361600D01*
X169995200Y-101361600D01*
X169995200Y-101863600D01*
G37*
G36*
X187921112Y-99535527D02*
G01*
X188070412Y-99565224D01*
X188234384Y-99633144D01*
X188381954Y-99731747D01*
X188507453Y-99857246D01*
X188606056Y-100004816D01*
X188673976Y-100168788D01*
X188708600Y-100342859D01*
X188708600Y-100520341D01*
X188673976Y-100694412D01*
X188606056Y-100858384D01*
X188507453Y-101005954D01*
X188381954Y-101131453D01*
X188234384Y-101230056D01*
X188070412Y-101297976D01*
X187921112Y-101327673D01*
X187896342Y-101332600D01*
X187718858Y-101332600D01*
X187694088Y-101327673D01*
X187544788Y-101297976D01*
X187380816Y-101230056D01*
X187233246Y-101131453D01*
X187107747Y-101005954D01*
X187009144Y-100858384D01*
X186941224Y-100694412D01*
X186906600Y-100520341D01*
X186906600Y-100342859D01*
X186941224Y-100168788D01*
X187009144Y-100004816D01*
X187107747Y-99857246D01*
X187233246Y-99731747D01*
X187380816Y-99633144D01*
X187544788Y-99565224D01*
X187694088Y-99535527D01*
X187718858Y-99530600D01*
X187896342Y-99530600D01*
X187921112Y-99535527D01*
G37*
G36*
X185381112Y-99535527D02*
G01*
X185530412Y-99565224D01*
X185694384Y-99633144D01*
X185841954Y-99731747D01*
X185967453Y-99857246D01*
X186066056Y-100004816D01*
X186133976Y-100168788D01*
X186168600Y-100342859D01*
X186168600Y-100520341D01*
X186133976Y-100694412D01*
X186066056Y-100858384D01*
X185967453Y-101005954D01*
X185841954Y-101131453D01*
X185694384Y-101230056D01*
X185530412Y-101297976D01*
X185381112Y-101327673D01*
X185356342Y-101332600D01*
X185178858Y-101332600D01*
X185154088Y-101327673D01*
X185004788Y-101297976D01*
X184840816Y-101230056D01*
X184693246Y-101131453D01*
X184567747Y-101005954D01*
X184469144Y-100858384D01*
X184401224Y-100694412D01*
X184366600Y-100520341D01*
X184366600Y-100342859D01*
X184401224Y-100168788D01*
X184469144Y-100004816D01*
X184567747Y-99857246D01*
X184693246Y-99731747D01*
X184840816Y-99633144D01*
X185004788Y-99565224D01*
X185154088Y-99535527D01*
X185178858Y-99530600D01*
X185356342Y-99530600D01*
X185381112Y-99535527D01*
G37*
G36*
X168295200Y-101063600D02*
G01*
X167293200Y-101063600D01*
X167293200Y-100561600D01*
X168295200Y-100561600D01*
X168295200Y-101063600D01*
G37*
G36*
X169995200Y-101063600D02*
G01*
X168993200Y-101063600D01*
X168993200Y-100561600D01*
X169995200Y-100561600D01*
X169995200Y-101063600D01*
G37*
G36*
X153599400Y-100966400D02*
G01*
X150997400Y-100966400D01*
X150997400Y-99664400D01*
X153599400Y-99664400D01*
X153599400Y-100966400D01*
G37*
G36*
X148099400Y-100966400D02*
G01*
X145497400Y-100966400D01*
X145497400Y-99664400D01*
X148099400Y-99664400D01*
X148099400Y-100966400D01*
G37*
G36*
X113422800Y-100416400D02*
G01*
X110820800Y-100416400D01*
X110820800Y-95214400D01*
X113422800Y-95214400D01*
X113422800Y-100416400D01*
G37*
G36*
X136422800Y-100416400D02*
G01*
X133820800Y-100416400D01*
X133820800Y-95214400D01*
X136422800Y-95214400D01*
X136422800Y-100416400D01*
G37*
G36*
X169995200Y-100263600D02*
G01*
X168993200Y-100263600D01*
X168993200Y-99761600D01*
X169995200Y-99761600D01*
X169995200Y-100263600D01*
G37*
G36*
X168295200Y-100263600D02*
G01*
X167293200Y-100263600D01*
X167293200Y-99761600D01*
X168295200Y-99761600D01*
X168295200Y-100263600D01*
G37*
G36*
X185381112Y-96995527D02*
G01*
X185530412Y-97025224D01*
X185694384Y-97093144D01*
X185841954Y-97191747D01*
X185967453Y-97317246D01*
X186066056Y-97464816D01*
X186133976Y-97628788D01*
X186168600Y-97802859D01*
X186168600Y-97980341D01*
X186133976Y-98154412D01*
X186066056Y-98318384D01*
X185967453Y-98465954D01*
X185841954Y-98591453D01*
X185694384Y-98690056D01*
X185530412Y-98757976D01*
X185381112Y-98787673D01*
X185356342Y-98792600D01*
X185178858Y-98792600D01*
X185154088Y-98787673D01*
X185004788Y-98757976D01*
X184840816Y-98690056D01*
X184693246Y-98591453D01*
X184567747Y-98465954D01*
X184469144Y-98318384D01*
X184401224Y-98154412D01*
X184366600Y-97980341D01*
X184366600Y-97802859D01*
X184401224Y-97628788D01*
X184469144Y-97464816D01*
X184567747Y-97317246D01*
X184693246Y-97191747D01*
X184840816Y-97093144D01*
X185004788Y-97025224D01*
X185154088Y-96995527D01*
X185178858Y-96990600D01*
X185356342Y-96990600D01*
X185381112Y-96995527D01*
G37*
G36*
X187921112Y-96995527D02*
G01*
X188070412Y-97025224D01*
X188234384Y-97093144D01*
X188381954Y-97191747D01*
X188507453Y-97317246D01*
X188606056Y-97464816D01*
X188673976Y-97628788D01*
X188708600Y-97802859D01*
X188708600Y-97980341D01*
X188673976Y-98154412D01*
X188606056Y-98318384D01*
X188507453Y-98465954D01*
X188381954Y-98591453D01*
X188234384Y-98690056D01*
X188070412Y-98757976D01*
X187921112Y-98787673D01*
X187896342Y-98792600D01*
X187718858Y-98792600D01*
X187694088Y-98787673D01*
X187544788Y-98757976D01*
X187380816Y-98690056D01*
X187233246Y-98591453D01*
X187107747Y-98465954D01*
X187009144Y-98318384D01*
X186941224Y-98154412D01*
X186906600Y-97980341D01*
X186906600Y-97802859D01*
X186941224Y-97628788D01*
X187009144Y-97464816D01*
X187107747Y-97317246D01*
X187233246Y-97191747D01*
X187380816Y-97093144D01*
X187544788Y-97025224D01*
X187694088Y-96995527D01*
X187718858Y-96990600D01*
X187896342Y-96990600D01*
X187921112Y-96995527D01*
G37*
G36*
X148099400Y-98466400D02*
G01*
X145497400Y-98466400D01*
X145497400Y-97164400D01*
X148099400Y-97164400D01*
X148099400Y-98466400D01*
G37*
G36*
X153599400Y-98466400D02*
G01*
X150997400Y-98466400D01*
X150997400Y-97164400D01*
X153599400Y-97164400D01*
X153599400Y-98466400D01*
G37*
G36*
X165100200Y-97536200D02*
G01*
X163474200Y-97536200D01*
X163474200Y-95910200D01*
X165100200Y-95910200D01*
X165100200Y-97536200D01*
G37*
G36*
X159444342Y-95941442D02*
G01*
X159592301Y-96002729D01*
X159725455Y-96091699D01*
X159838701Y-96204945D01*
X159927671Y-96338099D01*
X159988958Y-96486058D01*
X160020200Y-96643125D01*
X160020200Y-96803275D01*
X159988958Y-96960342D01*
X159927671Y-97108301D01*
X159838701Y-97241455D01*
X159725455Y-97354701D01*
X159592301Y-97443671D01*
X159444342Y-97504958D01*
X159287275Y-97536200D01*
X159127125Y-97536200D01*
X158970058Y-97504958D01*
X158822099Y-97443671D01*
X158688945Y-97354701D01*
X158575699Y-97241455D01*
X158486729Y-97108301D01*
X158425442Y-96960342D01*
X158394200Y-96803275D01*
X158394200Y-96643125D01*
X158425442Y-96486058D01*
X158486729Y-96338099D01*
X158575699Y-96204945D01*
X158688945Y-96091699D01*
X158822099Y-96002729D01*
X158970058Y-95941442D01*
X159127125Y-95910200D01*
X159287275Y-95910200D01*
X159444342Y-95941442D01*
G37*
G36*
X187921112Y-94455527D02*
G01*
X188070412Y-94485224D01*
X188234384Y-94553144D01*
X188381954Y-94651747D01*
X188507453Y-94777246D01*
X188606056Y-94924816D01*
X188673976Y-95088788D01*
X188708600Y-95262859D01*
X188708600Y-95440341D01*
X188673976Y-95614412D01*
X188606056Y-95778384D01*
X188507453Y-95925954D01*
X188381954Y-96051453D01*
X188234384Y-96150056D01*
X188070412Y-96217976D01*
X187921112Y-96247673D01*
X187896342Y-96252600D01*
X187718858Y-96252600D01*
X187694088Y-96247673D01*
X187544788Y-96217976D01*
X187380816Y-96150056D01*
X187233246Y-96051453D01*
X187107747Y-95925954D01*
X187009144Y-95778384D01*
X186941224Y-95614412D01*
X186906600Y-95440341D01*
X186906600Y-95262859D01*
X186941224Y-95088788D01*
X187009144Y-94924816D01*
X187107747Y-94777246D01*
X187233246Y-94651747D01*
X187380816Y-94553144D01*
X187544788Y-94485224D01*
X187694088Y-94455527D01*
X187718858Y-94450600D01*
X187896342Y-94450600D01*
X187921112Y-94455527D01*
G37*
G36*
X185381112Y-94455527D02*
G01*
X185530412Y-94485224D01*
X185694384Y-94553144D01*
X185841954Y-94651747D01*
X185967453Y-94777246D01*
X186066056Y-94924816D01*
X186133976Y-95088788D01*
X186168600Y-95262859D01*
X186168600Y-95440341D01*
X186133976Y-95614412D01*
X186066056Y-95778384D01*
X185967453Y-95925954D01*
X185841954Y-96051453D01*
X185694384Y-96150056D01*
X185530412Y-96217976D01*
X185381112Y-96247673D01*
X185356342Y-96252600D01*
X185178858Y-96252600D01*
X185154088Y-96247673D01*
X185004788Y-96217976D01*
X184840816Y-96150056D01*
X184693246Y-96051453D01*
X184567747Y-95925954D01*
X184469144Y-95778384D01*
X184401224Y-95614412D01*
X184366600Y-95440341D01*
X184366600Y-95262859D01*
X184401224Y-95088788D01*
X184469144Y-94924816D01*
X184567747Y-94777246D01*
X184693246Y-94651747D01*
X184840816Y-94553144D01*
X185004788Y-94485224D01*
X185154088Y-94455527D01*
X185178858Y-94450600D01*
X185356342Y-94450600D01*
X185381112Y-94455527D01*
G37*
G36*
X148099400Y-95966400D02*
G01*
X145497400Y-95966400D01*
X145497400Y-94664400D01*
X148099400Y-94664400D01*
X148099400Y-95966400D01*
G37*
G36*
X153599400Y-95966400D02*
G01*
X150997400Y-95966400D01*
X150997400Y-94664400D01*
X153599400Y-94664400D01*
X153599400Y-95966400D01*
G37*
G36*
X196666456Y-87062698D02*
G01*
X196772779Y-87083847D01*
X197073242Y-87208303D01*
X197343651Y-87388985D01*
X197573615Y-87618949D01*
X197573616Y-87618951D01*
X197754298Y-87889360D01*
X197878753Y-88189822D01*
X197942200Y-88508789D01*
X197942200Y-88834011D01*
X197899902Y-89046656D01*
X197878753Y-89152979D01*
X197754297Y-89453442D01*
X197573615Y-89723851D01*
X197343651Y-89953815D01*
X197073242Y-90134497D01*
X196772779Y-90258953D01*
X196666456Y-90280102D01*
X196453811Y-90322400D01*
X196128589Y-90322400D01*
X195915944Y-90280102D01*
X195809621Y-90258953D01*
X195509158Y-90134497D01*
X195238749Y-89953815D01*
X195008785Y-89723851D01*
X194828103Y-89453442D01*
X194703647Y-89152979D01*
X194682498Y-89046656D01*
X194640200Y-88834011D01*
X194640200Y-88508789D01*
X194703647Y-88189822D01*
X194828102Y-87889360D01*
X195008784Y-87618951D01*
X195008785Y-87618949D01*
X195238749Y-87388985D01*
X195509158Y-87208303D01*
X195809621Y-87083847D01*
X195915944Y-87062698D01*
X196128589Y-87020400D01*
X196453811Y-87020400D01*
X196666456Y-87062698D01*
G37*
G36*
X103829456Y-86834098D02*
G01*
X103935779Y-86855247D01*
X104236242Y-86979703D01*
X104506651Y-87160385D01*
X104736615Y-87390349D01*
X104736616Y-87390351D01*
X104917298Y-87660760D01*
X105041753Y-87961222D01*
X105087225Y-88189821D01*
X105105200Y-88280191D01*
X105105200Y-88605409D01*
X105041753Y-88924379D01*
X104917297Y-89224842D01*
X104736615Y-89495251D01*
X104506651Y-89725215D01*
X104236242Y-89905897D01*
X103935779Y-90030353D01*
X103829456Y-90051502D01*
X103616811Y-90093800D01*
X103291589Y-90093800D01*
X103078944Y-90051502D01*
X102972621Y-90030353D01*
X102672158Y-89905897D01*
X102401749Y-89725215D01*
X102171785Y-89495251D01*
X101991103Y-89224842D01*
X101866647Y-88924379D01*
X101803200Y-88605409D01*
X101803200Y-88280191D01*
X101821176Y-88189821D01*
X101866647Y-87961222D01*
X101991102Y-87660760D01*
X102171784Y-87390351D01*
X102171785Y-87390349D01*
X102401749Y-87160385D01*
X102672158Y-86979703D01*
X102972621Y-86855247D01*
X103078944Y-86834098D01*
X103291589Y-86791800D01*
X103616811Y-86791800D01*
X103829456Y-86834098D01*
G37*
M02*
