G04 #@! TF.GenerationSoftware,KiCad,Pcbnew,5.0.2-bee76a0~70~ubuntu16.04.1*
G04 #@! TF.CreationDate,2020-03-15T16:03:58-07:00*
G04 #@! TF.ProjectId,pic18f_DB_Ethernet,70696331-3866-45f4-9442-5f4574686572,rev?*
G04 #@! TF.SameCoordinates,Original*
G04 #@! TF.FileFunction,Soldermask,Top*
G04 #@! TF.FilePolarity,Negative*
%FSLAX46Y46*%
G04 Gerber Fmt 4.6, Leading zero omitted, Abs format (unit mm)*
G04 Created by KiCad (PCBNEW 5.0.2-bee76a0~70~ubuntu16.04.1) date Sun 15 Mar 2020 16:03:58 PDT*
%MOMM*%
%LPD*%
G01*
G04 APERTURE LIST*
%ADD10C,0.100000*%
G04 APERTURE END LIST*
D10*
G36*
X141994842Y-144444318D02*
X142061027Y-144450837D01*
X142174253Y-144485184D01*
X142230867Y-144502357D01*
X142369487Y-144576452D01*
X142387391Y-144586022D01*
X142423129Y-144615352D01*
X142524586Y-144698614D01*
X142579603Y-144765654D01*
X142637178Y-144835809D01*
X142637179Y-144835811D01*
X142720843Y-144992333D01*
X142737248Y-145046413D01*
X142772363Y-145162173D01*
X142789759Y-145338800D01*
X142772363Y-145515427D01*
X142738016Y-145628653D01*
X142720843Y-145685267D01*
X142646748Y-145823887D01*
X142637178Y-145841791D01*
X142607848Y-145877529D01*
X142524586Y-145978986D01*
X142423129Y-146062248D01*
X142387391Y-146091578D01*
X142387389Y-146091579D01*
X142230867Y-146175243D01*
X142174253Y-146192416D01*
X142061027Y-146226763D01*
X141994843Y-146233281D01*
X141928660Y-146239800D01*
X141840140Y-146239800D01*
X141773957Y-146233281D01*
X141707773Y-146226763D01*
X141594547Y-146192416D01*
X141537933Y-146175243D01*
X141381411Y-146091579D01*
X141381409Y-146091578D01*
X141345671Y-146062248D01*
X141244214Y-145978986D01*
X141160952Y-145877529D01*
X141131622Y-145841791D01*
X141122052Y-145823887D01*
X141047957Y-145685267D01*
X141030784Y-145628653D01*
X140996437Y-145515427D01*
X140979041Y-145338800D01*
X140996437Y-145162173D01*
X141031552Y-145046413D01*
X141047957Y-144992333D01*
X141131621Y-144835811D01*
X141131622Y-144835809D01*
X141189197Y-144765654D01*
X141244214Y-144698614D01*
X141345671Y-144615352D01*
X141381409Y-144586022D01*
X141399313Y-144576452D01*
X141537933Y-144502357D01*
X141594547Y-144485184D01*
X141707773Y-144450837D01*
X141773958Y-144444318D01*
X141840140Y-144437800D01*
X141928660Y-144437800D01*
X141994842Y-144444318D01*
X141994842Y-144444318D01*
G37*
G36*
X144534842Y-144444318D02*
X144601027Y-144450837D01*
X144714253Y-144485184D01*
X144770867Y-144502357D01*
X144909487Y-144576452D01*
X144927391Y-144586022D01*
X144963129Y-144615352D01*
X145064586Y-144698614D01*
X145119603Y-144765654D01*
X145177178Y-144835809D01*
X145177179Y-144835811D01*
X145260843Y-144992333D01*
X145277248Y-145046413D01*
X145312363Y-145162173D01*
X145329759Y-145338800D01*
X145312363Y-145515427D01*
X145278016Y-145628653D01*
X145260843Y-145685267D01*
X145186748Y-145823887D01*
X145177178Y-145841791D01*
X145147848Y-145877529D01*
X145064586Y-145978986D01*
X144963129Y-146062248D01*
X144927391Y-146091578D01*
X144927389Y-146091579D01*
X144770867Y-146175243D01*
X144714253Y-146192416D01*
X144601027Y-146226763D01*
X144534843Y-146233281D01*
X144468660Y-146239800D01*
X144380140Y-146239800D01*
X144313957Y-146233281D01*
X144247773Y-146226763D01*
X144134547Y-146192416D01*
X144077933Y-146175243D01*
X143921411Y-146091579D01*
X143921409Y-146091578D01*
X143885671Y-146062248D01*
X143784214Y-145978986D01*
X143700952Y-145877529D01*
X143671622Y-145841791D01*
X143662052Y-145823887D01*
X143587957Y-145685267D01*
X143570784Y-145628653D01*
X143536437Y-145515427D01*
X143519041Y-145338800D01*
X143536437Y-145162173D01*
X143571552Y-145046413D01*
X143587957Y-144992333D01*
X143671621Y-144835811D01*
X143671622Y-144835809D01*
X143729197Y-144765654D01*
X143784214Y-144698614D01*
X143885671Y-144615352D01*
X143921409Y-144586022D01*
X143939313Y-144576452D01*
X144077933Y-144502357D01*
X144134547Y-144485184D01*
X144247773Y-144450837D01*
X144313958Y-144444318D01*
X144380140Y-144437800D01*
X144468660Y-144437800D01*
X144534842Y-144444318D01*
X144534842Y-144444318D01*
G37*
G36*
X147865400Y-146239800D02*
X146063400Y-146239800D01*
X146063400Y-144437800D01*
X147865400Y-144437800D01*
X147865400Y-146239800D01*
X147865400Y-146239800D01*
G37*
G36*
X134374842Y-144444318D02*
X134441027Y-144450837D01*
X134554253Y-144485184D01*
X134610867Y-144502357D01*
X134749487Y-144576452D01*
X134767391Y-144586022D01*
X134803129Y-144615352D01*
X134904586Y-144698614D01*
X134959603Y-144765654D01*
X135017178Y-144835809D01*
X135017179Y-144835811D01*
X135100843Y-144992333D01*
X135117248Y-145046413D01*
X135152363Y-145162173D01*
X135169759Y-145338800D01*
X135152363Y-145515427D01*
X135118016Y-145628653D01*
X135100843Y-145685267D01*
X135026748Y-145823887D01*
X135017178Y-145841791D01*
X134987848Y-145877529D01*
X134904586Y-145978986D01*
X134803129Y-146062248D01*
X134767391Y-146091578D01*
X134767389Y-146091579D01*
X134610867Y-146175243D01*
X134554253Y-146192416D01*
X134441027Y-146226763D01*
X134374843Y-146233281D01*
X134308660Y-146239800D01*
X134220140Y-146239800D01*
X134153957Y-146233281D01*
X134087773Y-146226763D01*
X133974547Y-146192416D01*
X133917933Y-146175243D01*
X133761411Y-146091579D01*
X133761409Y-146091578D01*
X133725671Y-146062248D01*
X133624214Y-145978986D01*
X133540952Y-145877529D01*
X133511622Y-145841791D01*
X133502052Y-145823887D01*
X133427957Y-145685267D01*
X133410784Y-145628653D01*
X133376437Y-145515427D01*
X133359041Y-145338800D01*
X133376437Y-145162173D01*
X133411552Y-145046413D01*
X133427957Y-144992333D01*
X133511621Y-144835811D01*
X133511622Y-144835809D01*
X133569197Y-144765654D01*
X133624214Y-144698614D01*
X133725671Y-144615352D01*
X133761409Y-144586022D01*
X133779313Y-144576452D01*
X133917933Y-144502357D01*
X133974547Y-144485184D01*
X134087773Y-144450837D01*
X134153958Y-144444318D01*
X134220140Y-144437800D01*
X134308660Y-144437800D01*
X134374842Y-144444318D01*
X134374842Y-144444318D01*
G37*
G36*
X139454842Y-144444318D02*
X139521027Y-144450837D01*
X139634253Y-144485184D01*
X139690867Y-144502357D01*
X139829487Y-144576452D01*
X139847391Y-144586022D01*
X139883129Y-144615352D01*
X139984586Y-144698614D01*
X140039603Y-144765654D01*
X140097178Y-144835809D01*
X140097179Y-144835811D01*
X140180843Y-144992333D01*
X140197248Y-145046413D01*
X140232363Y-145162173D01*
X140249759Y-145338800D01*
X140232363Y-145515427D01*
X140198016Y-145628653D01*
X140180843Y-145685267D01*
X140106748Y-145823887D01*
X140097178Y-145841791D01*
X140067848Y-145877529D01*
X139984586Y-145978986D01*
X139883129Y-146062248D01*
X139847391Y-146091578D01*
X139847389Y-146091579D01*
X139690867Y-146175243D01*
X139634253Y-146192416D01*
X139521027Y-146226763D01*
X139454843Y-146233281D01*
X139388660Y-146239800D01*
X139300140Y-146239800D01*
X139233957Y-146233281D01*
X139167773Y-146226763D01*
X139054547Y-146192416D01*
X138997933Y-146175243D01*
X138841411Y-146091579D01*
X138841409Y-146091578D01*
X138805671Y-146062248D01*
X138704214Y-145978986D01*
X138620952Y-145877529D01*
X138591622Y-145841791D01*
X138582052Y-145823887D01*
X138507957Y-145685267D01*
X138490784Y-145628653D01*
X138456437Y-145515427D01*
X138439041Y-145338800D01*
X138456437Y-145162173D01*
X138491552Y-145046413D01*
X138507957Y-144992333D01*
X138591621Y-144835811D01*
X138591622Y-144835809D01*
X138649197Y-144765654D01*
X138704214Y-144698614D01*
X138805671Y-144615352D01*
X138841409Y-144586022D01*
X138859313Y-144576452D01*
X138997933Y-144502357D01*
X139054547Y-144485184D01*
X139167773Y-144450837D01*
X139233958Y-144444318D01*
X139300140Y-144437800D01*
X139388660Y-144437800D01*
X139454842Y-144444318D01*
X139454842Y-144444318D01*
G37*
G36*
X136914842Y-144444318D02*
X136981027Y-144450837D01*
X137094253Y-144485184D01*
X137150867Y-144502357D01*
X137289487Y-144576452D01*
X137307391Y-144586022D01*
X137343129Y-144615352D01*
X137444586Y-144698614D01*
X137499603Y-144765654D01*
X137557178Y-144835809D01*
X137557179Y-144835811D01*
X137640843Y-144992333D01*
X137657248Y-145046413D01*
X137692363Y-145162173D01*
X137709759Y-145338800D01*
X137692363Y-145515427D01*
X137658016Y-145628653D01*
X137640843Y-145685267D01*
X137566748Y-145823887D01*
X137557178Y-145841791D01*
X137527848Y-145877529D01*
X137444586Y-145978986D01*
X137343129Y-146062248D01*
X137307391Y-146091578D01*
X137307389Y-146091579D01*
X137150867Y-146175243D01*
X137094253Y-146192416D01*
X136981027Y-146226763D01*
X136914843Y-146233281D01*
X136848660Y-146239800D01*
X136760140Y-146239800D01*
X136693957Y-146233281D01*
X136627773Y-146226763D01*
X136514547Y-146192416D01*
X136457933Y-146175243D01*
X136301411Y-146091579D01*
X136301409Y-146091578D01*
X136265671Y-146062248D01*
X136164214Y-145978986D01*
X136080952Y-145877529D01*
X136051622Y-145841791D01*
X136042052Y-145823887D01*
X135967957Y-145685267D01*
X135950784Y-145628653D01*
X135916437Y-145515427D01*
X135899041Y-145338800D01*
X135916437Y-145162173D01*
X135951552Y-145046413D01*
X135967957Y-144992333D01*
X136051621Y-144835811D01*
X136051622Y-144835809D01*
X136109197Y-144765654D01*
X136164214Y-144698614D01*
X136265671Y-144615352D01*
X136301409Y-144586022D01*
X136319313Y-144576452D01*
X136457933Y-144502357D01*
X136514547Y-144485184D01*
X136627773Y-144450837D01*
X136693958Y-144444318D01*
X136760140Y-144437800D01*
X136848660Y-144437800D01*
X136914842Y-144444318D01*
X136914842Y-144444318D01*
G37*
G36*
X196818856Y-142155298D02*
X196925179Y-142176447D01*
X197225642Y-142300903D01*
X197492452Y-142479180D01*
X197496054Y-142481587D01*
X197726013Y-142711546D01*
X197726015Y-142711549D01*
X197872755Y-142931160D01*
X197906698Y-142981960D01*
X198031153Y-143282422D01*
X198094600Y-143601389D01*
X198094600Y-143926611D01*
X198031153Y-144245578D01*
X197906698Y-144546040D01*
X197726013Y-144816454D01*
X197496054Y-145046413D01*
X197496051Y-145046415D01*
X197225642Y-145227097D01*
X196925179Y-145351553D01*
X196861598Y-145364200D01*
X196606211Y-145415000D01*
X196280989Y-145415000D01*
X196025602Y-145364200D01*
X195962021Y-145351553D01*
X195661558Y-145227097D01*
X195391149Y-145046415D01*
X195391146Y-145046413D01*
X195161187Y-144816454D01*
X194980502Y-144546040D01*
X194856047Y-144245578D01*
X194792600Y-143926611D01*
X194792600Y-143601389D01*
X194856047Y-143282422D01*
X194980502Y-142981960D01*
X195014446Y-142931160D01*
X195161185Y-142711549D01*
X195161187Y-142711546D01*
X195391146Y-142481587D01*
X195394748Y-142479180D01*
X195661558Y-142300903D01*
X195962021Y-142176447D01*
X196068344Y-142155298D01*
X196280989Y-142113000D01*
X196606211Y-142113000D01*
X196818856Y-142155298D01*
X196818856Y-142155298D01*
G37*
G36*
X103956456Y-142104498D02*
X104062779Y-142125647D01*
X104363242Y-142250103D01*
X104439268Y-142300902D01*
X104633654Y-142430787D01*
X104863613Y-142660746D01*
X105044298Y-142931160D01*
X105168753Y-143231622D01*
X105232200Y-143550589D01*
X105232200Y-143875811D01*
X105222095Y-143926611D01*
X105168753Y-144194779D01*
X105044297Y-144495242D01*
X104908408Y-144698614D01*
X104863613Y-144765654D01*
X104633654Y-144995613D01*
X104633651Y-144995615D01*
X104363242Y-145176297D01*
X104062779Y-145300753D01*
X103956456Y-145321902D01*
X103743811Y-145364200D01*
X103418589Y-145364200D01*
X103205944Y-145321902D01*
X103099621Y-145300753D01*
X102799158Y-145176297D01*
X102528749Y-144995615D01*
X102528746Y-144995613D01*
X102298787Y-144765654D01*
X102253992Y-144698614D01*
X102118103Y-144495242D01*
X101993647Y-144194779D01*
X101940305Y-143926611D01*
X101930200Y-143875811D01*
X101930200Y-143550589D01*
X101993647Y-143231622D01*
X102118102Y-142931160D01*
X102298787Y-142660746D01*
X102528746Y-142430787D01*
X102723132Y-142300902D01*
X102799158Y-142250103D01*
X103099621Y-142125647D01*
X103205944Y-142104498D01*
X103418589Y-142062200D01*
X103743811Y-142062200D01*
X103956456Y-142104498D01*
X103956456Y-142104498D01*
G37*
G36*
X191128800Y-144527400D02*
X188526800Y-144527400D01*
X188526800Y-143225400D01*
X191128800Y-143225400D01*
X191128800Y-144527400D01*
X191128800Y-144527400D01*
G37*
G36*
X185628800Y-144527400D02*
X183026800Y-144527400D01*
X183026800Y-143225400D01*
X185628800Y-143225400D01*
X185628800Y-144527400D01*
X185628800Y-144527400D01*
G37*
G36*
X191128800Y-142027400D02*
X188526800Y-142027400D01*
X188526800Y-140725400D01*
X191128800Y-140725400D01*
X191128800Y-142027400D01*
X191128800Y-142027400D01*
G37*
G36*
X185628800Y-142027400D02*
X183026800Y-142027400D01*
X183026800Y-140725400D01*
X185628800Y-140725400D01*
X185628800Y-142027400D01*
X185628800Y-142027400D01*
G37*
G36*
X155497391Y-140510985D02*
X155531369Y-140521293D01*
X155562687Y-140538033D01*
X155590139Y-140560561D01*
X155612667Y-140588013D01*
X155629407Y-140619331D01*
X155639715Y-140653309D01*
X155643800Y-140694790D01*
X155643800Y-141296010D01*
X155639715Y-141337491D01*
X155629407Y-141371469D01*
X155612667Y-141402787D01*
X155590139Y-141430239D01*
X155562687Y-141452767D01*
X155531369Y-141469507D01*
X155497391Y-141479815D01*
X155455910Y-141483900D01*
X154779690Y-141483900D01*
X154738209Y-141479815D01*
X154704231Y-141469507D01*
X154672913Y-141452767D01*
X154645461Y-141430239D01*
X154622933Y-141402787D01*
X154606193Y-141371469D01*
X154595885Y-141337491D01*
X154591800Y-141296010D01*
X154591800Y-140694790D01*
X154595885Y-140653309D01*
X154606193Y-140619331D01*
X154622933Y-140588013D01*
X154645461Y-140560561D01*
X154672913Y-140538033D01*
X154704231Y-140521293D01*
X154738209Y-140510985D01*
X154779690Y-140506900D01*
X155455910Y-140506900D01*
X155497391Y-140510985D01*
X155497391Y-140510985D01*
G37*
G36*
X160297991Y-140460385D02*
X160331969Y-140470693D01*
X160363287Y-140487433D01*
X160390739Y-140509961D01*
X160413267Y-140537413D01*
X160430007Y-140568731D01*
X160440315Y-140602709D01*
X160444400Y-140644190D01*
X160444400Y-141245410D01*
X160440315Y-141286891D01*
X160430007Y-141320869D01*
X160413267Y-141352187D01*
X160390739Y-141379639D01*
X160363287Y-141402167D01*
X160331969Y-141418907D01*
X160297991Y-141429215D01*
X160256510Y-141433300D01*
X159580290Y-141433300D01*
X159538809Y-141429215D01*
X159504831Y-141418907D01*
X159473513Y-141402167D01*
X159446061Y-141379639D01*
X159423533Y-141352187D01*
X159406793Y-141320869D01*
X159396485Y-141286891D01*
X159392400Y-141245410D01*
X159392400Y-140644190D01*
X159396485Y-140602709D01*
X159406793Y-140568731D01*
X159423533Y-140537413D01*
X159446061Y-140509961D01*
X159473513Y-140487433D01*
X159504831Y-140470693D01*
X159538809Y-140460385D01*
X159580290Y-140456300D01*
X160256510Y-140456300D01*
X160297991Y-140460385D01*
X160297991Y-140460385D01*
G37*
G36*
X164844591Y-140282585D02*
X164878569Y-140292893D01*
X164909887Y-140309633D01*
X164937339Y-140332161D01*
X164959867Y-140359613D01*
X164976607Y-140390931D01*
X164986915Y-140424909D01*
X164991000Y-140466390D01*
X164991000Y-141067610D01*
X164986915Y-141109091D01*
X164976607Y-141143069D01*
X164959867Y-141174387D01*
X164937339Y-141201839D01*
X164909887Y-141224367D01*
X164878569Y-141241107D01*
X164844591Y-141251415D01*
X164803110Y-141255500D01*
X164126890Y-141255500D01*
X164085409Y-141251415D01*
X164051431Y-141241107D01*
X164020113Y-141224367D01*
X163992661Y-141201839D01*
X163970133Y-141174387D01*
X163953393Y-141143069D01*
X163943085Y-141109091D01*
X163939000Y-141067610D01*
X163939000Y-140466390D01*
X163943085Y-140424909D01*
X163953393Y-140390931D01*
X163970133Y-140359613D01*
X163992661Y-140332161D01*
X164020113Y-140309633D01*
X164051431Y-140292893D01*
X164085409Y-140282585D01*
X164126890Y-140278500D01*
X164803110Y-140278500D01*
X164844591Y-140282585D01*
X164844591Y-140282585D01*
G37*
G36*
X169238791Y-140256985D02*
X169272769Y-140267293D01*
X169304087Y-140284033D01*
X169331539Y-140306561D01*
X169354067Y-140334013D01*
X169370807Y-140365331D01*
X169381115Y-140399309D01*
X169385200Y-140440790D01*
X169385200Y-141042010D01*
X169381115Y-141083491D01*
X169370807Y-141117469D01*
X169354067Y-141148787D01*
X169331539Y-141176239D01*
X169304087Y-141198767D01*
X169272769Y-141215507D01*
X169238791Y-141225815D01*
X169197310Y-141229900D01*
X168521090Y-141229900D01*
X168479609Y-141225815D01*
X168445631Y-141215507D01*
X168414313Y-141198767D01*
X168386861Y-141176239D01*
X168364333Y-141148787D01*
X168347593Y-141117469D01*
X168337285Y-141083491D01*
X168333200Y-141042010D01*
X168333200Y-140440790D01*
X168337285Y-140399309D01*
X168347593Y-140365331D01*
X168364333Y-140334013D01*
X168386861Y-140306561D01*
X168414313Y-140284033D01*
X168445631Y-140267293D01*
X168479609Y-140256985D01*
X168521090Y-140252900D01*
X169197310Y-140252900D01*
X169238791Y-140256985D01*
X169238791Y-140256985D01*
G37*
G36*
X144803991Y-139723585D02*
X144837969Y-139733893D01*
X144869287Y-139750633D01*
X144896739Y-139773161D01*
X144919267Y-139800613D01*
X144936007Y-139831931D01*
X144946315Y-139865909D01*
X144950400Y-139907390D01*
X144950400Y-140508610D01*
X144946315Y-140550091D01*
X144936007Y-140584069D01*
X144919267Y-140615387D01*
X144896739Y-140642839D01*
X144869287Y-140665367D01*
X144837969Y-140682107D01*
X144803991Y-140692415D01*
X144762510Y-140696500D01*
X144086290Y-140696500D01*
X144044809Y-140692415D01*
X144010831Y-140682107D01*
X143979513Y-140665367D01*
X143952061Y-140642839D01*
X143929533Y-140615387D01*
X143912793Y-140584069D01*
X143902485Y-140550091D01*
X143898400Y-140508610D01*
X143898400Y-139907390D01*
X143902485Y-139865909D01*
X143912793Y-139831931D01*
X143929533Y-139800613D01*
X143952061Y-139773161D01*
X143979513Y-139750633D01*
X144010831Y-139733893D01*
X144044809Y-139723585D01*
X144086290Y-139719500D01*
X144762510Y-139719500D01*
X144803991Y-139723585D01*
X144803991Y-139723585D01*
G37*
G36*
X155497391Y-138935985D02*
X155531369Y-138946293D01*
X155562687Y-138963033D01*
X155590139Y-138985561D01*
X155612667Y-139013013D01*
X155629407Y-139044331D01*
X155639715Y-139078309D01*
X155643800Y-139119790D01*
X155643800Y-139721010D01*
X155639715Y-139762491D01*
X155629407Y-139796469D01*
X155612667Y-139827787D01*
X155590139Y-139855239D01*
X155562687Y-139877767D01*
X155531369Y-139894507D01*
X155497391Y-139904815D01*
X155455910Y-139908900D01*
X154779690Y-139908900D01*
X154738209Y-139904815D01*
X154704231Y-139894507D01*
X154672913Y-139877767D01*
X154645461Y-139855239D01*
X154622933Y-139827787D01*
X154606193Y-139796469D01*
X154595885Y-139762491D01*
X154591800Y-139721010D01*
X154591800Y-139119790D01*
X154595885Y-139078309D01*
X154606193Y-139044331D01*
X154622933Y-139013013D01*
X154645461Y-138985561D01*
X154672913Y-138963033D01*
X154704231Y-138946293D01*
X154738209Y-138935985D01*
X154779690Y-138931900D01*
X155455910Y-138931900D01*
X155497391Y-138935985D01*
X155497391Y-138935985D01*
G37*
G36*
X160297991Y-138885385D02*
X160331969Y-138895693D01*
X160363287Y-138912433D01*
X160390739Y-138934961D01*
X160413267Y-138962413D01*
X160430007Y-138993731D01*
X160440315Y-139027709D01*
X160444400Y-139069190D01*
X160444400Y-139670410D01*
X160440315Y-139711891D01*
X160430007Y-139745869D01*
X160413267Y-139777187D01*
X160390739Y-139804639D01*
X160363287Y-139827167D01*
X160331969Y-139843907D01*
X160297991Y-139854215D01*
X160256510Y-139858300D01*
X159580290Y-139858300D01*
X159538809Y-139854215D01*
X159504831Y-139843907D01*
X159473513Y-139827167D01*
X159446061Y-139804639D01*
X159423533Y-139777187D01*
X159406793Y-139745869D01*
X159396485Y-139711891D01*
X159392400Y-139670410D01*
X159392400Y-139069190D01*
X159396485Y-139027709D01*
X159406793Y-138993731D01*
X159423533Y-138962413D01*
X159446061Y-138934961D01*
X159473513Y-138912433D01*
X159504831Y-138895693D01*
X159538809Y-138885385D01*
X159580290Y-138881300D01*
X160256510Y-138881300D01*
X160297991Y-138885385D01*
X160297991Y-138885385D01*
G37*
G36*
X164844591Y-138707585D02*
X164878569Y-138717893D01*
X164909887Y-138734633D01*
X164937339Y-138757161D01*
X164959867Y-138784613D01*
X164976607Y-138815931D01*
X164986915Y-138849909D01*
X164991000Y-138891390D01*
X164991000Y-139492610D01*
X164986915Y-139534091D01*
X164976607Y-139568069D01*
X164959867Y-139599387D01*
X164937339Y-139626839D01*
X164909887Y-139649367D01*
X164878569Y-139666107D01*
X164844591Y-139676415D01*
X164803110Y-139680500D01*
X164126890Y-139680500D01*
X164085409Y-139676415D01*
X164051431Y-139666107D01*
X164020113Y-139649367D01*
X163992661Y-139626839D01*
X163970133Y-139599387D01*
X163953393Y-139568069D01*
X163943085Y-139534091D01*
X163939000Y-139492610D01*
X163939000Y-138891390D01*
X163943085Y-138849909D01*
X163953393Y-138815931D01*
X163970133Y-138784613D01*
X163992661Y-138757161D01*
X164020113Y-138734633D01*
X164051431Y-138717893D01*
X164085409Y-138707585D01*
X164126890Y-138703500D01*
X164803110Y-138703500D01*
X164844591Y-138707585D01*
X164844591Y-138707585D01*
G37*
G36*
X169238791Y-138681985D02*
X169272769Y-138692293D01*
X169304087Y-138709033D01*
X169331539Y-138731561D01*
X169354067Y-138759013D01*
X169370807Y-138790331D01*
X169381115Y-138824309D01*
X169385200Y-138865790D01*
X169385200Y-139467010D01*
X169381115Y-139508491D01*
X169370807Y-139542469D01*
X169354067Y-139573787D01*
X169331539Y-139601239D01*
X169304087Y-139623767D01*
X169272769Y-139640507D01*
X169238791Y-139650815D01*
X169197310Y-139654900D01*
X168521090Y-139654900D01*
X168479609Y-139650815D01*
X168445631Y-139640507D01*
X168414313Y-139623767D01*
X168386861Y-139601239D01*
X168364333Y-139573787D01*
X168347593Y-139542469D01*
X168337285Y-139508491D01*
X168333200Y-139467010D01*
X168333200Y-138865790D01*
X168337285Y-138824309D01*
X168347593Y-138790331D01*
X168364333Y-138759013D01*
X168386861Y-138731561D01*
X168414313Y-138709033D01*
X168445631Y-138692293D01*
X168479609Y-138681985D01*
X168521090Y-138677900D01*
X169197310Y-138677900D01*
X169238791Y-138681985D01*
X169238791Y-138681985D01*
G37*
G36*
X191128800Y-139527400D02*
X188526800Y-139527400D01*
X188526800Y-138225400D01*
X191128800Y-138225400D01*
X191128800Y-139527400D01*
X191128800Y-139527400D01*
G37*
G36*
X185628800Y-139527400D02*
X183026800Y-139527400D01*
X183026800Y-138225400D01*
X185628800Y-138225400D01*
X185628800Y-139527400D01*
X185628800Y-139527400D01*
G37*
G36*
X144803991Y-138148585D02*
X144837969Y-138158893D01*
X144869287Y-138175633D01*
X144896739Y-138198161D01*
X144919267Y-138225613D01*
X144936007Y-138256931D01*
X144946315Y-138290909D01*
X144950400Y-138332390D01*
X144950400Y-138933610D01*
X144946315Y-138975091D01*
X144936007Y-139009069D01*
X144919267Y-139040387D01*
X144896739Y-139067839D01*
X144869287Y-139090367D01*
X144837969Y-139107107D01*
X144803991Y-139117415D01*
X144762510Y-139121500D01*
X144086290Y-139121500D01*
X144044809Y-139117415D01*
X144010831Y-139107107D01*
X143979513Y-139090367D01*
X143952061Y-139067839D01*
X143929533Y-139040387D01*
X143912793Y-139009069D01*
X143902485Y-138975091D01*
X143898400Y-138933610D01*
X143898400Y-138332390D01*
X143902485Y-138290909D01*
X143912793Y-138256931D01*
X143929533Y-138225613D01*
X143952061Y-138198161D01*
X143979513Y-138175633D01*
X144010831Y-138158893D01*
X144044809Y-138148585D01*
X144086290Y-138144500D01*
X144762510Y-138144500D01*
X144803991Y-138148585D01*
X144803991Y-138148585D01*
G37*
G36*
X164869991Y-134796085D02*
X164903969Y-134806393D01*
X164935287Y-134823133D01*
X164962739Y-134845661D01*
X164985267Y-134873113D01*
X165002007Y-134904431D01*
X165012315Y-134938409D01*
X165016400Y-134979890D01*
X165016400Y-135581110D01*
X165012315Y-135622591D01*
X165002007Y-135656569D01*
X164985267Y-135687887D01*
X164962739Y-135715339D01*
X164935287Y-135737867D01*
X164903969Y-135754607D01*
X164869991Y-135764915D01*
X164828510Y-135769000D01*
X164152290Y-135769000D01*
X164110809Y-135764915D01*
X164076831Y-135754607D01*
X164045513Y-135737867D01*
X164018061Y-135715339D01*
X163995533Y-135687887D01*
X163978793Y-135656569D01*
X163968485Y-135622591D01*
X163964400Y-135581110D01*
X163964400Y-134979890D01*
X163968485Y-134938409D01*
X163978793Y-134904431D01*
X163995533Y-134873113D01*
X164018061Y-134845661D01*
X164045513Y-134823133D01*
X164076831Y-134806393D01*
X164110809Y-134796085D01*
X164152290Y-134792000D01*
X164828510Y-134792000D01*
X164869991Y-134796085D01*
X164869991Y-134796085D01*
G37*
G36*
X155497391Y-134770685D02*
X155531369Y-134780993D01*
X155562687Y-134797733D01*
X155590139Y-134820261D01*
X155612667Y-134847713D01*
X155629407Y-134879031D01*
X155639715Y-134913009D01*
X155643800Y-134954490D01*
X155643800Y-135555710D01*
X155639715Y-135597191D01*
X155629407Y-135631169D01*
X155612667Y-135662487D01*
X155590139Y-135689939D01*
X155562687Y-135712467D01*
X155531369Y-135729207D01*
X155497391Y-135739515D01*
X155455910Y-135743600D01*
X154779690Y-135743600D01*
X154738209Y-135739515D01*
X154704231Y-135729207D01*
X154672913Y-135712467D01*
X154645461Y-135689939D01*
X154622933Y-135662487D01*
X154606193Y-135631169D01*
X154595885Y-135597191D01*
X154591800Y-135555710D01*
X154591800Y-134954490D01*
X154595885Y-134913009D01*
X154606193Y-134879031D01*
X154622933Y-134847713D01*
X154645461Y-134820261D01*
X154672913Y-134797733D01*
X154704231Y-134780993D01*
X154738209Y-134770685D01*
X154779690Y-134766600D01*
X155455910Y-134766600D01*
X155497391Y-134770685D01*
X155497391Y-134770685D01*
G37*
G36*
X178255791Y-134745385D02*
X178289769Y-134755693D01*
X178321087Y-134772433D01*
X178348539Y-134794961D01*
X178371067Y-134822413D01*
X178387807Y-134853731D01*
X178398115Y-134887709D01*
X178402200Y-134929190D01*
X178402200Y-135530410D01*
X178398115Y-135571891D01*
X178387807Y-135605869D01*
X178371067Y-135637187D01*
X178348539Y-135664639D01*
X178321087Y-135687167D01*
X178289769Y-135703907D01*
X178255791Y-135714215D01*
X178214310Y-135718300D01*
X177538090Y-135718300D01*
X177496609Y-135714215D01*
X177462631Y-135703907D01*
X177431313Y-135687167D01*
X177403861Y-135664639D01*
X177381333Y-135637187D01*
X177364593Y-135605869D01*
X177354285Y-135571891D01*
X177350200Y-135530410D01*
X177350200Y-134929190D01*
X177354285Y-134887709D01*
X177364593Y-134853731D01*
X177381333Y-134822413D01*
X177403861Y-134794961D01*
X177431313Y-134772433D01*
X177462631Y-134755693D01*
X177496609Y-134745385D01*
X177538090Y-134741300D01*
X178214310Y-134741300D01*
X178255791Y-134745385D01*
X178255791Y-134745385D01*
G37*
G36*
X169238791Y-134745285D02*
X169272769Y-134755593D01*
X169304087Y-134772333D01*
X169331539Y-134794861D01*
X169354067Y-134822313D01*
X169370807Y-134853631D01*
X169381115Y-134887609D01*
X169385200Y-134929090D01*
X169385200Y-135530310D01*
X169381115Y-135571791D01*
X169370807Y-135605769D01*
X169354067Y-135637087D01*
X169331539Y-135664539D01*
X169304087Y-135687067D01*
X169272769Y-135703807D01*
X169238791Y-135714115D01*
X169197310Y-135718200D01*
X168521090Y-135718200D01*
X168479609Y-135714115D01*
X168445631Y-135703807D01*
X168414313Y-135687067D01*
X168386861Y-135664539D01*
X168364333Y-135637087D01*
X168347593Y-135605769D01*
X168337285Y-135571791D01*
X168333200Y-135530310D01*
X168333200Y-134929090D01*
X168337285Y-134887609D01*
X168347593Y-134853631D01*
X168364333Y-134822313D01*
X168386861Y-134794861D01*
X168414313Y-134772333D01*
X168445631Y-134755593D01*
X168479609Y-134745285D01*
X168521090Y-134741200D01*
X169197310Y-134741200D01*
X169238791Y-134745285D01*
X169238791Y-134745285D01*
G37*
G36*
X160272591Y-134745185D02*
X160306569Y-134755493D01*
X160337887Y-134772233D01*
X160365339Y-134794761D01*
X160387867Y-134822213D01*
X160404607Y-134853531D01*
X160414915Y-134887509D01*
X160419000Y-134928990D01*
X160419000Y-135530210D01*
X160414915Y-135571691D01*
X160404607Y-135605669D01*
X160387867Y-135636987D01*
X160365339Y-135664439D01*
X160337887Y-135686967D01*
X160306569Y-135703707D01*
X160272591Y-135714015D01*
X160231110Y-135718100D01*
X159554890Y-135718100D01*
X159513409Y-135714015D01*
X159479431Y-135703707D01*
X159448113Y-135686967D01*
X159420661Y-135664439D01*
X159398133Y-135636987D01*
X159381393Y-135605669D01*
X159371085Y-135571691D01*
X159367000Y-135530210D01*
X159367000Y-134928990D01*
X159371085Y-134887509D01*
X159381393Y-134853531D01*
X159398133Y-134822213D01*
X159420661Y-134794761D01*
X159448113Y-134772233D01*
X159479431Y-134755493D01*
X159513409Y-134745185D01*
X159554890Y-134741100D01*
X160231110Y-134741100D01*
X160272591Y-134745185D01*
X160272591Y-134745185D01*
G37*
G36*
X173734591Y-134745185D02*
X173768569Y-134755493D01*
X173799887Y-134772233D01*
X173827339Y-134794761D01*
X173849867Y-134822213D01*
X173866607Y-134853531D01*
X173876915Y-134887509D01*
X173881000Y-134928990D01*
X173881000Y-135530210D01*
X173876915Y-135571691D01*
X173866607Y-135605669D01*
X173849867Y-135636987D01*
X173827339Y-135664439D01*
X173799887Y-135686967D01*
X173768569Y-135703707D01*
X173734591Y-135714015D01*
X173693110Y-135718100D01*
X173016890Y-135718100D01*
X172975409Y-135714015D01*
X172941431Y-135703707D01*
X172910113Y-135686967D01*
X172882661Y-135664439D01*
X172860133Y-135636987D01*
X172843393Y-135605669D01*
X172833085Y-135571691D01*
X172829000Y-135530210D01*
X172829000Y-134928990D01*
X172833085Y-134887509D01*
X172843393Y-134853531D01*
X172860133Y-134822213D01*
X172882661Y-134794761D01*
X172910113Y-134772233D01*
X172941431Y-134755493D01*
X172975409Y-134745185D01*
X173016890Y-134741100D01*
X173693110Y-134741100D01*
X173734591Y-134745185D01*
X173734591Y-134745185D01*
G37*
G36*
X182446791Y-134719885D02*
X182480769Y-134730193D01*
X182512087Y-134746933D01*
X182539539Y-134769461D01*
X182562067Y-134796913D01*
X182578807Y-134828231D01*
X182589115Y-134862209D01*
X182593200Y-134903690D01*
X182593200Y-135504910D01*
X182589115Y-135546391D01*
X182578807Y-135580369D01*
X182562067Y-135611687D01*
X182539539Y-135639139D01*
X182512087Y-135661667D01*
X182480769Y-135678407D01*
X182446791Y-135688715D01*
X182405310Y-135692800D01*
X181729090Y-135692800D01*
X181687609Y-135688715D01*
X181653631Y-135678407D01*
X181622313Y-135661667D01*
X181594861Y-135639139D01*
X181572333Y-135611687D01*
X181555593Y-135580369D01*
X181545285Y-135546391D01*
X181541200Y-135504910D01*
X181541200Y-134903690D01*
X181545285Y-134862209D01*
X181555593Y-134828231D01*
X181572333Y-134796913D01*
X181594861Y-134769461D01*
X181622313Y-134746933D01*
X181653631Y-134730193D01*
X181687609Y-134719885D01*
X181729090Y-134715800D01*
X182405310Y-134715800D01*
X182446791Y-134719885D01*
X182446791Y-134719885D01*
G37*
G36*
X186485391Y-134567385D02*
X186519369Y-134577693D01*
X186550687Y-134594433D01*
X186578139Y-134616961D01*
X186600667Y-134644413D01*
X186617407Y-134675731D01*
X186627715Y-134709709D01*
X186631800Y-134751190D01*
X186631800Y-135352410D01*
X186627715Y-135393891D01*
X186617407Y-135427869D01*
X186600667Y-135459187D01*
X186578139Y-135486639D01*
X186550687Y-135509167D01*
X186519369Y-135525907D01*
X186485391Y-135536215D01*
X186443910Y-135540300D01*
X185767690Y-135540300D01*
X185726209Y-135536215D01*
X185692231Y-135525907D01*
X185660913Y-135509167D01*
X185633461Y-135486639D01*
X185610933Y-135459187D01*
X185594193Y-135427869D01*
X185583885Y-135393891D01*
X185579800Y-135352410D01*
X185579800Y-134751190D01*
X185583885Y-134709709D01*
X185594193Y-134675731D01*
X185610933Y-134644413D01*
X185633461Y-134616961D01*
X185660913Y-134594433D01*
X185692231Y-134577693D01*
X185726209Y-134567385D01*
X185767690Y-134563300D01*
X186443910Y-134563300D01*
X186485391Y-134567385D01*
X186485391Y-134567385D01*
G37*
G36*
X194867391Y-134465785D02*
X194901369Y-134476093D01*
X194932687Y-134492833D01*
X194960139Y-134515361D01*
X194982667Y-134542813D01*
X194999407Y-134574131D01*
X195009715Y-134608109D01*
X195013800Y-134649590D01*
X195013800Y-135250810D01*
X195009715Y-135292291D01*
X194999407Y-135326269D01*
X194982667Y-135357587D01*
X194960139Y-135385039D01*
X194932687Y-135407567D01*
X194901369Y-135424307D01*
X194867391Y-135434615D01*
X194825910Y-135438700D01*
X194149690Y-135438700D01*
X194108209Y-135434615D01*
X194074231Y-135424307D01*
X194042913Y-135407567D01*
X194015461Y-135385039D01*
X193992933Y-135357587D01*
X193976193Y-135326269D01*
X193965885Y-135292291D01*
X193961800Y-135250810D01*
X193961800Y-134649590D01*
X193965885Y-134608109D01*
X193976193Y-134574131D01*
X193992933Y-134542813D01*
X194015461Y-134515361D01*
X194042913Y-134492833D01*
X194074231Y-134476093D01*
X194108209Y-134465785D01*
X194149690Y-134461700D01*
X194825910Y-134461700D01*
X194867391Y-134465785D01*
X194867391Y-134465785D01*
G37*
G36*
X190574791Y-134414985D02*
X190608769Y-134425293D01*
X190640087Y-134442033D01*
X190667539Y-134464561D01*
X190690067Y-134492013D01*
X190706807Y-134523331D01*
X190717115Y-134557309D01*
X190721200Y-134598790D01*
X190721200Y-135200010D01*
X190717115Y-135241491D01*
X190706807Y-135275469D01*
X190690067Y-135306787D01*
X190667539Y-135334239D01*
X190640087Y-135356767D01*
X190608769Y-135373507D01*
X190574791Y-135383815D01*
X190533310Y-135387900D01*
X189857090Y-135387900D01*
X189815609Y-135383815D01*
X189781631Y-135373507D01*
X189750313Y-135356767D01*
X189722861Y-135334239D01*
X189700333Y-135306787D01*
X189683593Y-135275469D01*
X189673285Y-135241491D01*
X189669200Y-135200010D01*
X189669200Y-134598790D01*
X189673285Y-134557309D01*
X189683593Y-134523331D01*
X189700333Y-134492013D01*
X189722861Y-134464561D01*
X189750313Y-134442033D01*
X189781631Y-134425293D01*
X189815609Y-134414985D01*
X189857090Y-134410900D01*
X190533310Y-134410900D01*
X190574791Y-134414985D01*
X190574791Y-134414985D01*
G37*
G36*
X164869991Y-133221085D02*
X164903969Y-133231393D01*
X164935287Y-133248133D01*
X164962739Y-133270661D01*
X164985267Y-133298113D01*
X165002007Y-133329431D01*
X165012315Y-133363409D01*
X165016400Y-133404890D01*
X165016400Y-134006110D01*
X165012315Y-134047591D01*
X165002007Y-134081569D01*
X164985267Y-134112887D01*
X164962739Y-134140339D01*
X164935287Y-134162867D01*
X164903969Y-134179607D01*
X164869991Y-134189915D01*
X164828510Y-134194000D01*
X164152290Y-134194000D01*
X164110809Y-134189915D01*
X164076831Y-134179607D01*
X164045513Y-134162867D01*
X164018061Y-134140339D01*
X163995533Y-134112887D01*
X163978793Y-134081569D01*
X163968485Y-134047591D01*
X163964400Y-134006110D01*
X163964400Y-133404890D01*
X163968485Y-133363409D01*
X163978793Y-133329431D01*
X163995533Y-133298113D01*
X164018061Y-133270661D01*
X164045513Y-133248133D01*
X164076831Y-133231393D01*
X164110809Y-133221085D01*
X164152290Y-133217000D01*
X164828510Y-133217000D01*
X164869991Y-133221085D01*
X164869991Y-133221085D01*
G37*
G36*
X155497391Y-133195685D02*
X155531369Y-133205993D01*
X155562687Y-133222733D01*
X155590139Y-133245261D01*
X155612667Y-133272713D01*
X155629407Y-133304031D01*
X155639715Y-133338009D01*
X155643800Y-133379490D01*
X155643800Y-133980710D01*
X155639715Y-134022191D01*
X155629407Y-134056169D01*
X155612667Y-134087487D01*
X155590139Y-134114939D01*
X155562687Y-134137467D01*
X155531369Y-134154207D01*
X155497391Y-134164515D01*
X155455910Y-134168600D01*
X154779690Y-134168600D01*
X154738209Y-134164515D01*
X154704231Y-134154207D01*
X154672913Y-134137467D01*
X154645461Y-134114939D01*
X154622933Y-134087487D01*
X154606193Y-134056169D01*
X154595885Y-134022191D01*
X154591800Y-133980710D01*
X154591800Y-133379490D01*
X154595885Y-133338009D01*
X154606193Y-133304031D01*
X154622933Y-133272713D01*
X154645461Y-133245261D01*
X154672913Y-133222733D01*
X154704231Y-133205993D01*
X154738209Y-133195685D01*
X154779690Y-133191600D01*
X155455910Y-133191600D01*
X155497391Y-133195685D01*
X155497391Y-133195685D01*
G37*
G36*
X178255791Y-133170385D02*
X178289769Y-133180693D01*
X178321087Y-133197433D01*
X178348539Y-133219961D01*
X178371067Y-133247413D01*
X178387807Y-133278731D01*
X178398115Y-133312709D01*
X178402200Y-133354190D01*
X178402200Y-133955410D01*
X178398115Y-133996891D01*
X178387807Y-134030869D01*
X178371067Y-134062187D01*
X178348539Y-134089639D01*
X178321087Y-134112167D01*
X178289769Y-134128907D01*
X178255791Y-134139215D01*
X178214310Y-134143300D01*
X177538090Y-134143300D01*
X177496609Y-134139215D01*
X177462631Y-134128907D01*
X177431313Y-134112167D01*
X177403861Y-134089639D01*
X177381333Y-134062187D01*
X177364593Y-134030869D01*
X177354285Y-133996891D01*
X177350200Y-133955410D01*
X177350200Y-133354190D01*
X177354285Y-133312709D01*
X177364593Y-133278731D01*
X177381333Y-133247413D01*
X177403861Y-133219961D01*
X177431313Y-133197433D01*
X177462631Y-133180693D01*
X177496609Y-133170385D01*
X177538090Y-133166300D01*
X178214310Y-133166300D01*
X178255791Y-133170385D01*
X178255791Y-133170385D01*
G37*
G36*
X169238791Y-133170285D02*
X169272769Y-133180593D01*
X169304087Y-133197333D01*
X169331539Y-133219861D01*
X169354067Y-133247313D01*
X169370807Y-133278631D01*
X169381115Y-133312609D01*
X169385200Y-133354090D01*
X169385200Y-133955310D01*
X169381115Y-133996791D01*
X169370807Y-134030769D01*
X169354067Y-134062087D01*
X169331539Y-134089539D01*
X169304087Y-134112067D01*
X169272769Y-134128807D01*
X169238791Y-134139115D01*
X169197310Y-134143200D01*
X168521090Y-134143200D01*
X168479609Y-134139115D01*
X168445631Y-134128807D01*
X168414313Y-134112067D01*
X168386861Y-134089539D01*
X168364333Y-134062087D01*
X168347593Y-134030769D01*
X168337285Y-133996791D01*
X168333200Y-133955310D01*
X168333200Y-133354090D01*
X168337285Y-133312609D01*
X168347593Y-133278631D01*
X168364333Y-133247313D01*
X168386861Y-133219861D01*
X168414313Y-133197333D01*
X168445631Y-133180593D01*
X168479609Y-133170285D01*
X168521090Y-133166200D01*
X169197310Y-133166200D01*
X169238791Y-133170285D01*
X169238791Y-133170285D01*
G37*
G36*
X173734591Y-133170185D02*
X173768569Y-133180493D01*
X173799887Y-133197233D01*
X173827339Y-133219761D01*
X173849867Y-133247213D01*
X173866607Y-133278531D01*
X173876915Y-133312509D01*
X173881000Y-133353990D01*
X173881000Y-133955210D01*
X173876915Y-133996691D01*
X173866607Y-134030669D01*
X173849867Y-134061987D01*
X173827339Y-134089439D01*
X173799887Y-134111967D01*
X173768569Y-134128707D01*
X173734591Y-134139015D01*
X173693110Y-134143100D01*
X173016890Y-134143100D01*
X172975409Y-134139015D01*
X172941431Y-134128707D01*
X172910113Y-134111967D01*
X172882661Y-134089439D01*
X172860133Y-134061987D01*
X172843393Y-134030669D01*
X172833085Y-133996691D01*
X172829000Y-133955210D01*
X172829000Y-133353990D01*
X172833085Y-133312509D01*
X172843393Y-133278531D01*
X172860133Y-133247213D01*
X172882661Y-133219761D01*
X172910113Y-133197233D01*
X172941431Y-133180493D01*
X172975409Y-133170185D01*
X173016890Y-133166100D01*
X173693110Y-133166100D01*
X173734591Y-133170185D01*
X173734591Y-133170185D01*
G37*
G36*
X160272591Y-133170185D02*
X160306569Y-133180493D01*
X160337887Y-133197233D01*
X160365339Y-133219761D01*
X160387867Y-133247213D01*
X160404607Y-133278531D01*
X160414915Y-133312509D01*
X160419000Y-133353990D01*
X160419000Y-133955210D01*
X160414915Y-133996691D01*
X160404607Y-134030669D01*
X160387867Y-134061987D01*
X160365339Y-134089439D01*
X160337887Y-134111967D01*
X160306569Y-134128707D01*
X160272591Y-134139015D01*
X160231110Y-134143100D01*
X159554890Y-134143100D01*
X159513409Y-134139015D01*
X159479431Y-134128707D01*
X159448113Y-134111967D01*
X159420661Y-134089439D01*
X159398133Y-134061987D01*
X159381393Y-134030669D01*
X159371085Y-133996691D01*
X159367000Y-133955210D01*
X159367000Y-133353990D01*
X159371085Y-133312509D01*
X159381393Y-133278531D01*
X159398133Y-133247213D01*
X159420661Y-133219761D01*
X159448113Y-133197233D01*
X159479431Y-133180493D01*
X159513409Y-133170185D01*
X159554890Y-133166100D01*
X160231110Y-133166100D01*
X160272591Y-133170185D01*
X160272591Y-133170185D01*
G37*
G36*
X182446791Y-133144885D02*
X182480769Y-133155193D01*
X182512087Y-133171933D01*
X182539539Y-133194461D01*
X182562067Y-133221913D01*
X182578807Y-133253231D01*
X182589115Y-133287209D01*
X182593200Y-133328690D01*
X182593200Y-133929910D01*
X182589115Y-133971391D01*
X182578807Y-134005369D01*
X182562067Y-134036687D01*
X182539539Y-134064139D01*
X182512087Y-134086667D01*
X182480769Y-134103407D01*
X182446791Y-134113715D01*
X182405310Y-134117800D01*
X181729090Y-134117800D01*
X181687609Y-134113715D01*
X181653631Y-134103407D01*
X181622313Y-134086667D01*
X181594861Y-134064139D01*
X181572333Y-134036687D01*
X181555593Y-134005369D01*
X181545285Y-133971391D01*
X181541200Y-133929910D01*
X181541200Y-133328690D01*
X181545285Y-133287209D01*
X181555593Y-133253231D01*
X181572333Y-133221913D01*
X181594861Y-133194461D01*
X181622313Y-133171933D01*
X181653631Y-133155193D01*
X181687609Y-133144885D01*
X181729090Y-133140800D01*
X182405310Y-133140800D01*
X182446791Y-133144885D01*
X182446791Y-133144885D01*
G37*
G36*
X186485391Y-132992385D02*
X186519369Y-133002693D01*
X186550687Y-133019433D01*
X186578139Y-133041961D01*
X186600667Y-133069413D01*
X186617407Y-133100731D01*
X186627715Y-133134709D01*
X186631800Y-133176190D01*
X186631800Y-133777410D01*
X186627715Y-133818891D01*
X186617407Y-133852869D01*
X186600667Y-133884187D01*
X186578139Y-133911639D01*
X186550687Y-133934167D01*
X186519369Y-133950907D01*
X186485391Y-133961215D01*
X186443910Y-133965300D01*
X185767690Y-133965300D01*
X185726209Y-133961215D01*
X185692231Y-133950907D01*
X185660913Y-133934167D01*
X185633461Y-133911639D01*
X185610933Y-133884187D01*
X185594193Y-133852869D01*
X185583885Y-133818891D01*
X185579800Y-133777410D01*
X185579800Y-133176190D01*
X185583885Y-133134709D01*
X185594193Y-133100731D01*
X185610933Y-133069413D01*
X185633461Y-133041961D01*
X185660913Y-133019433D01*
X185692231Y-133002693D01*
X185726209Y-132992385D01*
X185767690Y-132988300D01*
X186443910Y-132988300D01*
X186485391Y-132992385D01*
X186485391Y-132992385D01*
G37*
G36*
X194867391Y-132890785D02*
X194901369Y-132901093D01*
X194932687Y-132917833D01*
X194960139Y-132940361D01*
X194982667Y-132967813D01*
X194999407Y-132999131D01*
X195009715Y-133033109D01*
X195013800Y-133074590D01*
X195013800Y-133675810D01*
X195009715Y-133717291D01*
X194999407Y-133751269D01*
X194982667Y-133782587D01*
X194960139Y-133810039D01*
X194932687Y-133832567D01*
X194901369Y-133849307D01*
X194867391Y-133859615D01*
X194825910Y-133863700D01*
X194149690Y-133863700D01*
X194108209Y-133859615D01*
X194074231Y-133849307D01*
X194042913Y-133832567D01*
X194015461Y-133810039D01*
X193992933Y-133782587D01*
X193976193Y-133751269D01*
X193965885Y-133717291D01*
X193961800Y-133675810D01*
X193961800Y-133074590D01*
X193965885Y-133033109D01*
X193976193Y-132999131D01*
X193992933Y-132967813D01*
X194015461Y-132940361D01*
X194042913Y-132917833D01*
X194074231Y-132901093D01*
X194108209Y-132890785D01*
X194149690Y-132886700D01*
X194825910Y-132886700D01*
X194867391Y-132890785D01*
X194867391Y-132890785D01*
G37*
G36*
X190574791Y-132839985D02*
X190608769Y-132850293D01*
X190640087Y-132867033D01*
X190667539Y-132889561D01*
X190690067Y-132917013D01*
X190706807Y-132948331D01*
X190717115Y-132982309D01*
X190721200Y-133023790D01*
X190721200Y-133625010D01*
X190717115Y-133666491D01*
X190706807Y-133700469D01*
X190690067Y-133731787D01*
X190667539Y-133759239D01*
X190640087Y-133781767D01*
X190608769Y-133798507D01*
X190574791Y-133808815D01*
X190533310Y-133812900D01*
X189857090Y-133812900D01*
X189815609Y-133808815D01*
X189781631Y-133798507D01*
X189750313Y-133781767D01*
X189722861Y-133759239D01*
X189700333Y-133731787D01*
X189683593Y-133700469D01*
X189673285Y-133666491D01*
X189669200Y-133625010D01*
X189669200Y-133023790D01*
X189673285Y-132982309D01*
X189683593Y-132948331D01*
X189700333Y-132917013D01*
X189722861Y-132889561D01*
X189750313Y-132867033D01*
X189781631Y-132850293D01*
X189815609Y-132839985D01*
X189857090Y-132835900D01*
X190533310Y-132835900D01*
X190574791Y-132839985D01*
X190574791Y-132839985D01*
G37*
G36*
X145301000Y-132481800D02*
X136639000Y-132481800D01*
X136639000Y-130779800D01*
X145301000Y-130779800D01*
X145301000Y-132481800D01*
X145301000Y-132481800D01*
G37*
G36*
X162284000Y-131018000D02*
X161782000Y-131018000D01*
X161782000Y-130016000D01*
X162284000Y-130016000D01*
X162284000Y-131018000D01*
X162284000Y-131018000D01*
G37*
G36*
X163084000Y-131018000D02*
X162582000Y-131018000D01*
X162582000Y-130016000D01*
X163084000Y-130016000D01*
X163084000Y-131018000D01*
X163084000Y-131018000D01*
G37*
G36*
X161484000Y-131018000D02*
X160982000Y-131018000D01*
X160982000Y-130016000D01*
X161484000Y-130016000D01*
X161484000Y-131018000D01*
X161484000Y-131018000D01*
G37*
G36*
X163884000Y-131018000D02*
X163382000Y-131018000D01*
X163382000Y-130016000D01*
X163884000Y-130016000D01*
X163884000Y-131018000D01*
X163884000Y-131018000D01*
G37*
G36*
X179067200Y-130877400D02*
X178565200Y-130877400D01*
X178565200Y-129875400D01*
X179067200Y-129875400D01*
X179067200Y-130877400D01*
X179067200Y-130877400D01*
G37*
G36*
X181467200Y-130877400D02*
X180965200Y-130877400D01*
X180965200Y-129875400D01*
X181467200Y-129875400D01*
X181467200Y-130877400D01*
X181467200Y-130877400D01*
G37*
G36*
X179867200Y-130877400D02*
X179365200Y-130877400D01*
X179365200Y-129875400D01*
X179867200Y-129875400D01*
X179867200Y-130877400D01*
X179867200Y-130877400D01*
G37*
G36*
X180667200Y-130877400D02*
X180165200Y-130877400D01*
X180165200Y-129875400D01*
X180667200Y-129875400D01*
X180667200Y-130877400D01*
X180667200Y-130877400D01*
G37*
G36*
X194370200Y-130371200D02*
X193868200Y-130371200D01*
X193868200Y-129369200D01*
X194370200Y-129369200D01*
X194370200Y-130371200D01*
X194370200Y-130371200D01*
G37*
G36*
X191970200Y-130371200D02*
X191468200Y-130371200D01*
X191468200Y-129369200D01*
X191970200Y-129369200D01*
X191970200Y-130371200D01*
X191970200Y-130371200D01*
G37*
G36*
X193570200Y-130371200D02*
X193068200Y-130371200D01*
X193068200Y-129369200D01*
X193570200Y-129369200D01*
X193570200Y-130371200D01*
X193570200Y-130371200D01*
G37*
G36*
X192770200Y-130371200D02*
X192268200Y-130371200D01*
X192268200Y-129369200D01*
X192770200Y-129369200D01*
X192770200Y-130371200D01*
X192770200Y-130371200D01*
G37*
G36*
X147671000Y-130111800D02*
X145969000Y-130111800D01*
X145969000Y-121449800D01*
X147671000Y-121449800D01*
X147671000Y-130111800D01*
X147671000Y-130111800D01*
G37*
G36*
X135971000Y-130111800D02*
X134269000Y-130111800D01*
X134269000Y-121449800D01*
X135971000Y-121449800D01*
X135971000Y-130111800D01*
X135971000Y-130111800D01*
G37*
G36*
X162284000Y-129318000D02*
X161782000Y-129318000D01*
X161782000Y-128316000D01*
X162284000Y-128316000D01*
X162284000Y-129318000D01*
X162284000Y-129318000D01*
G37*
G36*
X163084000Y-129318000D02*
X162582000Y-129318000D01*
X162582000Y-128316000D01*
X163084000Y-128316000D01*
X163084000Y-129318000D01*
X163084000Y-129318000D01*
G37*
G36*
X163884000Y-129318000D02*
X163382000Y-129318000D01*
X163382000Y-128316000D01*
X163884000Y-128316000D01*
X163884000Y-129318000D01*
X163884000Y-129318000D01*
G37*
G36*
X161484000Y-129318000D02*
X160982000Y-129318000D01*
X160982000Y-128316000D01*
X161484000Y-128316000D01*
X161484000Y-129318000D01*
X161484000Y-129318000D01*
G37*
G36*
X179067200Y-129177400D02*
X178565200Y-129177400D01*
X178565200Y-128175400D01*
X179067200Y-128175400D01*
X179067200Y-129177400D01*
X179067200Y-129177400D01*
G37*
G36*
X179867200Y-129177400D02*
X179365200Y-129177400D01*
X179365200Y-128175400D01*
X179867200Y-128175400D01*
X179867200Y-129177400D01*
X179867200Y-129177400D01*
G37*
G36*
X180667200Y-129177400D02*
X180165200Y-129177400D01*
X180165200Y-128175400D01*
X180667200Y-128175400D01*
X180667200Y-129177400D01*
X180667200Y-129177400D01*
G37*
G36*
X181467200Y-129177400D02*
X180965200Y-129177400D01*
X180965200Y-128175400D01*
X181467200Y-128175400D01*
X181467200Y-129177400D01*
X181467200Y-129177400D01*
G37*
G36*
X108426856Y-125873898D02*
X108533179Y-125895047D01*
X108833642Y-126019503D01*
X108971774Y-126111800D01*
X109104054Y-126200187D01*
X109334013Y-126430146D01*
X109334015Y-126430149D01*
X109442171Y-126592015D01*
X109514698Y-126700560D01*
X109639153Y-127001022D01*
X109702600Y-127319989D01*
X109702600Y-127645211D01*
X109661904Y-127849800D01*
X109639153Y-127964179D01*
X109514697Y-128264642D01*
X109349551Y-128511800D01*
X109334013Y-128535054D01*
X109104054Y-128765013D01*
X109104051Y-128765015D01*
X108833642Y-128945697D01*
X108533179Y-129070153D01*
X108426856Y-129091302D01*
X108214211Y-129133600D01*
X107888989Y-129133600D01*
X107676344Y-129091302D01*
X107570021Y-129070153D01*
X107269558Y-128945697D01*
X106999149Y-128765015D01*
X106999146Y-128765013D01*
X106769187Y-128535054D01*
X106753649Y-128511800D01*
X106588503Y-128264642D01*
X106464047Y-127964179D01*
X106441296Y-127849800D01*
X106400600Y-127645211D01*
X106400600Y-127319989D01*
X106464047Y-127001022D01*
X106588502Y-126700560D01*
X106661030Y-126592015D01*
X106769185Y-126430149D01*
X106769187Y-126430146D01*
X106999146Y-126200187D01*
X107131426Y-126111800D01*
X107269558Y-126019503D01*
X107570021Y-125895047D01*
X107676344Y-125873898D01*
X107888989Y-125831600D01*
X108214211Y-125831600D01*
X108426856Y-125873898D01*
X108426856Y-125873898D01*
G37*
G36*
X191970200Y-128671200D02*
X191468200Y-128671200D01*
X191468200Y-127669200D01*
X191970200Y-127669200D01*
X191970200Y-128671200D01*
X191970200Y-128671200D01*
G37*
G36*
X194370200Y-128671200D02*
X193868200Y-128671200D01*
X193868200Y-127669200D01*
X194370200Y-127669200D01*
X194370200Y-128671200D01*
X194370200Y-128671200D01*
G37*
G36*
X193570200Y-128671200D02*
X193068200Y-128671200D01*
X193068200Y-127669200D01*
X193570200Y-127669200D01*
X193570200Y-128671200D01*
X193570200Y-128671200D01*
G37*
G36*
X192770200Y-128671200D02*
X192268200Y-128671200D01*
X192268200Y-127669200D01*
X192770200Y-127669200D01*
X192770200Y-128671200D01*
X192770200Y-128671200D01*
G37*
G36*
X117175243Y-125442381D02*
X117321015Y-125502762D01*
X117452211Y-125590424D01*
X117563776Y-125701989D01*
X117651438Y-125833185D01*
X117711819Y-125978957D01*
X117742600Y-126133707D01*
X117742600Y-126291493D01*
X117711819Y-126446243D01*
X117651438Y-126592015D01*
X117563776Y-126723211D01*
X117452211Y-126834776D01*
X117321015Y-126922438D01*
X117175243Y-126982819D01*
X117020493Y-127013600D01*
X116862707Y-127013600D01*
X116707957Y-126982819D01*
X116562185Y-126922438D01*
X116430989Y-126834776D01*
X116319424Y-126723211D01*
X116231762Y-126592015D01*
X116171381Y-126446243D01*
X116140600Y-126291493D01*
X116140600Y-126133707D01*
X116171381Y-125978957D01*
X116231762Y-125833185D01*
X116319424Y-125701989D01*
X116430989Y-125590424D01*
X116562185Y-125502762D01*
X116707957Y-125442381D01*
X116862707Y-125411600D01*
X117020493Y-125411600D01*
X117175243Y-125442381D01*
X117175243Y-125442381D01*
G37*
G36*
X130572366Y-125034365D02*
X130611037Y-125046096D01*
X130646679Y-125065148D01*
X130677917Y-125090783D01*
X130703552Y-125122021D01*
X130722604Y-125157663D01*
X130734335Y-125196334D01*
X130738900Y-125242688D01*
X130738900Y-126318912D01*
X130734335Y-126365266D01*
X130722604Y-126403937D01*
X130703552Y-126439579D01*
X130677917Y-126470817D01*
X130646679Y-126496452D01*
X130611037Y-126515504D01*
X130572366Y-126527235D01*
X130526012Y-126531800D01*
X129874788Y-126531800D01*
X129828434Y-126527235D01*
X129789763Y-126515504D01*
X129754121Y-126496452D01*
X129722883Y-126470817D01*
X129697248Y-126439579D01*
X129678196Y-126403937D01*
X129666465Y-126365266D01*
X129661900Y-126318912D01*
X129661900Y-125242688D01*
X129666465Y-125196334D01*
X129678196Y-125157663D01*
X129697248Y-125122021D01*
X129722883Y-125090783D01*
X129754121Y-125065148D01*
X129789763Y-125046096D01*
X129828434Y-125034365D01*
X129874788Y-125029800D01*
X130526012Y-125029800D01*
X130572366Y-125034365D01*
X130572366Y-125034365D01*
G37*
G36*
X128697366Y-125034365D02*
X128736037Y-125046096D01*
X128771679Y-125065148D01*
X128802917Y-125090783D01*
X128828552Y-125122021D01*
X128847604Y-125157663D01*
X128859335Y-125196334D01*
X128863900Y-125242688D01*
X128863900Y-126318912D01*
X128859335Y-126365266D01*
X128847604Y-126403937D01*
X128828552Y-126439579D01*
X128802917Y-126470817D01*
X128771679Y-126496452D01*
X128736037Y-126515504D01*
X128697366Y-126527235D01*
X128651012Y-126531800D01*
X127999788Y-126531800D01*
X127953434Y-126527235D01*
X127914763Y-126515504D01*
X127879121Y-126496452D01*
X127847883Y-126470817D01*
X127822248Y-126439579D01*
X127803196Y-126403937D01*
X127791465Y-126365266D01*
X127786900Y-126318912D01*
X127786900Y-125242688D01*
X127791465Y-125196334D01*
X127803196Y-125157663D01*
X127822248Y-125122021D01*
X127847883Y-125090783D01*
X127879121Y-125065148D01*
X127914763Y-125046096D01*
X127953434Y-125034365D01*
X127999788Y-125029800D01*
X128651012Y-125029800D01*
X128697366Y-125034365D01*
X128697366Y-125034365D01*
G37*
G36*
X153630966Y-125008965D02*
X153669637Y-125020696D01*
X153705279Y-125039748D01*
X153736517Y-125065383D01*
X153762152Y-125096621D01*
X153781204Y-125132263D01*
X153792935Y-125170934D01*
X153797500Y-125217288D01*
X153797500Y-126293512D01*
X153792935Y-126339866D01*
X153781204Y-126378537D01*
X153762152Y-126414179D01*
X153736517Y-126445417D01*
X153705279Y-126471052D01*
X153669637Y-126490104D01*
X153630966Y-126501835D01*
X153584612Y-126506400D01*
X152933388Y-126506400D01*
X152887034Y-126501835D01*
X152848363Y-126490104D01*
X152812721Y-126471052D01*
X152781483Y-126445417D01*
X152755848Y-126414179D01*
X152736796Y-126378537D01*
X152725065Y-126339866D01*
X152720500Y-126293512D01*
X152720500Y-125217288D01*
X152725065Y-125170934D01*
X152736796Y-125132263D01*
X152755848Y-125096621D01*
X152781483Y-125065383D01*
X152812721Y-125039748D01*
X152848363Y-125020696D01*
X152887034Y-125008965D01*
X152933388Y-125004400D01*
X153584612Y-125004400D01*
X153630966Y-125008965D01*
X153630966Y-125008965D01*
G37*
G36*
X151755966Y-125008965D02*
X151794637Y-125020696D01*
X151830279Y-125039748D01*
X151861517Y-125065383D01*
X151887152Y-125096621D01*
X151906204Y-125132263D01*
X151917935Y-125170934D01*
X151922500Y-125217288D01*
X151922500Y-126293512D01*
X151917935Y-126339866D01*
X151906204Y-126378537D01*
X151887152Y-126414179D01*
X151861517Y-126445417D01*
X151830279Y-126471052D01*
X151794637Y-126490104D01*
X151755966Y-126501835D01*
X151709612Y-126506400D01*
X151058388Y-126506400D01*
X151012034Y-126501835D01*
X150973363Y-126490104D01*
X150937721Y-126471052D01*
X150906483Y-126445417D01*
X150880848Y-126414179D01*
X150861796Y-126378537D01*
X150850065Y-126339866D01*
X150845500Y-126293512D01*
X150845500Y-125217288D01*
X150850065Y-125170934D01*
X150861796Y-125132263D01*
X150880848Y-125096621D01*
X150906483Y-125065383D01*
X150937721Y-125039748D01*
X150973363Y-125020696D01*
X151012034Y-125008965D01*
X151058388Y-125004400D01*
X151709612Y-125004400D01*
X151755966Y-125008965D01*
X151755966Y-125008965D01*
G37*
G36*
X114635243Y-124172381D02*
X114781015Y-124232762D01*
X114912211Y-124320424D01*
X115023776Y-124431989D01*
X115111438Y-124563185D01*
X115171819Y-124708957D01*
X115202600Y-124863707D01*
X115202600Y-125021493D01*
X115171819Y-125176243D01*
X115111438Y-125322015D01*
X115023776Y-125453211D01*
X114912211Y-125564776D01*
X114781015Y-125652438D01*
X114635243Y-125712819D01*
X114480493Y-125743600D01*
X114322707Y-125743600D01*
X114167957Y-125712819D01*
X114022185Y-125652438D01*
X113890989Y-125564776D01*
X113779424Y-125453211D01*
X113691762Y-125322015D01*
X113631381Y-125176243D01*
X113600600Y-125021493D01*
X113600600Y-124863707D01*
X113631381Y-124708957D01*
X113691762Y-124563185D01*
X113779424Y-124431989D01*
X113890989Y-124320424D01*
X114022185Y-124232762D01*
X114167957Y-124172381D01*
X114322707Y-124141600D01*
X114480493Y-124141600D01*
X114635243Y-124172381D01*
X114635243Y-124172381D01*
G37*
G36*
X117175243Y-122902381D02*
X117321015Y-122962762D01*
X117452211Y-123050424D01*
X117563776Y-123161989D01*
X117651438Y-123293185D01*
X117711819Y-123438957D01*
X117742600Y-123593707D01*
X117742600Y-123751493D01*
X117711819Y-123906243D01*
X117651438Y-124052015D01*
X117563776Y-124183211D01*
X117452211Y-124294776D01*
X117321015Y-124382438D01*
X117175243Y-124442819D01*
X117020493Y-124473600D01*
X116862707Y-124473600D01*
X116707957Y-124442819D01*
X116562185Y-124382438D01*
X116430989Y-124294776D01*
X116319424Y-124183211D01*
X116231762Y-124052015D01*
X116171381Y-123906243D01*
X116140600Y-123751493D01*
X116140600Y-123593707D01*
X116171381Y-123438957D01*
X116231762Y-123293185D01*
X116319424Y-123161989D01*
X116430989Y-123050424D01*
X116562185Y-122962762D01*
X116707957Y-122902381D01*
X116862707Y-122871600D01*
X117020493Y-122871600D01*
X117175243Y-122902381D01*
X117175243Y-122902381D01*
G37*
G36*
X114635243Y-121632381D02*
X114781015Y-121692762D01*
X114912211Y-121780424D01*
X115023776Y-121891989D01*
X115111438Y-122023185D01*
X115171819Y-122168957D01*
X115202600Y-122323707D01*
X115202600Y-122481493D01*
X115171819Y-122636243D01*
X115111438Y-122782015D01*
X115023776Y-122913211D01*
X114912211Y-123024776D01*
X114781015Y-123112438D01*
X114635243Y-123172819D01*
X114480493Y-123203600D01*
X114322707Y-123203600D01*
X114167957Y-123172819D01*
X114022185Y-123112438D01*
X113890989Y-123024776D01*
X113779424Y-122913211D01*
X113691762Y-122782015D01*
X113631381Y-122636243D01*
X113600600Y-122481493D01*
X113600600Y-122323707D01*
X113631381Y-122168957D01*
X113691762Y-122023185D01*
X113779424Y-121891989D01*
X113890989Y-121780424D01*
X114022185Y-121692762D01*
X114167957Y-121632381D01*
X114322707Y-121601600D01*
X114480493Y-121601600D01*
X114635243Y-121632381D01*
X114635243Y-121632381D01*
G37*
G36*
X188708600Y-122922600D02*
X186906600Y-122922600D01*
X186906600Y-121120600D01*
X188708600Y-121120600D01*
X188708600Y-122922600D01*
X188708600Y-122922600D01*
G37*
G36*
X185378043Y-121127119D02*
X185444227Y-121133637D01*
X185557453Y-121167984D01*
X185614067Y-121185157D01*
X185663337Y-121211493D01*
X185770591Y-121268822D01*
X185806329Y-121298152D01*
X185907786Y-121381414D01*
X185963908Y-121449800D01*
X186020378Y-121518609D01*
X186020379Y-121518611D01*
X186104043Y-121675133D01*
X186109391Y-121692763D01*
X186155563Y-121844973D01*
X186172959Y-122021600D01*
X186155563Y-122198227D01*
X186121216Y-122311453D01*
X186104043Y-122368067D01*
X186043415Y-122481492D01*
X186020378Y-122524591D01*
X185991048Y-122560329D01*
X185907786Y-122661786D01*
X185806329Y-122745048D01*
X185770591Y-122774378D01*
X185770589Y-122774379D01*
X185614067Y-122858043D01*
X185557453Y-122875216D01*
X185444227Y-122909563D01*
X185378043Y-122916081D01*
X185311860Y-122922600D01*
X185223340Y-122922600D01*
X185157157Y-122916081D01*
X185090973Y-122909563D01*
X184977747Y-122875216D01*
X184921133Y-122858043D01*
X184764611Y-122774379D01*
X184764609Y-122774378D01*
X184728871Y-122745048D01*
X184627414Y-122661786D01*
X184544152Y-122560329D01*
X184514822Y-122524591D01*
X184491785Y-122481492D01*
X184431157Y-122368067D01*
X184413984Y-122311453D01*
X184379637Y-122198227D01*
X184362241Y-122021600D01*
X184379637Y-121844973D01*
X184425809Y-121692763D01*
X184431157Y-121675133D01*
X184514821Y-121518611D01*
X184514822Y-121518609D01*
X184571292Y-121449800D01*
X184627414Y-121381414D01*
X184728871Y-121298152D01*
X184764609Y-121268822D01*
X184871863Y-121211493D01*
X184921133Y-121185157D01*
X184977747Y-121167984D01*
X185090973Y-121133637D01*
X185157157Y-121127119D01*
X185223340Y-121120600D01*
X185311860Y-121120600D01*
X185378043Y-121127119D01*
X185378043Y-121127119D01*
G37*
G36*
X117175243Y-120362381D02*
X117321015Y-120422762D01*
X117452211Y-120510424D01*
X117563776Y-120621989D01*
X117651438Y-120753185D01*
X117711819Y-120898957D01*
X117742600Y-121053707D01*
X117742600Y-121211493D01*
X117711819Y-121366243D01*
X117651438Y-121512015D01*
X117563776Y-121643211D01*
X117452211Y-121754776D01*
X117321015Y-121842438D01*
X117175243Y-121902819D01*
X117020493Y-121933600D01*
X116862707Y-121933600D01*
X116707957Y-121902819D01*
X116562185Y-121842438D01*
X116430989Y-121754776D01*
X116319424Y-121643211D01*
X116231762Y-121512015D01*
X116171381Y-121366243D01*
X116140600Y-121211493D01*
X116140600Y-121053707D01*
X116171381Y-120898957D01*
X116231762Y-120753185D01*
X116319424Y-120621989D01*
X116430989Y-120510424D01*
X116562185Y-120422762D01*
X116707957Y-120362381D01*
X116862707Y-120331600D01*
X117020493Y-120331600D01*
X117175243Y-120362381D01*
X117175243Y-120362381D01*
G37*
G36*
X145301000Y-120781800D02*
X136639000Y-120781800D01*
X136639000Y-119079800D01*
X145301000Y-119079800D01*
X145301000Y-120781800D01*
X145301000Y-120781800D01*
G37*
G36*
X114635243Y-119092381D02*
X114781015Y-119152762D01*
X114912211Y-119240424D01*
X115023776Y-119351989D01*
X115111438Y-119483185D01*
X115171819Y-119628957D01*
X115202600Y-119783707D01*
X115202600Y-119941493D01*
X115171819Y-120096243D01*
X115111438Y-120242015D01*
X115023776Y-120373211D01*
X114912211Y-120484776D01*
X114781015Y-120572438D01*
X114635243Y-120632819D01*
X114480493Y-120663600D01*
X114322707Y-120663600D01*
X114167957Y-120632819D01*
X114022185Y-120572438D01*
X113890989Y-120484776D01*
X113779424Y-120373211D01*
X113691762Y-120242015D01*
X113631381Y-120096243D01*
X113600600Y-119941493D01*
X113600600Y-119783707D01*
X113631381Y-119628957D01*
X113691762Y-119483185D01*
X113779424Y-119351989D01*
X113890989Y-119240424D01*
X114022185Y-119152762D01*
X114167957Y-119092381D01*
X114322707Y-119061600D01*
X114480493Y-119061600D01*
X114635243Y-119092381D01*
X114635243Y-119092381D01*
G37*
G36*
X187918042Y-118587118D02*
X187984227Y-118593637D01*
X188097453Y-118627984D01*
X188154067Y-118645157D01*
X188203337Y-118671493D01*
X188310591Y-118728822D01*
X188346329Y-118758152D01*
X188447786Y-118841414D01*
X188531048Y-118942871D01*
X188560378Y-118978609D01*
X188560379Y-118978611D01*
X188644043Y-119135133D01*
X188649391Y-119152763D01*
X188695563Y-119304973D01*
X188712959Y-119481600D01*
X188695563Y-119658227D01*
X188661216Y-119771453D01*
X188644043Y-119828067D01*
X188583415Y-119941492D01*
X188560378Y-119984591D01*
X188531048Y-120020329D01*
X188447786Y-120121786D01*
X188346329Y-120205048D01*
X188310591Y-120234378D01*
X188310589Y-120234379D01*
X188154067Y-120318043D01*
X188097453Y-120335216D01*
X187984227Y-120369563D01*
X187918043Y-120376081D01*
X187851860Y-120382600D01*
X187763340Y-120382600D01*
X187697157Y-120376081D01*
X187630973Y-120369563D01*
X187517747Y-120335216D01*
X187461133Y-120318043D01*
X187304611Y-120234379D01*
X187304609Y-120234378D01*
X187268871Y-120205048D01*
X187167414Y-120121786D01*
X187084152Y-120020329D01*
X187054822Y-119984591D01*
X187031785Y-119941492D01*
X186971157Y-119828067D01*
X186953984Y-119771453D01*
X186919637Y-119658227D01*
X186902241Y-119481600D01*
X186919637Y-119304973D01*
X186965809Y-119152763D01*
X186971157Y-119135133D01*
X187054821Y-118978611D01*
X187054822Y-118978609D01*
X187084152Y-118942871D01*
X187167414Y-118841414D01*
X187268871Y-118758152D01*
X187304609Y-118728822D01*
X187411863Y-118671493D01*
X187461133Y-118645157D01*
X187517747Y-118627984D01*
X187630973Y-118593637D01*
X187697158Y-118587118D01*
X187763340Y-118580600D01*
X187851860Y-118580600D01*
X187918042Y-118587118D01*
X187918042Y-118587118D01*
G37*
G36*
X185378042Y-118587118D02*
X185444227Y-118593637D01*
X185557453Y-118627984D01*
X185614067Y-118645157D01*
X185663337Y-118671493D01*
X185770591Y-118728822D01*
X185806329Y-118758152D01*
X185907786Y-118841414D01*
X185991048Y-118942871D01*
X186020378Y-118978609D01*
X186020379Y-118978611D01*
X186104043Y-119135133D01*
X186109391Y-119152763D01*
X186155563Y-119304973D01*
X186172959Y-119481600D01*
X186155563Y-119658227D01*
X186121216Y-119771453D01*
X186104043Y-119828067D01*
X186043415Y-119941492D01*
X186020378Y-119984591D01*
X185991048Y-120020329D01*
X185907786Y-120121786D01*
X185806329Y-120205048D01*
X185770591Y-120234378D01*
X185770589Y-120234379D01*
X185614067Y-120318043D01*
X185557453Y-120335216D01*
X185444227Y-120369563D01*
X185378043Y-120376081D01*
X185311860Y-120382600D01*
X185223340Y-120382600D01*
X185157157Y-120376081D01*
X185090973Y-120369563D01*
X184977747Y-120335216D01*
X184921133Y-120318043D01*
X184764611Y-120234379D01*
X184764609Y-120234378D01*
X184728871Y-120205048D01*
X184627414Y-120121786D01*
X184544152Y-120020329D01*
X184514822Y-119984591D01*
X184491785Y-119941492D01*
X184431157Y-119828067D01*
X184413984Y-119771453D01*
X184379637Y-119658227D01*
X184362241Y-119481600D01*
X184379637Y-119304973D01*
X184425809Y-119152763D01*
X184431157Y-119135133D01*
X184514821Y-118978611D01*
X184514822Y-118978609D01*
X184544152Y-118942871D01*
X184627414Y-118841414D01*
X184728871Y-118758152D01*
X184764609Y-118728822D01*
X184871863Y-118671493D01*
X184921133Y-118645157D01*
X184977747Y-118627984D01*
X185090973Y-118593637D01*
X185157158Y-118587118D01*
X185223340Y-118580600D01*
X185311860Y-118580600D01*
X185378042Y-118587118D01*
X185378042Y-118587118D01*
G37*
G36*
X117175243Y-117822381D02*
X117321015Y-117882762D01*
X117452211Y-117970424D01*
X117563776Y-118081989D01*
X117651438Y-118213185D01*
X117711819Y-118358957D01*
X117742600Y-118513707D01*
X117742600Y-118671493D01*
X117711819Y-118826243D01*
X117651438Y-118972015D01*
X117563776Y-119103211D01*
X117452211Y-119214776D01*
X117321015Y-119302438D01*
X117175243Y-119362819D01*
X117020493Y-119393600D01*
X116862707Y-119393600D01*
X116707957Y-119362819D01*
X116562185Y-119302438D01*
X116430989Y-119214776D01*
X116319424Y-119103211D01*
X116231762Y-118972015D01*
X116171381Y-118826243D01*
X116140600Y-118671493D01*
X116140600Y-118513707D01*
X116171381Y-118358957D01*
X116231762Y-118213185D01*
X116319424Y-118081989D01*
X116430989Y-117970424D01*
X116562185Y-117882762D01*
X116707957Y-117822381D01*
X116862707Y-117791600D01*
X117020493Y-117791600D01*
X117175243Y-117822381D01*
X117175243Y-117822381D01*
G37*
G36*
X115202600Y-118123600D02*
X113600600Y-118123600D01*
X113600600Y-116521600D01*
X115202600Y-116521600D01*
X115202600Y-118123600D01*
X115202600Y-118123600D01*
G37*
G36*
X187918042Y-116047118D02*
X187984227Y-116053637D01*
X188097453Y-116087984D01*
X188154067Y-116105157D01*
X188292687Y-116179252D01*
X188310591Y-116188822D01*
X188342743Y-116215209D01*
X188447786Y-116301414D01*
X188531048Y-116402871D01*
X188560378Y-116438609D01*
X188560379Y-116438611D01*
X188644043Y-116595133D01*
X188644043Y-116595134D01*
X188695563Y-116764973D01*
X188712959Y-116941600D01*
X188695563Y-117118227D01*
X188661216Y-117231453D01*
X188644043Y-117288067D01*
X188618949Y-117335013D01*
X188560378Y-117444591D01*
X188531048Y-117480329D01*
X188447786Y-117581786D01*
X188346329Y-117665048D01*
X188310591Y-117694378D01*
X188310589Y-117694379D01*
X188154067Y-117778043D01*
X188097453Y-117795216D01*
X187984227Y-117829563D01*
X187918042Y-117836082D01*
X187851860Y-117842600D01*
X187763340Y-117842600D01*
X187697158Y-117836082D01*
X187630973Y-117829563D01*
X187517747Y-117795216D01*
X187461133Y-117778043D01*
X187304611Y-117694379D01*
X187304609Y-117694378D01*
X187268871Y-117665048D01*
X187167414Y-117581786D01*
X187084152Y-117480329D01*
X187054822Y-117444591D01*
X186996251Y-117335013D01*
X186971157Y-117288067D01*
X186953984Y-117231453D01*
X186919637Y-117118227D01*
X186902241Y-116941600D01*
X186919637Y-116764973D01*
X186971157Y-116595134D01*
X186971157Y-116595133D01*
X187054821Y-116438611D01*
X187054822Y-116438609D01*
X187084152Y-116402871D01*
X187167414Y-116301414D01*
X187272457Y-116215209D01*
X187304609Y-116188822D01*
X187322513Y-116179252D01*
X187461133Y-116105157D01*
X187517747Y-116087984D01*
X187630973Y-116053637D01*
X187697158Y-116047118D01*
X187763340Y-116040600D01*
X187851860Y-116040600D01*
X187918042Y-116047118D01*
X187918042Y-116047118D01*
G37*
G36*
X185378042Y-116047118D02*
X185444227Y-116053637D01*
X185557453Y-116087984D01*
X185614067Y-116105157D01*
X185752687Y-116179252D01*
X185770591Y-116188822D01*
X185802743Y-116215209D01*
X185907786Y-116301414D01*
X185991048Y-116402871D01*
X186020378Y-116438609D01*
X186020379Y-116438611D01*
X186104043Y-116595133D01*
X186104043Y-116595134D01*
X186155563Y-116764973D01*
X186172959Y-116941600D01*
X186155563Y-117118227D01*
X186121216Y-117231453D01*
X186104043Y-117288067D01*
X186078949Y-117335013D01*
X186020378Y-117444591D01*
X185991048Y-117480329D01*
X185907786Y-117581786D01*
X185806329Y-117665048D01*
X185770591Y-117694378D01*
X185770589Y-117694379D01*
X185614067Y-117778043D01*
X185557453Y-117795216D01*
X185444227Y-117829563D01*
X185378042Y-117836082D01*
X185311860Y-117842600D01*
X185223340Y-117842600D01*
X185157158Y-117836082D01*
X185090973Y-117829563D01*
X184977747Y-117795216D01*
X184921133Y-117778043D01*
X184764611Y-117694379D01*
X184764609Y-117694378D01*
X184728871Y-117665048D01*
X184627414Y-117581786D01*
X184544152Y-117480329D01*
X184514822Y-117444591D01*
X184456251Y-117335013D01*
X184431157Y-117288067D01*
X184413984Y-117231453D01*
X184379637Y-117118227D01*
X184362241Y-116941600D01*
X184379637Y-116764973D01*
X184431157Y-116595134D01*
X184431157Y-116595133D01*
X184514821Y-116438611D01*
X184514822Y-116438609D01*
X184544152Y-116402871D01*
X184627414Y-116301414D01*
X184732457Y-116215209D01*
X184764609Y-116188822D01*
X184782513Y-116179252D01*
X184921133Y-116105157D01*
X184977747Y-116087984D01*
X185090973Y-116053637D01*
X185157158Y-116047118D01*
X185223340Y-116040600D01*
X185311860Y-116040600D01*
X185378042Y-116047118D01*
X185378042Y-116047118D01*
G37*
G36*
X108426856Y-114443898D02*
X108533179Y-114465047D01*
X108745637Y-114553050D01*
X108806420Y-114578227D01*
X108833642Y-114589503D01*
X109070948Y-114748066D01*
X109104054Y-114770187D01*
X109334013Y-115000146D01*
X109334015Y-115000149D01*
X109514697Y-115270558D01*
X109639153Y-115571021D01*
X109702600Y-115889991D01*
X109702600Y-116215209D01*
X109639153Y-116534179D01*
X109551150Y-116746637D01*
X109514698Y-116834640D01*
X109334013Y-117105054D01*
X109104054Y-117335013D01*
X109104051Y-117335015D01*
X108833642Y-117515697D01*
X108533179Y-117640153D01*
X108426856Y-117661302D01*
X108214211Y-117703600D01*
X107888989Y-117703600D01*
X107676344Y-117661302D01*
X107570021Y-117640153D01*
X107269558Y-117515697D01*
X106999149Y-117335015D01*
X106999146Y-117335013D01*
X106769187Y-117105054D01*
X106588502Y-116834640D01*
X106552050Y-116746637D01*
X106464047Y-116534179D01*
X106400600Y-116215209D01*
X106400600Y-115889991D01*
X106464047Y-115571021D01*
X106588503Y-115270558D01*
X106769185Y-115000149D01*
X106769187Y-115000146D01*
X106999146Y-114770187D01*
X107032252Y-114748066D01*
X107269558Y-114589503D01*
X107296781Y-114578227D01*
X107357563Y-114553050D01*
X107570021Y-114465047D01*
X107676344Y-114443898D01*
X107888989Y-114401600D01*
X108214211Y-114401600D01*
X108426856Y-114443898D01*
X108426856Y-114443898D01*
G37*
G36*
X187918043Y-113507119D02*
X187984227Y-113513637D01*
X188097453Y-113547984D01*
X188154067Y-113565157D01*
X188292687Y-113639252D01*
X188310591Y-113648822D01*
X188346329Y-113678152D01*
X188447786Y-113761414D01*
X188531048Y-113862871D01*
X188560378Y-113898609D01*
X188560379Y-113898611D01*
X188644043Y-114055133D01*
X188644043Y-114055134D01*
X188695563Y-114224973D01*
X188712959Y-114401600D01*
X188695563Y-114578227D01*
X188692142Y-114589503D01*
X188644043Y-114748067D01*
X188632219Y-114770187D01*
X188560378Y-114904591D01*
X188531048Y-114940329D01*
X188447786Y-115041786D01*
X188346329Y-115125048D01*
X188310591Y-115154378D01*
X188310589Y-115154379D01*
X188154067Y-115238043D01*
X188097453Y-115255216D01*
X187984227Y-115289563D01*
X187918043Y-115296081D01*
X187851860Y-115302600D01*
X187763340Y-115302600D01*
X187697157Y-115296081D01*
X187630973Y-115289563D01*
X187517747Y-115255216D01*
X187461133Y-115238043D01*
X187304611Y-115154379D01*
X187304609Y-115154378D01*
X187268871Y-115125048D01*
X187167414Y-115041786D01*
X187084152Y-114940329D01*
X187054822Y-114904591D01*
X186982981Y-114770187D01*
X186971157Y-114748067D01*
X186923058Y-114589503D01*
X186919637Y-114578227D01*
X186902241Y-114401600D01*
X186919637Y-114224973D01*
X186971157Y-114055134D01*
X186971157Y-114055133D01*
X187054821Y-113898611D01*
X187054822Y-113898609D01*
X187084152Y-113862871D01*
X187167414Y-113761414D01*
X187268871Y-113678152D01*
X187304609Y-113648822D01*
X187322513Y-113639252D01*
X187461133Y-113565157D01*
X187517747Y-113547984D01*
X187630973Y-113513637D01*
X187697157Y-113507119D01*
X187763340Y-113500600D01*
X187851860Y-113500600D01*
X187918043Y-113507119D01*
X187918043Y-113507119D01*
G37*
G36*
X185378043Y-113507119D02*
X185444227Y-113513637D01*
X185557453Y-113547984D01*
X185614067Y-113565157D01*
X185752687Y-113639252D01*
X185770591Y-113648822D01*
X185806329Y-113678152D01*
X185907786Y-113761414D01*
X185991048Y-113862871D01*
X186020378Y-113898609D01*
X186020379Y-113898611D01*
X186104043Y-114055133D01*
X186104043Y-114055134D01*
X186155563Y-114224973D01*
X186172959Y-114401600D01*
X186155563Y-114578227D01*
X186152142Y-114589503D01*
X186104043Y-114748067D01*
X186092219Y-114770187D01*
X186020378Y-114904591D01*
X185991048Y-114940329D01*
X185907786Y-115041786D01*
X185806329Y-115125048D01*
X185770591Y-115154378D01*
X185770589Y-115154379D01*
X185614067Y-115238043D01*
X185557453Y-115255216D01*
X185444227Y-115289563D01*
X185378043Y-115296081D01*
X185311860Y-115302600D01*
X185223340Y-115302600D01*
X185157157Y-115296081D01*
X185090973Y-115289563D01*
X184977747Y-115255216D01*
X184921133Y-115238043D01*
X184764611Y-115154379D01*
X184764609Y-115154378D01*
X184728871Y-115125048D01*
X184627414Y-115041786D01*
X184544152Y-114940329D01*
X184514822Y-114904591D01*
X184442981Y-114770187D01*
X184431157Y-114748067D01*
X184383058Y-114589503D01*
X184379637Y-114578227D01*
X184362241Y-114401600D01*
X184379637Y-114224973D01*
X184431157Y-114055134D01*
X184431157Y-114055133D01*
X184514821Y-113898611D01*
X184514822Y-113898609D01*
X184544152Y-113862871D01*
X184627414Y-113761414D01*
X184728871Y-113678152D01*
X184764609Y-113648822D01*
X184782513Y-113639252D01*
X184921133Y-113565157D01*
X184977747Y-113547984D01*
X185090973Y-113513637D01*
X185157157Y-113507119D01*
X185223340Y-113500600D01*
X185311860Y-113500600D01*
X185378043Y-113507119D01*
X185378043Y-113507119D01*
G37*
G36*
X185378042Y-110967118D02*
X185444227Y-110973637D01*
X185557453Y-111007984D01*
X185614067Y-111025157D01*
X185752687Y-111099252D01*
X185770591Y-111108822D01*
X185806329Y-111138152D01*
X185907786Y-111221414D01*
X185991048Y-111322871D01*
X186020378Y-111358609D01*
X186020379Y-111358611D01*
X186104043Y-111515133D01*
X186104043Y-111515134D01*
X186155563Y-111684973D01*
X186172959Y-111861600D01*
X186155563Y-112038227D01*
X186121216Y-112151453D01*
X186104043Y-112208067D01*
X186029948Y-112346687D01*
X186020378Y-112364591D01*
X185991048Y-112400329D01*
X185907786Y-112501786D01*
X185806329Y-112585048D01*
X185770591Y-112614378D01*
X185770589Y-112614379D01*
X185614067Y-112698043D01*
X185557453Y-112715216D01*
X185444227Y-112749563D01*
X185378042Y-112756082D01*
X185311860Y-112762600D01*
X185223340Y-112762600D01*
X185157158Y-112756082D01*
X185090973Y-112749563D01*
X184977747Y-112715216D01*
X184921133Y-112698043D01*
X184764611Y-112614379D01*
X184764609Y-112614378D01*
X184728871Y-112585048D01*
X184627414Y-112501786D01*
X184544152Y-112400329D01*
X184514822Y-112364591D01*
X184505252Y-112346687D01*
X184431157Y-112208067D01*
X184413984Y-112151453D01*
X184379637Y-112038227D01*
X184362241Y-111861600D01*
X184379637Y-111684973D01*
X184431157Y-111515134D01*
X184431157Y-111515133D01*
X184514821Y-111358611D01*
X184514822Y-111358609D01*
X184544152Y-111322871D01*
X184627414Y-111221414D01*
X184728871Y-111138152D01*
X184764609Y-111108822D01*
X184782513Y-111099252D01*
X184921133Y-111025157D01*
X184977747Y-111007984D01*
X185090973Y-110973637D01*
X185157158Y-110967118D01*
X185223340Y-110960600D01*
X185311860Y-110960600D01*
X185378042Y-110967118D01*
X185378042Y-110967118D01*
G37*
G36*
X187918042Y-110967118D02*
X187984227Y-110973637D01*
X188097453Y-111007984D01*
X188154067Y-111025157D01*
X188292687Y-111099252D01*
X188310591Y-111108822D01*
X188346329Y-111138152D01*
X188447786Y-111221414D01*
X188531048Y-111322871D01*
X188560378Y-111358609D01*
X188560379Y-111358611D01*
X188644043Y-111515133D01*
X188644043Y-111515134D01*
X188695563Y-111684973D01*
X188712959Y-111861600D01*
X188695563Y-112038227D01*
X188661216Y-112151453D01*
X188644043Y-112208067D01*
X188569948Y-112346687D01*
X188560378Y-112364591D01*
X188531048Y-112400329D01*
X188447786Y-112501786D01*
X188346329Y-112585048D01*
X188310591Y-112614378D01*
X188310589Y-112614379D01*
X188154067Y-112698043D01*
X188097453Y-112715216D01*
X187984227Y-112749563D01*
X187918042Y-112756082D01*
X187851860Y-112762600D01*
X187763340Y-112762600D01*
X187697158Y-112756082D01*
X187630973Y-112749563D01*
X187517747Y-112715216D01*
X187461133Y-112698043D01*
X187304611Y-112614379D01*
X187304609Y-112614378D01*
X187268871Y-112585048D01*
X187167414Y-112501786D01*
X187084152Y-112400329D01*
X187054822Y-112364591D01*
X187045252Y-112346687D01*
X186971157Y-112208067D01*
X186953984Y-112151453D01*
X186919637Y-112038227D01*
X186902241Y-111861600D01*
X186919637Y-111684973D01*
X186971157Y-111515134D01*
X186971157Y-111515133D01*
X187054821Y-111358611D01*
X187054822Y-111358609D01*
X187084152Y-111322871D01*
X187167414Y-111221414D01*
X187268871Y-111138152D01*
X187304609Y-111108822D01*
X187322513Y-111099252D01*
X187461133Y-111025157D01*
X187517747Y-111007984D01*
X187630973Y-110973637D01*
X187697158Y-110967118D01*
X187763340Y-110960600D01*
X187851860Y-110960600D01*
X187918042Y-110967118D01*
X187918042Y-110967118D01*
G37*
G36*
X188708600Y-106412600D02*
X186906600Y-106412600D01*
X186906600Y-104610600D01*
X188708600Y-104610600D01*
X188708600Y-106412600D01*
X188708600Y-106412600D01*
G37*
G36*
X185378043Y-104617119D02*
X185444227Y-104623637D01*
X185557453Y-104657984D01*
X185614067Y-104675157D01*
X185752687Y-104749252D01*
X185770591Y-104758822D01*
X185806329Y-104788152D01*
X185907786Y-104871414D01*
X185991048Y-104972871D01*
X186020378Y-105008609D01*
X186020379Y-105008611D01*
X186104043Y-105165133D01*
X186104043Y-105165134D01*
X186155563Y-105334973D01*
X186172959Y-105511600D01*
X186155563Y-105688227D01*
X186121216Y-105801453D01*
X186104043Y-105858067D01*
X186029948Y-105996687D01*
X186020378Y-106014591D01*
X185991048Y-106050329D01*
X185907786Y-106151786D01*
X185806329Y-106235048D01*
X185770591Y-106264378D01*
X185770589Y-106264379D01*
X185614067Y-106348043D01*
X185557453Y-106365216D01*
X185444227Y-106399563D01*
X185378042Y-106406082D01*
X185311860Y-106412600D01*
X185223340Y-106412600D01*
X185157158Y-106406082D01*
X185090973Y-106399563D01*
X184977747Y-106365216D01*
X184921133Y-106348043D01*
X184764611Y-106264379D01*
X184764609Y-106264378D01*
X184728871Y-106235048D01*
X184627414Y-106151786D01*
X184544152Y-106050329D01*
X184514822Y-106014591D01*
X184505252Y-105996687D01*
X184431157Y-105858067D01*
X184413984Y-105801453D01*
X184379637Y-105688227D01*
X184362241Y-105511600D01*
X184379637Y-105334973D01*
X184431157Y-105165134D01*
X184431157Y-105165133D01*
X184514821Y-105008611D01*
X184514822Y-105008609D01*
X184544152Y-104972871D01*
X184627414Y-104871414D01*
X184728871Y-104788152D01*
X184764609Y-104758822D01*
X184782513Y-104749252D01*
X184921133Y-104675157D01*
X184977747Y-104657984D01*
X185090973Y-104623637D01*
X185157157Y-104617119D01*
X185223340Y-104610600D01*
X185311860Y-104610600D01*
X185378043Y-104617119D01*
X185378043Y-104617119D01*
G37*
G36*
X187918042Y-102077118D02*
X187984227Y-102083637D01*
X188097453Y-102117984D01*
X188154067Y-102135157D01*
X188292687Y-102209252D01*
X188310591Y-102218822D01*
X188346329Y-102248152D01*
X188447786Y-102331414D01*
X188531048Y-102432871D01*
X188560378Y-102468609D01*
X188560379Y-102468611D01*
X188644043Y-102625133D01*
X188644043Y-102625134D01*
X188695563Y-102794973D01*
X188712959Y-102971600D01*
X188695563Y-103148227D01*
X188694091Y-103153078D01*
X188644043Y-103318067D01*
X188618208Y-103366400D01*
X188560378Y-103474591D01*
X188531048Y-103510329D01*
X188447786Y-103611786D01*
X188346329Y-103695048D01*
X188310591Y-103724378D01*
X188310589Y-103724379D01*
X188154067Y-103808043D01*
X188097453Y-103825216D01*
X187984227Y-103859563D01*
X187918042Y-103866082D01*
X187851860Y-103872600D01*
X187763340Y-103872600D01*
X187697158Y-103866082D01*
X187630973Y-103859563D01*
X187517747Y-103825216D01*
X187461133Y-103808043D01*
X187304611Y-103724379D01*
X187304609Y-103724378D01*
X187268871Y-103695048D01*
X187167414Y-103611786D01*
X187084152Y-103510329D01*
X187054822Y-103474591D01*
X186996992Y-103366400D01*
X186971157Y-103318067D01*
X186921109Y-103153078D01*
X186919637Y-103148227D01*
X186902241Y-102971600D01*
X186919637Y-102794973D01*
X186971157Y-102625134D01*
X186971157Y-102625133D01*
X187054821Y-102468611D01*
X187054822Y-102468609D01*
X187084152Y-102432871D01*
X187167414Y-102331414D01*
X187268871Y-102248152D01*
X187304609Y-102218822D01*
X187322513Y-102209252D01*
X187461133Y-102135157D01*
X187517747Y-102117984D01*
X187630973Y-102083637D01*
X187697157Y-102077119D01*
X187763340Y-102070600D01*
X187851860Y-102070600D01*
X187918042Y-102077118D01*
X187918042Y-102077118D01*
G37*
G36*
X185378042Y-102077118D02*
X185444227Y-102083637D01*
X185557453Y-102117984D01*
X185614067Y-102135157D01*
X185752687Y-102209252D01*
X185770591Y-102218822D01*
X185806329Y-102248152D01*
X185907786Y-102331414D01*
X185991048Y-102432871D01*
X186020378Y-102468609D01*
X186020379Y-102468611D01*
X186104043Y-102625133D01*
X186104043Y-102625134D01*
X186155563Y-102794973D01*
X186172959Y-102971600D01*
X186155563Y-103148227D01*
X186154091Y-103153078D01*
X186104043Y-103318067D01*
X186078208Y-103366400D01*
X186020378Y-103474591D01*
X185991048Y-103510329D01*
X185907786Y-103611786D01*
X185806329Y-103695048D01*
X185770591Y-103724378D01*
X185770589Y-103724379D01*
X185614067Y-103808043D01*
X185557453Y-103825216D01*
X185444227Y-103859563D01*
X185378042Y-103866082D01*
X185311860Y-103872600D01*
X185223340Y-103872600D01*
X185157158Y-103866082D01*
X185090973Y-103859563D01*
X184977747Y-103825216D01*
X184921133Y-103808043D01*
X184764611Y-103724379D01*
X184764609Y-103724378D01*
X184728871Y-103695048D01*
X184627414Y-103611786D01*
X184544152Y-103510329D01*
X184514822Y-103474591D01*
X184456992Y-103366400D01*
X184431157Y-103318067D01*
X184381109Y-103153078D01*
X184379637Y-103148227D01*
X184362241Y-102971600D01*
X184379637Y-102794973D01*
X184431157Y-102625134D01*
X184431157Y-102625133D01*
X184514821Y-102468611D01*
X184514822Y-102468609D01*
X184544152Y-102432871D01*
X184627414Y-102331414D01*
X184728871Y-102248152D01*
X184764609Y-102218822D01*
X184782513Y-102209252D01*
X184921133Y-102135157D01*
X184977747Y-102117984D01*
X185090973Y-102083637D01*
X185157157Y-102077119D01*
X185223340Y-102070600D01*
X185311860Y-102070600D01*
X185378042Y-102077118D01*
X185378042Y-102077118D01*
G37*
G36*
X125240966Y-92477721D02*
X126251183Y-92896167D01*
X126251185Y-92896168D01*
X127148258Y-93495574D01*
X127160359Y-93503659D01*
X127933541Y-94276841D01*
X127933543Y-94276844D01*
X128223914Y-94711414D01*
X128541033Y-95186017D01*
X128959479Y-96196234D01*
X129172800Y-97268673D01*
X129172800Y-98362127D01*
X128959479Y-99434566D01*
X128541033Y-100444783D01*
X128541032Y-100444785D01*
X128318340Y-100778067D01*
X127933541Y-101353959D01*
X127160359Y-102127141D01*
X127160356Y-102127143D01*
X126251185Y-102734632D01*
X126251184Y-102734633D01*
X126251183Y-102734633D01*
X125240966Y-103153079D01*
X124168527Y-103366400D01*
X123075073Y-103366400D01*
X122002634Y-103153079D01*
X120992417Y-102734633D01*
X120992416Y-102734633D01*
X120992415Y-102734632D01*
X120083244Y-102127143D01*
X120083241Y-102127141D01*
X119310059Y-101353959D01*
X118925260Y-100778067D01*
X118702568Y-100444785D01*
X118702567Y-100444783D01*
X118284121Y-99434566D01*
X118070800Y-98362127D01*
X118070800Y-97268673D01*
X118284121Y-96196234D01*
X118702567Y-95186017D01*
X119019687Y-94711414D01*
X119310057Y-94276844D01*
X119310059Y-94276841D01*
X120083241Y-93503659D01*
X120095342Y-93495574D01*
X120992415Y-92896168D01*
X120992417Y-92896167D01*
X122002634Y-92477721D01*
X123075073Y-92264400D01*
X124168527Y-92264400D01*
X125240966Y-92477721D01*
X125240966Y-92477721D01*
G37*
G36*
X187918043Y-99537119D02*
X187984227Y-99543637D01*
X188097453Y-99577984D01*
X188154067Y-99595157D01*
X188283610Y-99664400D01*
X188310591Y-99678822D01*
X188346329Y-99708152D01*
X188447786Y-99791414D01*
X188531048Y-99892871D01*
X188560378Y-99928609D01*
X188560379Y-99928611D01*
X188644043Y-100085133D01*
X188644043Y-100085134D01*
X188695563Y-100254973D01*
X188712959Y-100431600D01*
X188695563Y-100608227D01*
X188661216Y-100721453D01*
X188644043Y-100778067D01*
X188569948Y-100916687D01*
X188560378Y-100934591D01*
X188534273Y-100966400D01*
X188447786Y-101071786D01*
X188346329Y-101155048D01*
X188310591Y-101184378D01*
X188310589Y-101184379D01*
X188154067Y-101268043D01*
X188097453Y-101285216D01*
X187984227Y-101319563D01*
X187918042Y-101326082D01*
X187851860Y-101332600D01*
X187763340Y-101332600D01*
X187697157Y-101326081D01*
X187630973Y-101319563D01*
X187517747Y-101285216D01*
X187461133Y-101268043D01*
X187304611Y-101184379D01*
X187304609Y-101184378D01*
X187268871Y-101155048D01*
X187167414Y-101071786D01*
X187080927Y-100966400D01*
X187054822Y-100934591D01*
X187045252Y-100916687D01*
X186971157Y-100778067D01*
X186953984Y-100721453D01*
X186919637Y-100608227D01*
X186902241Y-100431600D01*
X186919637Y-100254973D01*
X186971157Y-100085134D01*
X186971157Y-100085133D01*
X187054821Y-99928611D01*
X187054822Y-99928609D01*
X187084152Y-99892871D01*
X187167414Y-99791414D01*
X187268871Y-99708152D01*
X187304609Y-99678822D01*
X187331590Y-99664400D01*
X187461133Y-99595157D01*
X187517747Y-99577984D01*
X187630973Y-99543637D01*
X187697157Y-99537119D01*
X187763340Y-99530600D01*
X187851860Y-99530600D01*
X187918043Y-99537119D01*
X187918043Y-99537119D01*
G37*
G36*
X185378043Y-99537119D02*
X185444227Y-99543637D01*
X185557453Y-99577984D01*
X185614067Y-99595157D01*
X185743610Y-99664400D01*
X185770591Y-99678822D01*
X185806329Y-99708152D01*
X185907786Y-99791414D01*
X185991048Y-99892871D01*
X186020378Y-99928609D01*
X186020379Y-99928611D01*
X186104043Y-100085133D01*
X186104043Y-100085134D01*
X186155563Y-100254973D01*
X186172959Y-100431600D01*
X186155563Y-100608227D01*
X186121216Y-100721453D01*
X186104043Y-100778067D01*
X186029948Y-100916687D01*
X186020378Y-100934591D01*
X185994273Y-100966400D01*
X185907786Y-101071786D01*
X185806329Y-101155048D01*
X185770591Y-101184378D01*
X185770589Y-101184379D01*
X185614067Y-101268043D01*
X185557453Y-101285216D01*
X185444227Y-101319563D01*
X185378042Y-101326082D01*
X185311860Y-101332600D01*
X185223340Y-101332600D01*
X185157157Y-101326081D01*
X185090973Y-101319563D01*
X184977747Y-101285216D01*
X184921133Y-101268043D01*
X184764611Y-101184379D01*
X184764609Y-101184378D01*
X184728871Y-101155048D01*
X184627414Y-101071786D01*
X184540927Y-100966400D01*
X184514822Y-100934591D01*
X184505252Y-100916687D01*
X184431157Y-100778067D01*
X184413984Y-100721453D01*
X184379637Y-100608227D01*
X184362241Y-100431600D01*
X184379637Y-100254973D01*
X184431157Y-100085134D01*
X184431157Y-100085133D01*
X184514821Y-99928611D01*
X184514822Y-99928609D01*
X184544152Y-99892871D01*
X184627414Y-99791414D01*
X184728871Y-99708152D01*
X184764609Y-99678822D01*
X184791590Y-99664400D01*
X184921133Y-99595157D01*
X184977747Y-99577984D01*
X185090973Y-99543637D01*
X185157157Y-99537119D01*
X185223340Y-99530600D01*
X185311860Y-99530600D01*
X185378043Y-99537119D01*
X185378043Y-99537119D01*
G37*
G36*
X153599400Y-100966400D02*
X150997400Y-100966400D01*
X150997400Y-99664400D01*
X153599400Y-99664400D01*
X153599400Y-100966400D01*
X153599400Y-100966400D01*
G37*
G36*
X148099400Y-100966400D02*
X145497400Y-100966400D01*
X145497400Y-99664400D01*
X148099400Y-99664400D01*
X148099400Y-100966400D01*
X148099400Y-100966400D01*
G37*
G36*
X136422800Y-100416400D02*
X133820800Y-100416400D01*
X133820800Y-95214400D01*
X136422800Y-95214400D01*
X136422800Y-100416400D01*
X136422800Y-100416400D01*
G37*
G36*
X113422800Y-100416400D02*
X110820800Y-100416400D01*
X110820800Y-95214400D01*
X113422800Y-95214400D01*
X113422800Y-100416400D01*
X113422800Y-100416400D01*
G37*
G36*
X187918042Y-96997118D02*
X187984227Y-97003637D01*
X188097453Y-97037984D01*
X188154067Y-97055157D01*
X188292687Y-97129252D01*
X188310591Y-97138822D01*
X188341758Y-97164400D01*
X188447786Y-97251414D01*
X188531048Y-97352871D01*
X188560378Y-97388609D01*
X188560379Y-97388611D01*
X188644043Y-97545133D01*
X188644043Y-97545134D01*
X188695563Y-97714973D01*
X188712959Y-97891600D01*
X188695563Y-98068227D01*
X188661216Y-98181453D01*
X188644043Y-98238067D01*
X188577731Y-98362126D01*
X188560378Y-98394591D01*
X188531048Y-98430329D01*
X188447786Y-98531786D01*
X188346329Y-98615048D01*
X188310591Y-98644378D01*
X188310589Y-98644379D01*
X188154067Y-98728043D01*
X188097453Y-98745216D01*
X187984227Y-98779563D01*
X187918043Y-98786081D01*
X187851860Y-98792600D01*
X187763340Y-98792600D01*
X187697157Y-98786081D01*
X187630973Y-98779563D01*
X187517747Y-98745216D01*
X187461133Y-98728043D01*
X187304611Y-98644379D01*
X187304609Y-98644378D01*
X187268871Y-98615048D01*
X187167414Y-98531786D01*
X187084152Y-98430329D01*
X187054822Y-98394591D01*
X187037469Y-98362126D01*
X186971157Y-98238067D01*
X186953984Y-98181453D01*
X186919637Y-98068227D01*
X186902241Y-97891600D01*
X186919637Y-97714973D01*
X186971157Y-97545134D01*
X186971157Y-97545133D01*
X187054821Y-97388611D01*
X187054822Y-97388609D01*
X187084152Y-97352871D01*
X187167414Y-97251414D01*
X187273442Y-97164400D01*
X187304609Y-97138822D01*
X187322513Y-97129252D01*
X187461133Y-97055157D01*
X187517747Y-97037984D01*
X187630973Y-97003637D01*
X187697158Y-96997118D01*
X187763340Y-96990600D01*
X187851860Y-96990600D01*
X187918042Y-96997118D01*
X187918042Y-96997118D01*
G37*
G36*
X185378042Y-96997118D02*
X185444227Y-97003637D01*
X185557453Y-97037984D01*
X185614067Y-97055157D01*
X185752687Y-97129252D01*
X185770591Y-97138822D01*
X185801758Y-97164400D01*
X185907786Y-97251414D01*
X185991048Y-97352871D01*
X186020378Y-97388609D01*
X186020379Y-97388611D01*
X186104043Y-97545133D01*
X186104043Y-97545134D01*
X186155563Y-97714973D01*
X186172959Y-97891600D01*
X186155563Y-98068227D01*
X186121216Y-98181453D01*
X186104043Y-98238067D01*
X186037731Y-98362126D01*
X186020378Y-98394591D01*
X185991048Y-98430329D01*
X185907786Y-98531786D01*
X185806329Y-98615048D01*
X185770591Y-98644378D01*
X185770589Y-98644379D01*
X185614067Y-98728043D01*
X185557453Y-98745216D01*
X185444227Y-98779563D01*
X185378043Y-98786081D01*
X185311860Y-98792600D01*
X185223340Y-98792600D01*
X185157157Y-98786081D01*
X185090973Y-98779563D01*
X184977747Y-98745216D01*
X184921133Y-98728043D01*
X184764611Y-98644379D01*
X184764609Y-98644378D01*
X184728871Y-98615048D01*
X184627414Y-98531786D01*
X184544152Y-98430329D01*
X184514822Y-98394591D01*
X184497469Y-98362126D01*
X184431157Y-98238067D01*
X184413984Y-98181453D01*
X184379637Y-98068227D01*
X184362241Y-97891600D01*
X184379637Y-97714973D01*
X184431157Y-97545134D01*
X184431157Y-97545133D01*
X184514821Y-97388611D01*
X184514822Y-97388609D01*
X184544152Y-97352871D01*
X184627414Y-97251414D01*
X184733442Y-97164400D01*
X184764609Y-97138822D01*
X184782513Y-97129252D01*
X184921133Y-97055157D01*
X184977747Y-97037984D01*
X185090973Y-97003637D01*
X185157158Y-96997118D01*
X185223340Y-96990600D01*
X185311860Y-96990600D01*
X185378042Y-96997118D01*
X185378042Y-96997118D01*
G37*
G36*
X148099400Y-98466400D02*
X145497400Y-98466400D01*
X145497400Y-97164400D01*
X148099400Y-97164400D01*
X148099400Y-98466400D01*
X148099400Y-98466400D01*
G37*
G36*
X153599400Y-98466400D02*
X150997400Y-98466400D01*
X150997400Y-97164400D01*
X153599400Y-97164400D01*
X153599400Y-98466400D01*
X153599400Y-98466400D01*
G37*
G36*
X185378043Y-94457119D02*
X185444227Y-94463637D01*
X185557453Y-94497984D01*
X185614067Y-94515157D01*
X185752687Y-94589252D01*
X185770591Y-94598822D01*
X185806329Y-94628152D01*
X185907786Y-94711414D01*
X185991048Y-94812871D01*
X186020378Y-94848609D01*
X186020379Y-94848611D01*
X186104043Y-95005133D01*
X186104043Y-95005134D01*
X186155563Y-95174973D01*
X186172959Y-95351600D01*
X186155563Y-95528227D01*
X186121216Y-95641453D01*
X186104043Y-95698067D01*
X186029948Y-95836687D01*
X186020378Y-95854591D01*
X185991048Y-95890329D01*
X185907786Y-95991786D01*
X185806329Y-96075048D01*
X185770591Y-96104378D01*
X185770589Y-96104379D01*
X185614067Y-96188043D01*
X185587064Y-96196234D01*
X185444227Y-96239563D01*
X185378043Y-96246081D01*
X185311860Y-96252600D01*
X185223340Y-96252600D01*
X185157157Y-96246081D01*
X185090973Y-96239563D01*
X184948136Y-96196234D01*
X184921133Y-96188043D01*
X184764611Y-96104379D01*
X184764609Y-96104378D01*
X184728871Y-96075048D01*
X184627414Y-95991786D01*
X184544152Y-95890329D01*
X184514822Y-95854591D01*
X184505252Y-95836687D01*
X184431157Y-95698067D01*
X184413984Y-95641453D01*
X184379637Y-95528227D01*
X184362241Y-95351600D01*
X184379637Y-95174973D01*
X184431157Y-95005134D01*
X184431157Y-95005133D01*
X184514821Y-94848611D01*
X184514822Y-94848609D01*
X184544152Y-94812871D01*
X184627414Y-94711414D01*
X184728871Y-94628152D01*
X184764609Y-94598822D01*
X184782513Y-94589252D01*
X184921133Y-94515157D01*
X184977747Y-94497984D01*
X185090973Y-94463637D01*
X185157157Y-94457119D01*
X185223340Y-94450600D01*
X185311860Y-94450600D01*
X185378043Y-94457119D01*
X185378043Y-94457119D01*
G37*
G36*
X187918043Y-94457119D02*
X187984227Y-94463637D01*
X188097453Y-94497984D01*
X188154067Y-94515157D01*
X188292687Y-94589252D01*
X188310591Y-94598822D01*
X188346329Y-94628152D01*
X188447786Y-94711414D01*
X188531048Y-94812871D01*
X188560378Y-94848609D01*
X188560379Y-94848611D01*
X188644043Y-95005133D01*
X188644043Y-95005134D01*
X188695563Y-95174973D01*
X188712959Y-95351600D01*
X188695563Y-95528227D01*
X188661216Y-95641453D01*
X188644043Y-95698067D01*
X188569948Y-95836687D01*
X188560378Y-95854591D01*
X188531048Y-95890329D01*
X188447786Y-95991786D01*
X188346329Y-96075048D01*
X188310591Y-96104378D01*
X188310589Y-96104379D01*
X188154067Y-96188043D01*
X188127064Y-96196234D01*
X187984227Y-96239563D01*
X187918043Y-96246081D01*
X187851860Y-96252600D01*
X187763340Y-96252600D01*
X187697157Y-96246081D01*
X187630973Y-96239563D01*
X187488136Y-96196234D01*
X187461133Y-96188043D01*
X187304611Y-96104379D01*
X187304609Y-96104378D01*
X187268871Y-96075048D01*
X187167414Y-95991786D01*
X187084152Y-95890329D01*
X187054822Y-95854591D01*
X187045252Y-95836687D01*
X186971157Y-95698067D01*
X186953984Y-95641453D01*
X186919637Y-95528227D01*
X186902241Y-95351600D01*
X186919637Y-95174973D01*
X186971157Y-95005134D01*
X186971157Y-95005133D01*
X187054821Y-94848611D01*
X187054822Y-94848609D01*
X187084152Y-94812871D01*
X187167414Y-94711414D01*
X187268871Y-94628152D01*
X187304609Y-94598822D01*
X187322513Y-94589252D01*
X187461133Y-94515157D01*
X187517747Y-94497984D01*
X187630973Y-94463637D01*
X187697157Y-94457119D01*
X187763340Y-94450600D01*
X187851860Y-94450600D01*
X187918043Y-94457119D01*
X187918043Y-94457119D01*
G37*
G36*
X153599400Y-95966400D02*
X150997400Y-95966400D01*
X150997400Y-94664400D01*
X153599400Y-94664400D01*
X153599400Y-95966400D01*
X153599400Y-95966400D01*
G37*
G36*
X148099400Y-95966400D02*
X145497400Y-95966400D01*
X145497400Y-94664400D01*
X148099400Y-94664400D01*
X148099400Y-95966400D01*
X148099400Y-95966400D01*
G37*
G36*
X196666456Y-87062698D02*
X196772779Y-87083847D01*
X197073242Y-87208303D01*
X197340052Y-87386580D01*
X197343654Y-87388987D01*
X197573613Y-87618946D01*
X197754298Y-87889360D01*
X197878753Y-88189822D01*
X197942200Y-88508789D01*
X197942200Y-88834011D01*
X197878753Y-89152978D01*
X197754298Y-89453440D01*
X197573613Y-89723854D01*
X197343654Y-89953813D01*
X197343651Y-89953815D01*
X197073242Y-90134497D01*
X196772779Y-90258953D01*
X196666456Y-90280102D01*
X196453811Y-90322400D01*
X196128589Y-90322400D01*
X195915944Y-90280102D01*
X195809621Y-90258953D01*
X195509158Y-90134497D01*
X195238749Y-89953815D01*
X195238746Y-89953813D01*
X195008787Y-89723854D01*
X194828102Y-89453440D01*
X194703647Y-89152978D01*
X194640200Y-88834011D01*
X194640200Y-88508789D01*
X194703647Y-88189822D01*
X194828102Y-87889360D01*
X195008787Y-87618946D01*
X195238746Y-87388987D01*
X195242348Y-87386580D01*
X195509158Y-87208303D01*
X195809621Y-87083847D01*
X195915944Y-87062698D01*
X196128589Y-87020400D01*
X196453811Y-87020400D01*
X196666456Y-87062698D01*
X196666456Y-87062698D01*
G37*
G36*
X103829456Y-86834098D02*
X103935779Y-86855247D01*
X104236242Y-86979703D01*
X104297149Y-87020400D01*
X104506654Y-87160387D01*
X104736613Y-87390346D01*
X104917298Y-87660760D01*
X105041753Y-87961222D01*
X105105200Y-88280189D01*
X105105200Y-88605411D01*
X105041753Y-88924378D01*
X104917298Y-89224840D01*
X104736613Y-89495254D01*
X104506654Y-89725213D01*
X104506651Y-89725215D01*
X104236242Y-89905897D01*
X103935779Y-90030353D01*
X103829456Y-90051502D01*
X103616811Y-90093800D01*
X103291589Y-90093800D01*
X103078944Y-90051502D01*
X102972621Y-90030353D01*
X102672158Y-89905897D01*
X102401749Y-89725215D01*
X102401746Y-89725213D01*
X102171787Y-89495254D01*
X101991102Y-89224840D01*
X101866647Y-88924378D01*
X101803200Y-88605411D01*
X101803200Y-88280189D01*
X101866647Y-87961222D01*
X101991102Y-87660760D01*
X102171787Y-87390346D01*
X102401746Y-87160387D01*
X102611251Y-87020400D01*
X102672158Y-86979703D01*
X102972621Y-86855247D01*
X103078944Y-86834098D01*
X103291589Y-86791800D01*
X103616811Y-86791800D01*
X103829456Y-86834098D01*
X103829456Y-86834098D01*
G37*
M02*
