M48
;DRILL file {KiCad 5.0.2-bee76a0~70~ubuntu16.04.1} date Sun 15 Mar 2020 16:04:04 PDT
;FORMAT={-:-/ absolute / inch / decimal}
FMAT,2
INCH,TZ
T1C0.0157
T2C0.0299
T3C0.0394
%
G90
G05
T1
X4.559Y-3.852
X4.767Y-4.453
X4.868Y-4.155
X4.874Y-4.637
X4.874Y-4.715
X4.908Y-4.602
X4.908Y-4.768
X5.1253Y-4.2407
X5.1496Y-4.2717
X5.162Y-5.576
X5.1645Y-4.903
X5.171Y-3.85
X5.171Y-4.8642
X5.178Y-4.299
X5.1983Y-4.8199
X5.212Y-4.783
X5.2127Y-5.0299
X5.215Y-4.335
X5.217Y-5.069
X5.246Y-5.1016
X5.247Y-5.141
X5.261Y-4.561
X5.393Y-4.522
X5.424Y-4.491
X5.456Y-5.255
X5.487Y-4.368
X5.487Y-4.601
X5.519Y-4.629
X5.52Y-4.399
X5.55Y-4.453
X5.582Y-4.151
X5.582Y-4.646
X5.612Y-5.293
X5.634Y-4.94
X5.642Y-5.325
X5.644Y-4.614
X5.676Y-4.6425
X5.676Y-5.3693
X5.686Y-5.578
X5.767Y-5.2265
X5.849Y-5.013
X5.8909Y-5.0013
X5.894Y-4.78
X5.911Y-4.8574
X5.912Y-4.816
X5.925Y-5.578
X5.944Y-5.1242
X6.004Y-5.046
X6.022Y-5.573
X6.043Y-5.1242
X6.054Y-5.634
X6.107Y-5.41
X6.144Y-4.9885
X6.146Y-4.105
X6.176Y-5.017
X6.178Y-4.695
X6.296Y-5.409
X6.296Y-5.634
X6.307Y-4.9766
X6.307Y-5.016
X6.348Y-4.826
X6.381Y-4.613
X6.41Y-4.641
X6.442Y-4.491
X6.476Y-5.41
X6.648Y-5.409
X6.651Y-4.602
X6.6545Y-4.977
X6.681Y-4.658
X6.683Y-5.016
X6.696Y-5.573
X6.744Y-4.974
X6.745Y-5.11
X6.768Y-5.254
X6.777Y-3.807
X6.779Y-4.105
X6.782Y-4.934
X6.823Y-3.902
X6.825Y-4.254
X6.825Y-5.409
X6.83Y-5.168
X6.869Y-4.239
X6.869Y-4.454
X6.979Y-4.695
X6.981Y-4.453
X6.989Y-3.856
X6.989Y-4.206
X7.Y-5.1675
X7.005Y-5.409
X7.028Y-3.954
X7.029Y-4.297
X7.04Y-4.52
X7.062Y-4.003
X7.063Y-4.33
X7.072Y-4.559
X7.1Y-4.366
X7.103Y-4.975
X7.113Y-4.503
X7.113Y-4.889
X7.134Y-4.937
X7.136Y-4.398
X7.155Y-4.554
X7.155Y-4.858
X7.162Y-5.173
X7.166Y-5.409
X7.219Y-5.213
X7.273Y-5.34
X7.302Y-5.3978
X7.304Y-5.173
X7.36Y-4.93
X7.366Y-5.373
X7.393Y-5.297
X7.432Y-5.079
X7.483Y-5.05
X7.486Y-4.93
X7.488Y-5.383
X7.657Y-5.383
T2
X4.504Y-4.619
X4.504Y-4.719
X4.504Y-4.819
X4.504Y-4.919
X4.604Y-4.669
X4.604Y-4.769
X4.604Y-4.869
X4.604Y-4.969
T3
X7.294Y-3.754
X7.294Y-3.854
X7.294Y-3.954
X7.294Y-4.054
X7.294Y-4.154
X7.394Y-3.754
X7.394Y-3.854
X7.394Y-3.954
X7.394Y-4.054
X7.394Y-4.154
X7.294Y-4.404
X7.294Y-4.504
X7.294Y-4.604
X7.294Y-4.704
X7.294Y-4.804
X7.394Y-4.404
X7.394Y-4.504
X7.394Y-4.604
X7.394Y-4.704
X7.394Y-4.804
X5.286Y-5.722
X5.386Y-5.722
X5.486Y-5.722
X5.586Y-5.722
X5.686Y-5.722
X5.786Y-5.722
T0
M30
