G04 #@! TF.GenerationSoftware,KiCad,Pcbnew,5.0.2-bee76a0~70~ubuntu16.04.1*
G04 #@! TF.CreationDate,2020-03-15T16:19:44-07:00*
G04 #@! TF.ProjectId,DB9_Male,4442395f-4d61-46c6-952e-6b696361645f,rev?*
G04 #@! TF.SameCoordinates,Original*
G04 #@! TF.FileFunction,Copper,L2,Bot*
G04 #@! TF.FilePolarity,Positive*
%FSLAX46Y46*%
G04 Gerber Fmt 4.6, Leading zero omitted, Abs format (unit mm)*
G04 Created by KiCad (PCBNEW 5.0.2-bee76a0~70~ubuntu16.04.1) date Sun 15 Mar 2020 16:19:44 PDT*
%MOMM*%
%LPD*%
G01*
G04 APERTURE LIST*
G04 #@! TA.AperFunction,ComponentPad*
%ADD10R,1.600000X1.600000*%
G04 #@! TD*
G04 #@! TA.AperFunction,ComponentPad*
%ADD11C,1.600000*%
G04 #@! TD*
G04 #@! TA.AperFunction,ComponentPad*
%ADD12C,4.000000*%
G04 #@! TD*
G04 #@! TA.AperFunction,ComponentPad*
%ADD13R,1.700000X1.700000*%
G04 #@! TD*
G04 #@! TA.AperFunction,ComponentPad*
%ADD14O,1.700000X1.700000*%
G04 #@! TD*
G04 #@! TA.AperFunction,Conductor*
%ADD15C,0.250000*%
G04 #@! TD*
G04 APERTURE END LIST*
D10*
G04 #@! TO.P,J1,1*
G04 #@! TO.N,1*
X157607000Y-48387000D03*
D11*
G04 #@! TO.P,J1,2*
G04 #@! TO.N,2*
X157607000Y-51157000D03*
G04 #@! TO.P,J1,3*
G04 #@! TO.N,3*
X157607000Y-53927000D03*
G04 #@! TO.P,J1,4*
G04 #@! TO.N,4*
X157607000Y-56697000D03*
G04 #@! TO.P,J1,5*
G04 #@! TO.N,5*
X157607000Y-59467000D03*
G04 #@! TO.P,J1,6*
G04 #@! TO.N,6*
X154767000Y-49772000D03*
G04 #@! TO.P,J1,7*
G04 #@! TO.N,7*
X154767000Y-52542000D03*
G04 #@! TO.P,J1,8*
G04 #@! TO.N,8*
X154767000Y-55312000D03*
G04 #@! TO.P,J1,9*
G04 #@! TO.N,9*
X154767000Y-58082000D03*
D12*
G04 #@! TO.P,J1,0*
G04 #@! TO.N,N/C*
X157307000Y-41427000D03*
X157307000Y-66427000D03*
G04 #@! TD*
D13*
G04 #@! TO.P,J2,1*
G04 #@! TO.N,1*
X174973601Y-48459401D03*
D14*
G04 #@! TO.P,J2,2*
G04 #@! TO.N,2*
X177513601Y-48459401D03*
G04 #@! TO.P,J2,3*
G04 #@! TO.N,3*
X174973601Y-50999401D03*
G04 #@! TO.P,J2,4*
G04 #@! TO.N,4*
X177513601Y-50999401D03*
G04 #@! TO.P,J2,5*
G04 #@! TO.N,5*
X174973601Y-53539401D03*
G04 #@! TO.P,J2,6*
G04 #@! TO.N,6*
X177513601Y-53539401D03*
G04 #@! TO.P,J2,7*
G04 #@! TO.N,7*
X174973601Y-56079401D03*
G04 #@! TO.P,J2,8*
G04 #@! TO.N,8*
X177513601Y-56079401D03*
G04 #@! TO.P,J2,9*
G04 #@! TO.N,9*
X174973601Y-58619401D03*
G04 #@! TO.P,J2,10*
G04 #@! TO.N,Net-(J2-Pad10)*
X177513601Y-58619401D03*
G04 #@! TD*
D15*
G04 #@! TO.N,2*
X158406999Y-50357001D02*
X168794199Y-50357001D01*
X157607000Y-51157000D02*
X158406999Y-50357001D01*
X168794199Y-50357001D02*
X172440600Y-46710600D01*
X175764800Y-46710600D02*
X177513601Y-48459401D01*
X172440600Y-46710600D02*
X175764800Y-46710600D01*
G04 #@! TO.N,6*
X159221398Y-52541398D02*
X161394402Y-54714402D01*
X156672597Y-52541398D02*
X159221398Y-52541398D01*
X176338600Y-54714402D02*
X177513601Y-53539401D01*
X156413200Y-52282001D02*
X156672597Y-52541398D01*
X161394402Y-54714402D02*
X176338600Y-54714402D01*
X154767000Y-49772000D02*
X155566999Y-50571999D01*
X155566999Y-50571999D02*
X155566999Y-51325399D01*
X155566999Y-51325399D02*
X156413200Y-52171600D01*
X156413200Y-52171600D02*
X156413200Y-52282001D01*
G04 #@! TO.N,8*
X176338600Y-57254402D02*
X161191202Y-57254402D01*
X177513601Y-56079401D02*
X176338600Y-57254402D01*
X159248800Y-55312000D02*
X154767000Y-55312000D01*
X161191202Y-57254402D02*
X159248800Y-55312000D01*
G04 #@! TO.N,9*
X155898370Y-58082000D02*
X154767000Y-58082000D01*
X173771520Y-58619401D02*
X173234119Y-58082000D01*
X173234119Y-58082000D02*
X155898370Y-58082000D01*
X174973601Y-58619401D02*
X173771520Y-58619401D01*
G04 #@! TD*
M02*
