G04 #@! TF.GenerationSoftware,KiCad,Pcbnew,5.0.2-bee76a0~70~ubuntu16.04.1*
G04 #@! TF.CreationDate,2020-03-15T16:19:44-07:00*
G04 #@! TF.ProjectId,DB9_Male,4442395f-4d61-46c6-952e-6b696361645f,rev?*
G04 #@! TF.SameCoordinates,Original*
G04 #@! TF.FileFunction,Copper,L1,Top*
G04 #@! TF.FilePolarity,Positive*
%FSLAX46Y46*%
G04 Gerber Fmt 4.6, Leading zero omitted, Abs format (unit mm)*
G04 Created by KiCad (PCBNEW 5.0.2-bee76a0~70~ubuntu16.04.1) date Sun 15 Mar 2020 16:19:44 PDT*
%MOMM*%
%LPD*%
G01*
G04 APERTURE LIST*
G04 #@! TA.AperFunction,ComponentPad*
%ADD10R,1.600000X1.600000*%
G04 #@! TD*
G04 #@! TA.AperFunction,ComponentPad*
%ADD11C,1.600000*%
G04 #@! TD*
G04 #@! TA.AperFunction,ComponentPad*
%ADD12C,4.000000*%
G04 #@! TD*
G04 #@! TA.AperFunction,ComponentPad*
%ADD13R,1.700000X1.700000*%
G04 #@! TD*
G04 #@! TA.AperFunction,ComponentPad*
%ADD14O,1.700000X1.700000*%
G04 #@! TD*
G04 #@! TA.AperFunction,Conductor*
%ADD15C,0.250000*%
G04 #@! TD*
G04 APERTURE END LIST*
D10*
G04 #@! TO.P,J1,1*
G04 #@! TO.N,1*
X157607000Y-48387000D03*
D11*
G04 #@! TO.P,J1,2*
G04 #@! TO.N,2*
X157607000Y-51157000D03*
G04 #@! TO.P,J1,3*
G04 #@! TO.N,3*
X157607000Y-53927000D03*
G04 #@! TO.P,J1,4*
G04 #@! TO.N,4*
X157607000Y-56697000D03*
G04 #@! TO.P,J1,5*
G04 #@! TO.N,5*
X157607000Y-59467000D03*
G04 #@! TO.P,J1,6*
G04 #@! TO.N,6*
X154767000Y-49772000D03*
G04 #@! TO.P,J1,7*
G04 #@! TO.N,7*
X154767000Y-52542000D03*
G04 #@! TO.P,J1,8*
G04 #@! TO.N,8*
X154767000Y-55312000D03*
G04 #@! TO.P,J1,9*
G04 #@! TO.N,9*
X154767000Y-58082000D03*
D12*
G04 #@! TO.P,J1,0*
G04 #@! TO.N,N/C*
X157307000Y-41427000D03*
X157307000Y-66427000D03*
G04 #@! TD*
D13*
G04 #@! TO.P,J2,1*
G04 #@! TO.N,1*
X174973601Y-48459401D03*
D14*
G04 #@! TO.P,J2,2*
G04 #@! TO.N,2*
X177513601Y-48459401D03*
G04 #@! TO.P,J2,3*
G04 #@! TO.N,3*
X174973601Y-50999401D03*
G04 #@! TO.P,J2,4*
G04 #@! TO.N,4*
X177513601Y-50999401D03*
G04 #@! TO.P,J2,5*
G04 #@! TO.N,5*
X174973601Y-53539401D03*
G04 #@! TO.P,J2,6*
G04 #@! TO.N,6*
X177513601Y-53539401D03*
G04 #@! TO.P,J2,7*
G04 #@! TO.N,7*
X174973601Y-56079401D03*
G04 #@! TO.P,J2,8*
G04 #@! TO.N,8*
X177513601Y-56079401D03*
G04 #@! TO.P,J2,9*
G04 #@! TO.N,9*
X174973601Y-58619401D03*
G04 #@! TO.P,J2,10*
G04 #@! TO.N,Net-(J2-Pad10)*
X177513601Y-58619401D03*
G04 #@! TD*
D15*
G04 #@! TO.N,1*
X174901200Y-48387000D02*
X174973601Y-48459401D01*
X157607000Y-48387000D02*
X174901200Y-48387000D01*
G04 #@! TO.N,3*
X160534599Y-50999401D02*
X157607000Y-53927000D01*
X174973601Y-50999401D02*
X160534599Y-50999401D01*
G04 #@! TO.N,4*
X157607000Y-56697000D02*
X162107000Y-52197000D01*
X176316002Y-52197000D02*
X177513601Y-50999401D01*
X162107000Y-52197000D02*
X176316002Y-52197000D01*
G04 #@! TO.N,5*
X163534599Y-53539401D02*
X157607000Y-59467000D01*
X174973601Y-53539401D02*
X163534599Y-53539401D01*
G04 #@! TO.N,7*
X170461001Y-60592001D02*
X160387999Y-60592001D01*
X174973601Y-56079401D02*
X170461001Y-60592001D01*
X160387999Y-60592001D02*
X159562800Y-61417200D01*
X159562800Y-61417200D02*
X153365200Y-61417200D01*
X153365200Y-61417200D02*
X151485600Y-59537600D01*
X151485600Y-59537600D02*
X151485600Y-53898800D01*
X152842400Y-52542000D02*
X154767000Y-52542000D01*
X151485600Y-53898800D02*
X152842400Y-52542000D01*
G04 #@! TD*
M02*
