M48
;DRILL file {KiCad 5.0.2-bee76a0~70~ubuntu16.04.1} date Sun 15 Mar 2020 16:19:48 PDT
;FORMAT={-:-/ absolute / inch / decimal}
FMAT,2
INCH,TZ
T1C0.0394
T2C0.1260
%
G90
G05
T1
X6.0932Y-1.9595
X6.0932Y-2.0686
X6.0932Y-2.1776
X6.0932Y-2.2867
X6.205Y-1.905
X6.205Y-2.0141
X6.205Y-2.1231
X6.205Y-2.2322
X6.205Y-2.3412
X6.8887Y-1.9079
X6.8887Y-2.0079
X6.8887Y-2.1079
X6.8887Y-2.2079
X6.8887Y-2.3079
X6.9887Y-1.9079
X6.9887Y-2.0079
X6.9887Y-2.1079
X6.9887Y-2.2079
X6.9887Y-2.3079
T2
X6.1932Y-1.631
X6.1932Y-2.6152
T0
M30
